<svg xmlns="http://www.w3.org/2000/svg" width="48" height="48" viewBox="0 0 48 48" fill="none">
  <path d="M0 6C0 2.68629 2.68629 0 6 0H42C45.3137 0 48 2.68629 48 6V42C48 45.3137 45.3137 48 42 48H6C2.68629 48 0 45.3137 0 42V6Z" fill="#D7E4F2"/>
  <path d="M13.5229 12.1266C13.7686 10.9278 15.4814 10.9278 15.7271 12.1266L15.8711 12.8295C15.96 13.2629 16.2947 13.604 16.7263 13.7011L17.6211 13.9024C18.7919 14.1658 18.7919 15.8342 17.6211 16.0976L16.7263 16.2989C16.2947 16.396 15.96 16.7371 15.8711 17.1705L15.7271 17.8734C15.4814 19.0722 13.7686 19.0722 13.5229 17.8734L13.3789 17.1705C13.29 16.7371 12.9553 16.396 12.5237 16.2989L11.6289 16.0976C10.4581 15.8342 10.4581 14.1658 11.6289 13.9024L12.5237 13.7011C12.9553 13.604 13.29 13.2629 13.3789 12.8295L13.5229 12.1266Z" fill="url(#paint0_linear_25794_14645)"/>
  <path d="M35.8372 16.28C36.2113 16.3455 36.5286 16.5887 36.6904 16.9332C37.3837 18.4137 37.6395 20.0616 37.4277 21.6826C37.2158 23.3037 36.5452 24.8304 35.4947 26.0831C34.4442 27.3358 33.0576 28.2623 31.4983 28.7534C29.9389 29.2445 28.2716 29.2798 26.6928 28.8552L20.1068 35.4409C19.7124 35.8501 19.2404 36.1767 18.7184 36.4014C18.1964 36.6261 17.6349 36.7446 17.0666 36.7498C16.4983 36.7551 15.9346 36.647 15.4086 36.432C14.8825 36.2169 14.4046 35.8992 14.0027 35.4973C13.6009 35.0955 13.2831 34.6176 13.0681 34.0915C12.853 33.5655 12.7449 33.0019 12.7502 32.4336C12.7554 31.8653 12.8739 31.3038 13.0986 30.7818C13.3234 30.2598 13.6499 29.7879 14.0591 29.3935L20.6451 22.8078C20.2199 21.229 20.2549 19.5615 20.7458 18.0019C21.2368 16.4423 22.1633 15.0555 23.4162 14.0049C24.6691 12.9543 26.1962 12.2837 27.8176 12.0721C29.439 11.8605 31.087 12.1168 32.5676 12.8106C32.7367 12.8901 32.8842 13.0091 32.9977 13.1575C33.1111 13.306 33.1871 13.4796 33.2193 13.6636C33.2516 13.8477 33.239 14.0368 33.1827 14.2149C33.1265 14.3931 33.0281 14.5551 32.8961 14.6873L29.3208 18.2635C29.028 18.5564 29.028 19.0312 29.3209 19.3241L30.1766 20.1797C30.4695 20.4726 30.9443 20.4726 31.2372 20.1797L34.8136 16.6035C34.9459 16.4712 35.1081 16.3728 35.2865 16.3165C35.4648 16.2602 35.6542 16.2477 35.8384 16.28H35.8372ZM31.5305 23.1806C31.4223 23.2888 31.294 23.3746 31.1526 23.4332C31.0113 23.4917 30.8599 23.5219 30.7069 23.5219C30.5539 23.5219 30.4025 23.4917 30.2612 23.4332C30.1199 23.3746 29.9915 23.2888 29.8833 23.1806L26.3199 19.6174C26.2117 19.5092 26.1259 19.3808 26.0674 19.2395C26.0088 19.0982 25.9787 18.9468 25.9787 18.7938C25.9787 18.6409 26.0088 18.4894 26.0674 18.3481C26.1259 18.2068 26.2117 18.0784 26.3199 17.9703L29.8883 14.4021C28.8136 14.2346 27.7138 14.3506 26.6976 14.7385C25.6815 15.1265 24.7843 15.773 24.0947 16.6141C23.4051 17.4552 22.947 18.4618 22.7658 19.5342C22.5846 20.6066 22.6865 21.7078 23.0615 22.7287C23.1381 22.9377 23.1533 23.1642 23.1051 23.3815C23.057 23.5988 22.9476 23.7977 22.7899 23.9548L15.7062 31.0393C15.3472 31.4059 15.1474 31.8994 15.15 32.4125C15.1527 32.9255 15.3576 33.4169 15.7203 33.7798C16.0831 34.1427 16.5744 34.3478 17.0875 34.3507C17.6006 34.3536 18.0941 34.1539 18.4609 33.7951L25.547 26.7093C25.7042 26.5523 25.903 26.4435 26.1201 26.3958C26.3371 26.3481 26.5633 26.3635 26.7718 26.4402C27.7929 26.8152 28.8943 26.9171 29.9669 26.7359C31.0395 26.5546 32.0462 26.0965 32.8873 25.4067C33.7285 24.717 34.375 23.8196 34.7629 22.8034C35.1508 21.7871 35.2666 20.6872 35.0988 19.6124L31.5305 23.1806Z" fill="url(#paint1_linear_25794_14645)"/>
  <defs>
    <linearGradient id="paint0_linear_25794_14645" x1="45.5001" y1="1.79287" x2="11.0656" y2="62.9875" gradientUnits="userSpaceOnUse">
      <stop stop-color="#697899"/>
      <stop offset="0.843" stop-color="#B1C9FF"/>
    </linearGradient>
    <linearGradient id="paint1_linear_25794_14645" x1="33.8538" y1="10.6744" x2="16.0986" y2="42.2279" gradientUnits="userSpaceOnUse">
      <stop stop-color="#697899"/>
      <stop offset="1" stop-color="#A4C1FF"/>
    </linearGradient>
  </defs>
</svg>