<svg width="36" height="36" viewBox="0 0 36 36" fill="none" xmlns="http://www.w3.org/2000/svg">
<rect x="3" y="3" width="30" height="30" rx="4" fill="url(#paint0_linear_4659_23114)"/>
<path fill-rule="evenodd" clip-rule="evenodd" d="M10.3508 8H25.6489C26.0347 8 26.3476 8.32219 26.3478 8.72051V27.49C26.3478 27.8885 26.0355 28.2105 25.649 28.2105H10.351C9.96514 28.2105 9.6521 27.8885 9.6521 27.49V8.72051C9.6521 8.32287 9.96514 8 10.3508 8ZM13.1669 14.1144C13.1669 13.6494 13.5062 13.2723 13.9249 13.2723H18.2475C18.6659 13.2723 19.0055 13.6494 19.0053 14.1144C19.0053 14.5794 18.6659 14.9565 18.2475 14.9565H13.9249C13.5062 14.9565 13.1669 14.5794 13.1669 14.1144ZM22.8656 17.3801C23.284 17.3801 23.6236 17.7572 23.6235 18.2224C23.6235 18.6876 23.284 19.0644 22.8655 19.0644H13.9249C13.5062 19.0644 13.1669 18.6876 13.1669 18.2224C13.1669 17.7572 13.5062 17.3801 13.9249 17.3801H22.8656ZM13.1671 22.3302C13.1671 21.8651 13.5063 21.4881 13.9251 21.4881H20.9889C21.4076 21.4881 21.7471 21.8651 21.7472 22.3302C21.7472 22.7956 21.4078 23.1724 20.9891 23.1724H13.9251C13.5063 23.1724 13.1671 22.7956 13.1671 22.3302Z" fill="url(#paint1_linear_4659_23114)"/>
<defs>
<linearGradient id="paint0_linear_4659_23114" x1="18" y1="3" x2="18" y2="33" gradientUnits="userSpaceOnUse">
<stop stop-color="#4976FD"/>
<stop offset="1" stop-color="#134CF7"/>
</linearGradient>
<linearGradient id="paint1_linear_4659_23114" x1="22.8116" y1="5.79515" x2="6.08632" y2="32.6875" gradientUnits="userSpaceOnUse">
<stop stop-color="white"/>
<stop offset="1" stop-color="white" stop-opacity="0"/>
</linearGradient>
</defs>
</svg>
