<svg width="12" height="13" viewBox="0 0 12 13" fill="none" xmlns="http://www.w3.org/2000/svg">
<g clip-path="url(#clip0_13069_13711)">
<path d="M6.63553 2.71558C7.43467 1.9174 8.70384 1.86791 9.56131 2.56616L9.72733 2.71558L9.78983 2.77905C10.5875 3.57644 10.6371 4.84469 9.93826 5.7019L9.78885 5.86792L8.28983 7.36597L5.13651 4.2146L6.63553 2.71558ZM9.34549 3.09644C8.74457 2.49626 7.78939 2.45923 7.14334 2.98511L7.01834 3.09741L6.00076 4.11401H5.80057L8.28983 6.60327L8.36111 6.53296L9.40799 5.48608C10.0497 4.84424 10.05 3.80014 9.40799 3.15894H9.40701L9.34549 3.09644Z" fill="#134CFF" stroke="#134CFF" stroke-width="0.2"/>
<path d="M10.4389 1.67938C10.5309 1.5876 10.6731 1.57637 10.7778 1.6452L10.8207 1.67938C10.9128 1.77149 10.9242 1.91456 10.8549 2.01923L10.8207 2.06122L9.96625 2.91473C9.91348 2.96747 9.84493 2.99376 9.77582 2.99384C9.72407 2.99384 9.67217 2.97934 9.62738 2.94989L9.58441 2.91473C9.49254 2.82275 9.48134 2.68046 9.55023 2.57587L9.58441 2.5329L10.4389 1.67938Z" fill="#134CFF" stroke="#134CFF" stroke-width="0.2"/>
<path d="M5.07942 5.3288C5.17151 5.23674 5.31453 5.22555 5.41927 5.29462L5.46126 5.3288C5.55335 5.42086 5.56555 5.56396 5.49641 5.66864L5.46126 5.71063L4.64388 6.52802C4.59113 6.58064 4.52249 6.60704 4.45345 6.60712C4.40158 6.60712 4.34987 6.59178 4.30501 6.56219L4.26204 6.52802C4.16989 6.4359 4.15859 6.29286 4.22786 6.18817L4.26204 6.14618L5.07942 5.3288Z" fill="#134CFF" stroke="#134CFF" stroke-width="0.2"/>
<path d="M6.74944 7.08539C6.84152 6.99334 6.98454 6.98215 7.08928 7.05121L7.13127 7.08539C7.22337 7.17745 7.23557 7.32055 7.16643 7.42523L7.13127 7.46722L6.31389 8.28461C6.26114 8.33724 6.1925 8.36363 6.12346 8.36371C6.07159 8.36371 6.01988 8.34837 5.97502 8.31879L5.93205 8.28461C5.83991 8.19249 5.8286 8.04946 5.89787 7.94476L5.93205 7.90277L6.74944 7.08539Z" fill="#134CFF" stroke="#134CFF" stroke-width="0.2"/>
<path d="M6.86613 8.78748L5.36711 10.2875C4.94121 10.713 4.38127 10.9252 3.82121 10.9252C3.33143 10.925 2.84247 10.7627 2.44231 10.4369L2.27629 10.2875L2.21477 10.226C1.41545 9.42692 1.36577 8.15829 2.06535 7.30115L2.21477 7.13611L3.71379 5.63611L6.86613 8.78748ZM3.71379 6.54041L3.64348 6.47107L2.5966 7.51697C1.99469 8.11866 1.95759 9.07364 2.4843 9.71912L2.5966 9.84412L2.65813 9.90564C3.26016 10.5074 4.2156 10.5448 4.86125 10.0179L4.98528 9.90564L6.03313 8.85876L6.10344 8.78845L6.03313 8.71716L3.7841 6.47009L3.71379 6.54041Z" fill="#134CFF" stroke="#134CFF" stroke-width="0.2"/>
<path d="M2.03493 10.0855C2.12704 9.99343 2.27003 9.98221 2.37477 10.0513L2.41676 10.0855C2.50884 10.1776 2.52102 10.3207 2.45192 10.4254L2.41676 10.4673L1.56227 11.3218C1.50953 11.3744 1.44086 11.4009 1.37184 11.4009C1.32 11.4009 1.26825 11.3856 1.2234 11.356L1.18044 11.3218C1.08832 11.2298 1.07705 11.0867 1.14626 10.982L1.18044 10.94L2.03493 10.0855Z" fill="#134CFF" stroke="#134CFF" stroke-width="0.2"/>
<path d="M9.78607 9.74294C9.71848 9.89637 9.68469 9.97308 9.6536 9.9886C9.62324 10.0038 9.5982 10.0038 9.5678 9.9887C9.53668 9.97324 9.50275 9.89668 9.4349 9.74356C9.28085 9.39592 9.09075 9.2103 8.75712 9.06366C8.60368 8.99622 8.52696 8.9625 8.51142 8.93141C8.49624 8.90105 8.49621 8.87597 8.51129 8.84557C8.52674 8.81443 8.6033 8.7805 8.75642 8.71265C9.10405 8.5586 9.28967 8.36849 9.43631 8.03485C9.50373 7.88144 9.53745 7.80473 9.56854 7.78918C9.59889 7.77401 9.62397 7.77397 9.65437 7.78905C9.68551 7.8045 9.71943 7.88105 9.78727 8.03415C9.94132 8.38179 10.1314 8.56742 10.4651 8.71405C10.6185 8.78151 10.6953 8.81523 10.7108 8.84631C10.726 8.87667 10.726 8.90171 10.711 8.93212C10.6955 8.96326 10.619 8.99727 10.4658 9.06529C10.1187 9.21947 9.93273 9.40998 9.78607 9.74294Z" fill="#134CFF" stroke="#134CFF" stroke-width="0.2" stroke-linecap="round" stroke-linejoin="round"/>
</g>
<defs>
<clipPath id="clip0_13069_13711">
<rect width="10" height="10" fill="white" transform="translate(1 1.5)"/>
</clipPath>
</defs>
</svg>
