<svg width="64" height="64" viewBox="0 0 64 64" fill="none" xmlns="http://www.w3.org/2000/svg">
<path d="M44.5 1H15.24C12.7894 1 10.4392 1.9735 8.70633 3.70633C6.9735 5.43917 6 7.7894 6 10.24V53.36C6 55.8106 6.9735 58.1608 8.70633 59.8937C10.4392 61.6265 12.7894 62.6 15.24 62.6H49.12C51.5706 62.6 53.9208 61.6265 55.6537 59.8937C57.3865 58.1608 58.36 55.8106 58.36 53.36V16.4L44.5 1Z" fill="#06BF7F"/>
<path d="M44.5001 1L54.8951 12.55L58.3601 16.4H49.1201C47.8948 16.4 46.7197 15.9132 45.8533 15.0468C44.9869 14.1804 44.5001 13.0053 44.5001 11.78V1Z" fill="#009461"/>
<path d="M13.2723 28.8911C13.2723 27.2846 14.5747 25.9822 16.1812 25.9822H48.179C49.7855 25.9822 51.0879 27.2846 51.0879 28.8911V41.9811C51.0879 43.5877 49.7855 44.89 48.179 44.89H16.1812C14.5747 44.89 13.2723 43.5877 13.2723 41.9811V28.8911Z" fill="url(#paint0_linear_4654_14818)"/>
<path d="M20.044 32.72V34.932H22.9V36.15H20.044V38.782H22.998V40H18.602V31.502H22.998V32.72H20.044ZM23.9441 31.502H25.6801L27.1501 34.33L28.4941 31.502H30.2301L27.8921 35.492L30.4961 40H28.7881L26.9681 36.752L25.2321 40H23.5241L26.2261 35.478L23.9441 31.502ZM36.8094 33.532C36.3148 32.9347 35.6941 32.636 34.9474 32.636C34.1728 32.636 33.5241 32.958 33.0014 33.602C32.4788 34.2367 32.2174 34.9647 32.2174 35.786C32.2174 36.5793 32.4741 37.2933 32.9874 37.928C33.5101 38.5533 34.1588 38.866 34.9334 38.866C35.6708 38.866 36.2961 38.5673 36.8094 37.97V39.72C36.1188 40.056 35.4794 40.224 34.8914 40.224C33.7154 40.224 32.7261 39.79 31.9234 38.922C31.1208 38.054 30.7194 37.018 30.7194 35.814C30.7194 34.5633 31.1208 33.4947 31.9234 32.608C32.7261 31.7213 33.7248 31.278 34.9194 31.278C35.5448 31.278 36.1748 31.4413 36.8094 31.768V33.532ZM39.3487 32.72V34.932H42.2047V36.15H39.3487V38.782H42.3027V40H37.9067V31.502H42.3027V32.72H39.3487ZM44.8448 38.782H47.4068V40H43.4028V31.502H44.8448V38.782Z" fill="#06BF7F"/>
<path d="M20.044 32.72V32.62H19.944V32.72H20.044ZM20.044 34.932H19.944V35.032H20.044V34.932ZM22.9 34.932H23V34.832H22.9V34.932ZM22.9 36.15V36.25H23V36.15H22.9ZM20.044 36.15V36.05H19.944V36.15H20.044ZM20.044 38.782H19.944V38.882H20.044V38.782ZM22.998 38.782H23.098V38.682H22.998V38.782ZM22.998 40V40.1H23.098V40H22.998ZM18.602 40H18.502V40.1H18.602V40ZM18.602 31.502V31.402H18.502V31.502H18.602ZM22.998 31.502H23.098V31.402H22.998V31.502ZM22.998 32.72V32.82H23.098V32.72H22.998ZM19.944 32.72V34.932H20.144V32.72H19.944ZM20.044 35.032H22.9V34.832H20.044V35.032ZM22.8 34.932V36.15H23V34.932H22.8ZM22.9 36.05H20.044V36.25H22.9V36.05ZM19.944 36.15V38.782H20.144V36.15H19.944ZM20.044 38.882H22.998V38.682H20.044V38.882ZM22.898 38.782V40H23.098V38.782H22.898ZM22.998 39.9H18.602V40.1H22.998V39.9ZM18.702 40V31.502H18.502V40H18.702ZM18.602 31.602H22.998V31.402H18.602V31.602ZM22.898 31.502V32.72H23.098V31.502H22.898ZM22.998 32.62H20.044V32.82H22.998V32.62ZM23.9441 31.502V31.402H23.7714L23.8574 31.5518L23.9441 31.502ZM25.6801 31.502L25.7688 31.4559L25.7408 31.402H25.6801V31.502ZM27.1501 34.33L27.0614 34.3761L27.1541 34.5545L27.2404 34.3729L27.1501 34.33ZM28.4941 31.502V31.402H28.4309L28.4038 31.4591L28.4941 31.502ZM30.2301 31.502L30.3164 31.5526L30.4046 31.402H30.2301V31.502ZM27.8921 35.492L27.8058 35.4414L27.7764 35.4916L27.8055 35.542L27.8921 35.492ZM30.4961 40V40.1H30.6693L30.5827 39.95L30.4961 40ZM28.7881 40L28.7009 40.0489L28.7295 40.1H28.7881V40ZM26.9681 36.752L27.0553 36.7031L26.966 36.5437L26.8799 36.7049L26.9681 36.752ZM25.2321 40V40.1H25.292L25.3203 40.0471L25.2321 40ZM23.5241 40L23.4383 39.9487L23.3478 40.1H23.5241V40ZM26.2261 35.478L26.3119 35.5293L26.342 35.479L26.3128 35.4282L26.2261 35.478ZM23.9441 31.602H25.6801V31.402H23.9441V31.602ZM25.5914 31.5481L27.0614 34.3761L27.2388 34.2839L25.7688 31.4559L25.5914 31.5481ZM27.2404 34.3729L28.5844 31.5449L28.4038 31.4591L27.0598 34.2871L27.2404 34.3729ZM28.4941 31.602H30.2301V31.402H28.4941V31.602ZM30.1438 31.4514L27.8058 35.4414L27.9784 35.5426L30.3164 31.5526L30.1438 31.4514ZM27.8055 35.542L30.4095 40.05L30.5827 39.95L27.9787 35.442L27.8055 35.542ZM30.4961 39.9H28.7881V40.1H30.4961V39.9ZM28.8753 39.9511L27.0553 36.7031L26.8809 36.8009L28.7009 40.0489L28.8753 39.9511ZM26.8799 36.7049L25.1439 39.9529L25.3203 40.0471L27.0563 36.7991L26.8799 36.7049ZM25.2321 39.9H23.5241V40.1H25.2321V39.9ZM23.6099 40.0513L26.3119 35.5293L26.1403 35.4267L23.4383 39.9487L23.6099 40.0513ZM26.3128 35.4282L24.0308 31.4522L23.8574 31.5518L26.1394 35.5278L26.3128 35.4282ZM36.8094 33.532L36.7324 33.5958L36.9094 33.8095V33.532H36.8094ZM33.0014 33.602L33.0786 33.6656L33.0791 33.665L33.0014 33.602ZM32.9874 37.928L32.9097 37.9909L32.9107 37.9921L32.9874 37.928ZM36.8094 37.97H36.9094V37.7002L36.7336 37.9048L36.8094 37.97ZM36.8094 39.72L36.8532 39.8099L36.9094 39.7826V39.72H36.8094ZM31.9234 38.922L31.9969 38.8541L31.9969 38.8541L31.9234 38.922ZM31.9234 32.608L31.9976 32.6751L31.9976 32.6751L31.9234 32.608ZM36.8094 31.768H36.9094V31.707L36.8552 31.6791L36.8094 31.768ZM36.8865 33.4682C36.3736 32.849 35.7252 32.536 34.9474 32.536V32.736C35.663 32.736 36.2559 33.0204 36.7324 33.5958L36.8865 33.4682ZM34.9474 32.536C34.1403 32.536 33.4639 32.8735 32.9238 33.539L33.0791 33.665C33.5843 33.0425 34.2053 32.736 34.9474 32.736V32.536ZM32.9242 33.5384C32.3868 34.191 32.1174 34.9414 32.1174 35.786H32.3174C32.3174 34.9879 32.5707 34.2824 33.0786 33.6656L32.9242 33.5384ZM32.1174 35.786C32.1174 36.6029 32.3824 37.339 32.9097 37.9909L33.0652 37.8651C32.5658 37.2477 32.3174 36.5557 32.3174 35.786H32.1174ZM32.9107 37.9921C33.4512 38.6388 34.1274 38.966 34.9334 38.966V38.766C34.1901 38.766 33.569 38.4678 33.0642 37.8639L32.9107 37.9921ZM34.9334 38.966C35.7021 38.966 36.3544 38.6529 36.8853 38.0352L36.7336 37.9048C36.2378 38.4818 35.6394 38.766 34.9334 38.766V38.966ZM36.7094 37.97V39.72H36.9094V37.97H36.7094ZM36.7657 39.6301C36.0846 39.9614 35.4604 40.124 34.8914 40.124V40.324C35.4985 40.324 36.1529 40.1506 36.8532 39.8099L36.7657 39.6301ZM34.8914 40.124C33.7435 40.124 32.7807 39.7018 31.9969 38.8541L31.85 38.9899C32.6715 39.8782 33.6874 40.324 34.8914 40.324V40.124ZM31.9969 38.8541C31.2116 38.005 30.8194 36.9933 30.8194 35.814H30.6194C30.6194 37.0427 31.0299 38.103 31.85 38.9899L31.9969 38.8541ZM30.8194 35.814C30.8194 34.5869 31.2124 33.5425 31.9976 32.6751L31.8493 32.5409C31.0292 33.4468 30.6194 34.5398 30.6194 35.814H30.8194ZM31.9976 32.6751C32.7813 31.8094 33.7531 31.378 34.9194 31.378V31.178C33.6965 31.178 32.6709 31.6333 31.8493 32.5409L31.9976 32.6751ZM34.9194 31.378C35.5267 31.378 36.1411 31.5365 36.7637 31.8569L36.8552 31.6791C36.2084 31.3462 35.5628 31.178 34.9194 31.178V31.378ZM36.7094 31.768V33.532H36.9094V31.768H36.7094ZM39.3487 32.72V32.62H39.2487V32.72H39.3487ZM39.3487 34.932H39.2487V35.032H39.3487V34.932ZM42.2047 34.932H42.3047V34.832H42.2047V34.932ZM42.2047 36.15V36.25H42.3047V36.15H42.2047ZM39.3487 36.15V36.05H39.2487V36.15H39.3487ZM39.3487 38.782H39.2487V38.882H39.3487V38.782ZM42.3027 38.782H42.4027V38.682H42.3027V38.782ZM42.3027 40V40.1H42.4027V40H42.3027ZM37.9067 40H37.8067V40.1H37.9067V40ZM37.9067 31.502V31.402H37.8067V31.502H37.9067ZM42.3027 31.502H42.4027V31.402H42.3027V31.502ZM42.3027 32.72V32.82H42.4027V32.72H42.3027ZM39.2487 32.72V34.932H39.4487V32.72H39.2487ZM39.3487 35.032H42.2047V34.832H39.3487V35.032ZM42.1047 34.932V36.15H42.3047V34.932H42.1047ZM42.2047 36.05H39.3487V36.25H42.2047V36.05ZM39.2487 36.15V38.782H39.4487V36.15H39.2487ZM39.3487 38.882H42.3027V38.682H39.3487V38.882ZM42.2027 38.782V40H42.4027V38.782H42.2027ZM42.3027 39.9H37.9067V40.1H42.3027V39.9ZM38.0067 40V31.502H37.8067V40H38.0067ZM37.9067 31.602H42.3027V31.402H37.9067V31.602ZM42.2027 31.502V32.72H42.4027V31.502H42.2027ZM42.3027 32.62H39.3487V32.82H42.3027V32.62ZM44.8448 38.782H44.7448V38.882H44.8448V38.782ZM47.4068 38.782H47.5068V38.682H47.4068V38.782ZM47.4068 40V40.1H47.5068V40H47.4068ZM43.4028 40H43.3028V40.1H43.4028V40ZM43.4028 31.502V31.402H43.3028V31.502H43.4028ZM44.8448 31.502H44.9448V31.402H44.8448V31.502ZM44.8448 38.882H47.4068V38.682H44.8448V38.882ZM47.3068 38.782V40H47.5068V38.782H47.3068ZM47.4068 39.9H43.4028V40.1H47.4068V39.9ZM43.5028 40V31.502H43.3028V40H43.5028ZM43.4028 31.602H44.8448V31.402H43.4028V31.602ZM44.7448 31.502V38.782H44.9448V31.502H44.7448Z" fill="#06BF7F"/>
<defs>
<linearGradient id="paint0_linear_4654_14818" x1="32.1801" y1="25.9822" x2="32.1801" y2="44.89" gradientUnits="userSpaceOnUse">
<stop stop-color="white"/>
<stop offset="1" stop-color="white" stop-opacity="0.8"/>
</linearGradient>
</defs>
</svg>
