<svg width="14" height="14" xmlns="http://www.w3.org/2000/svg"><path d="M12.684 2.98a6.974 6.974 0 0 0-9.7-1.716 6.974 6.974 0 0 0-1.717 9.7.5.5 0 1 0 .822-.573 5.97 5.97 0 0 1 1.47-8.306 5.97 5.97 0 0 1 8.304 1.47 5.971 5.971 0 0 1-1.47 8.305 5.948 5.948 0 0 1-6.197.39.5.5 0 1 0-.465.887 6.942 6.942 0 0 0 7.237-.456 6.974 6.974 0 0 0 1.716-9.7Z"/><path d="M8.246 7.427c.631-.523.942-.938 1.134-1.243a1.78 1.78 0 0 0 .29-.968c-.002-.615-.164-1.155-.689-1.618-.525-.462-1.13-.695-2.017-.695-.845 0-1.425.23-1.944.688-.27.238-.475.503-.615.795-.201.418.027.822.466.95l.09.018c.238.035.416-.073.599-.41.097-.178.328-.394.487-.529.265-.224.591-.335.985-.335.407 0 .729.107.97.322.238.215.36.472.36.773a.97.97 0 0 1-.205.594c-.088.114-.357.354-.808.72-.45.366-.751.698-.901.99-.151.293-.198.481-.2.937-.002.433.33.553.644.553.433 0 .616-.257.666-.593.018-.123.045-.22.08-.294.079-.165.28-.382.608-.655ZM7 9.503a.773.773 0 0 0-.773.773c0 .463.322.773.773.773a.773.773 0 1 0 0-1.546Z"/></svg>