<svg width="50" height="20" viewBox="0 0 50 20" fill="none" xmlns="http://www.w3.org/2000/svg">
<path d="M0 0H39C45.0751 0 50 4.92487 50 11V20H13C5.8203 20 0 14.1797 0 7V0Z" fill="url(#paint0_linear_13053_12461)"/>
<path d="M12.84 5.932H14.244V9.508H18.588V5.932H19.992V14.5H18.588V10.708H14.244V14.5H12.84V5.932ZM25.4799 5.764C26.7879 5.764 27.8199 6.184 28.5759 7.036C29.2959 7.84 29.6559 8.908 29.6559 10.228C29.6559 11.548 29.2959 12.604 28.5759 13.408C27.8199 14.248 26.7879 14.668 25.4799 14.668C24.1599 14.668 23.1279 14.236 22.3839 13.396C21.6639 12.58 21.3159 11.524 21.3159 10.228C21.3159 8.92 21.6639 7.864 22.3839 7.048C23.1279 6.184 24.1599 5.764 25.4799 5.764ZM25.4799 7C24.5919 7 23.9079 7.3 23.4159 7.9C22.9479 8.476 22.7199 9.244 22.7199 10.228C22.7199 11.2 22.9479 11.968 23.4159 12.544C23.8959 13.132 24.5919 13.432 25.4799 13.432C26.3679 13.432 27.0519 13.144 27.5319 12.58C27.9999 12.016 28.2399 11.236 28.2399 10.228C28.2399 9.22 27.9999 8.428 27.5319 7.852C27.0519 7.276 26.3679 7 25.4799 7ZM30.3206 5.932H37.3406V7.132H34.5326V14.5H33.1286V7.132H30.3206V5.932Z" fill="white"/>
<defs>
<linearGradient id="paint0_linear_13053_12461" x1="-5.5" y1="7.93766e-07" x2="52" y2="20" gradientUnits="userSpaceOnUse">
<stop stop-color="#1673FF"/>
<stop offset="1" stop-color="#9450F9"/>
</linearGradient>
</defs>
</svg>
