<svg width="64" height="64" viewBox="0 0 64 64" fill="none" xmlns="http://www.w3.org/2000/svg">
<path d="M44.5 1H15.24C12.7894 1 10.4392 1.9735 8.70633 3.70633C6.9735 5.43917 6 7.7894 6 10.24V53.36C6 55.8106 6.9735 58.1608 8.70633 59.8937C10.4392 61.6265 12.7894 62.6 15.24 62.6H49.12C51.5706 62.6 53.9208 61.6265 55.6537 59.8937C57.3865 58.1608 58.36 55.8106 58.36 53.36V16.4L44.5 1Z" fill="#2454FF"/>
<path d="M44.5001 1L54.8951 12.55L58.3601 16.4H49.1201C47.8948 16.4 46.7197 15.9132 45.8533 15.0468C44.9869 14.1804 44.5001 13.0053 44.5001 11.78V1Z" fill="#0D2FA9"/>
<path fill-rule="evenodd" clip-rule="evenodd" d="M16.1812 25.9822C14.5747 25.9822 13.2723 27.2846 13.2723 28.8911V41.9811C13.2723 43.5877 14.5747 44.89 16.1812 44.89H48.179C49.7855 44.89 51.0879 43.5877 51.0879 41.9811V28.8911C51.0879 27.2846 49.7855 25.9822 48.179 25.9822H16.1812ZM43.7639 31.4144C43.6032 31.4144 43.473 31.5446 43.473 31.7053V39.5934C43.473 39.7541 43.6032 39.8843 43.7639 39.8843H45.0643L45.0774 39.884H47.8885C48.0491 39.884 48.1794 39.7538 48.1794 39.5931V38.2927C48.1794 38.132 48.0491 38.0018 47.8885 38.0018H45.3552V31.7053C45.3552 31.5446 45.225 31.4144 45.0643 31.4144H43.7639ZM18.8844 39.8848C19.6144 39.8848 20.2134 39.6352 20.6808 39.1356C21.1483 38.6366 21.382 37.9661 21.382 37.1255V31.5341H19.943C19.7824 31.5341 19.6521 31.6643 19.6521 31.825V37.1255C19.6521 37.529 19.5803 37.8446 19.4373 38.0727C19.2937 38.3008 19.1098 38.4148 18.8844 38.4148C18.5878 38.4148 18.3473 38.3205 18.1628 38.1323C18.0259 37.9922 17.9401 37.7931 17.9049 37.5349C17.8833 37.3757 17.7564 37.2448 17.5958 37.2448H16.2255C16.2085 37.2448 16.1931 37.2546 16.1859 37.27C16.1833 37.2755 16.1819 37.2816 16.1818 37.2877C16.1669 38.1313 16.4033 38.7748 16.891 39.2178C17.381 39.6625 18.0449 39.8848 18.8844 39.8848ZM25.3274 39.8848C26.1732 39.8848 26.8524 39.6804 27.3644 39.2711C27.8758 38.8624 28.1315 38.2961 28.1315 37.5725C28.1315 36.8638 27.9099 36.3057 27.466 35.8993C27.0232 35.4917 26.3697 35.1467 25.5061 34.8642C24.9978 34.6459 24.6509 34.4635 24.4649 34.3188C24.2794 34.1741 24.1861 33.9807 24.1861 33.7393C24.1861 33.4903 24.2767 33.2813 24.4575 33.1117C24.6383 32.9421 24.8857 32.857 25.1996 32.857C25.5847 32.857 25.8735 32.945 26.0642 33.1204C26.2041 33.2483 26.2927 33.4335 26.3302 33.6757C26.3548 33.8345 26.4811 33.9657 26.6418 33.9657H27.9987C28.0169 33.9657 28.033 33.9537 28.0382 33.9363C28.0393 33.9327 28.0399 33.929 28.04 33.9252C28.0554 33.129 27.8049 32.512 27.2873 32.0743C26.7685 31.6348 26.0847 31.4154 25.2352 31.4154C24.4303 31.4154 23.7663 31.6285 23.2444 32.0546C22.7225 32.4801 22.4615 33.0382 22.4615 33.7277C22.4615 34.4329 22.6858 34.9724 23.1343 35.3476C23.5829 35.7227 24.2699 36.0759 25.1943 36.4076C25.6513 36.5848 25.9673 36.7515 26.1413 36.9078C26.3152 37.0642 26.4022 37.2899 26.4022 37.5835C26.4022 37.8399 26.3131 38.0472 26.136 38.2058C25.9584 38.3639 25.689 38.4432 25.3274 38.4432C24.8872 38.4432 24.5608 38.3425 24.3475 38.1404C24.1802 37.9824 24.0787 37.7393 24.0427 37.4107C24.0252 37.251 23.8976 37.1203 23.7369 37.1203H22.3735C22.356 37.1203 22.3405 37.1317 22.3353 37.1484C22.3342 37.1521 22.3336 37.1559 22.3335 37.1597C22.3175 38.0992 22.6021 38.7874 23.1857 39.2265C23.771 39.6653 24.4848 39.8848 25.3274 39.8848ZM32.1137 39.8848C33.0517 39.8848 33.8116 39.5559 34.3932 38.8982C34.9749 38.2406 35.2658 37.4046 35.2658 36.3908V34.9088C35.2658 33.8991 34.9723 33.0637 34.3854 32.4042C33.7985 31.7443 33.0376 31.4148 32.1032 31.4148C31.1615 31.4148 30.398 31.7448 29.8132 32.4048C29.2278 33.0637 28.9354 33.8985 28.9354 34.9088V36.3903C28.9354 37.404 29.2289 38.24 29.8158 38.8977C30.4027 39.5553 31.1683 39.8848 32.1137 39.8848ZM32.1137 38.4148C31.6457 38.4148 31.2868 38.2261 31.0357 37.8492C30.7853 37.4729 30.66 36.9866 30.66 36.3903V34.8983C30.66 34.3067 30.7837 33.8232 31.031 33.4481C31.2784 33.0729 31.6358 32.8853 32.1032 32.8853C32.5602 32.8853 32.9139 33.0741 33.1649 33.451C33.4154 33.8273 33.5412 34.3101 33.5412 34.8983V36.3908C33.5412 36.9866 33.4164 37.4723 33.1675 37.8498C32.9186 38.2261 32.5675 38.4148 32.1137 38.4148ZM37.758 39.7661C37.9187 39.7661 38.0489 39.6358 38.0489 39.4752V34.5984L38.0798 34.5869L40.7261 39.6108C40.7764 39.7063 40.8755 39.7661 40.9835 39.7661H42.2411C42.4018 39.7661 42.532 39.6358 42.532 39.4752V31.825C42.532 31.6643 42.4018 31.5341 42.2411 31.5341H41.0988C40.9382 31.5341 40.8079 31.6643 40.8079 31.825V36.6959L40.777 36.7075L38.1313 31.6893C38.0809 31.5939 37.9819 31.5341 37.874 31.5341H36.611C36.4503 31.5341 36.3201 31.6643 36.3201 31.825V39.4752C36.3201 39.6358 36.4503 39.7661 36.611 39.7661H37.758Z" fill="url(#paint0_linear_4654_14806)"/>
<defs>
<linearGradient id="paint0_linear_4654_14806" x1="32.1801" y1="25.9822" x2="32.1801" y2="44.89" gradientUnits="userSpaceOnUse">
<stop stop-color="white"/>
<stop offset="1" stop-color="white" stop-opacity="0.8"/>
</linearGradient>
</defs>
</svg>
