<svg width="48" height="48" viewBox="0 0 48 48" fill="none" xmlns="http://www.w3.org/2000/svg">
<circle cx="24" cy="24" r="24" fill="#96B3FF" fill-opacity="0.2"/>
<path d="M17.1431 13.7144C17.1431 13.2597 17.3237 12.8237 17.6452 12.5021C17.9667 12.1806 18.4028 12 18.8575 12H29.1431C29.5978 12 30.0338 12.1806 30.3553 12.5021C30.6769 12.8237 30.8575 13.2597 30.8575 13.7144V15.4288H17.1431V13.7144Z" fill="#0746FF"/>
<path opacity="0.5" d="M13.7145 18.8582V17.1438C13.7146 16.6892 13.8952 16.2532 14.2167 15.9317C14.5382 15.6103 14.9743 15.4297 15.4289 15.4297H32.5718C33.0265 15.4297 33.4626 15.6103 33.7841 15.9318C34.1056 16.2533 34.2863 16.6894 34.2863 17.1441V18.8585" fill="#0746FF"/>
<path d="M13.7144 18.8594H34.2859C35.4288 18.8594 36.0003 19.4308 36.0003 20.5738V34.2882C36.0003 35.4312 35.4288 36.0026 34.2859 36.0026H13.7144C12.5715 36.0026 12 35.4312 12 34.2882V20.5738C12 19.4308 12.5715 18.8594 13.7144 18.8594Z" fill="#0746FF"/>
<path d="M24.9807 24L25.1487 24.2024L23.7908 31.6494L23.6228 31.7899H22.7998L22.6318 31.5875L23.9897 24.1405L24.1577 24H24.9807ZM20.7339 24.8725L20.9774 25.0285V25.8515L20.8764 26.0075L17.1358 27.7127L20.8764 29.418L20.9774 29.574V30.3969L20.7339 30.5529L15.5294 28.1769L15.4299 28.0209V27.4039L15.5294 27.2479L20.7339 24.8725ZM27.243 24.8725L32.4475 27.2485L32.547 27.4045V28.0216L32.4475 28.1776L27.243 30.5536L26.9995 30.3976V29.5746L27.1006 29.4186L30.8411 27.7134L27.1006 26.0081L26.9995 25.8521V25.0292L27.243 24.8725Z" fill="white"/>
</svg>
