<svg width="123" height="25" viewBox="0 0 123 25" fill="none" xmlns="http://www.w3.org/2000/svg">
<g clip-path="url(#clip0_4448_11245)">
<path d="M38.5913 11.7509V11.686C39.4113 11.441 40.0629 11.0302 40.5461 10.4536C41.0293 9.8482 41.2709 9.10586 41.2709 8.22658C41.2709 6.88604 40.7584 5.88604 39.7334 5.22297C38.7084 4.57432 37.3247 4.25 35.5841 4.25H29.9412V20.1347H36.1551C37.925 20.1347 39.3673 19.7599 40.4802 19.0104C41.5637 18.2752 42.1055 17.1725 42.1055 15.7041C42.1055 14.6518 41.776 13.7581 41.1171 13.0248C40.4582 12.2914 39.6163 11.8644 38.5931 11.7491L38.5913 11.7509ZM32.6629 6.60676H35.5163C37.4492 6.60676 38.4137 7.27703 38.4137 8.61757C38.4137 9.36712 38.1648 9.90045 37.667 10.2176C37.1545 10.5347 36.4736 10.6932 35.6243 10.6932H32.661V6.60856L32.6629 6.60676ZM38.4815 17.1977C37.9836 17.5869 37.2222 17.7815 36.199 17.7815H32.6647V13.005H36.243C37.1508 13.005 37.8756 13.2068 38.4156 13.6104C38.972 13.9995 39.2502 14.5977 39.2502 15.405C39.2502 16.2122 38.994 16.8104 38.4815 17.1995V17.1977Z" fill="white"/>
<path d="M47.1756 8.72559H44.5417V20.1364H47.1756V8.72559Z" fill="white"/>
<path d="M47.1756 4.25195H44.5417V6.84475H47.1756V4.25195Z" fill="white"/>
<path d="M71.6562 14.1925H71.5885L66.1012 4.25195H63.2458V20.1366H65.9254V9.00691H65.9913L70.8216 17.9745H72.3792L77.2094 9.00691H77.2753V20.1366H79.9549V4.25195H77.1874L71.6562 14.1925Z" fill="white"/>
<path d="M90.4408 9.30754C89.5916 8.80303 88.5885 8.55078 87.4336 8.55078C86.2787 8.55078 85.2519 8.80303 84.4044 9.30754C83.5259 9.81204 82.845 10.5111 82.3618 11.403C81.8932 12.2823 81.6589 13.3057 81.6589 14.4715C81.6589 15.6373 81.8932 16.6409 82.3618 17.5183C82.845 18.412 83.5185 19.1111 84.3825 19.6156C85.2757 20.1202 86.2933 20.3724 87.4336 20.3724C88.5739 20.3724 89.5476 20.1202 90.4408 19.6156C91.3047 19.1111 91.9783 18.412 92.4615 17.5183C92.9447 16.6102 93.1863 15.5958 93.1863 14.4715C93.1863 13.3472 92.9447 12.3093 92.4615 11.403C91.9783 10.4949 91.3047 9.79583 90.4408 9.30754ZM89.6282 17.0445C89.101 17.7364 88.3689 18.0823 87.4318 18.0823C86.4947 18.0823 85.7186 17.7364 85.1933 17.0445C84.6662 16.3526 84.4026 15.4967 84.4026 14.4733C84.4026 13.4499 84.6735 12.558 85.2153 11.8805C85.7424 11.1886 86.4818 10.8427 87.4318 10.8427C88.3817 10.8427 89.0864 11.1886 89.6282 11.8805C90.1699 12.5868 90.4408 13.4517 90.4408 14.4733C90.4408 15.4949 90.1699 16.34 89.6282 17.0445Z" fill="white"/>
<path d="M103.282 9.99964H103.194C102.887 9.58162 102.44 9.23567 101.855 8.9618C101.254 8.68793 100.595 8.55099 99.8778 8.55099C98.8968 8.55099 97.9963 8.79603 97.1781 9.28612C96.3435 9.7618 95.6846 10.4465 95.2014 11.3402C94.7035 12.2195 94.4546 13.2429 94.4546 14.4086C94.4546 15.6339 94.6962 16.6987 95.1794 17.6068C95.648 18.5005 96.2922 19.1852 97.1122 19.6591C97.9029 20.1348 98.7961 20.3726 99.79 20.3726C100.522 20.3726 101.232 20.1852 101.919 19.8104C102.578 19.4501 103.068 19.0249 103.39 18.5348L103.456 18.5564V20.178H105.914V3.64648L103.28 4.72757V10.0014L103.282 9.99964ZM102.47 17.0663C101.899 17.7438 101.152 18.0825 100.229 18.0825C99.3068 18.0825 98.6113 17.7438 98.0567 17.0663C97.5003 16.4177 97.222 15.5312 97.222 14.4086C97.222 13.2861 97.5076 12.4411 98.0786 11.7942C98.6351 11.16 99.3672 10.8429 100.275 10.8429C100.831 10.8429 101.337 10.9798 101.791 11.2537C102.259 11.542 102.632 11.96 102.911 12.5077C103.204 13.0843 103.35 13.7546 103.35 14.5186C103.35 15.5276 103.057 16.378 102.471 17.0681L102.47 17.0663Z" fill="white"/>
<path d="M122.957 3.64648H120.301V20.1798H122.957V3.64648Z" fill="white"/>
<path d="M58.2635 10.2808H58.2196C57.8975 9.7907 57.4216 9.37268 56.792 9.02673C56.1623 8.68079 55.4595 8.50781 54.6853 8.50781C53.6456 8.50781 52.7305 8.76006 51.9416 9.26457C51.1216 9.78349 50.4847 10.4898 50.0307 11.3817C49.5768 12.261 49.3499 13.27 49.3499 14.4069C49.3499 15.5438 49.5841 16.5979 50.0527 17.4321C50.5213 18.3114 51.1509 18.9889 51.9416 19.4628C52.7323 19.9384 53.5962 20.1763 54.5315 20.1763C55.2929 20.1763 55.9958 20.0177 56.6382 19.7006C57.2386 19.4123 57.6925 19.0231 58 18.533H58.0659V19.7222C58.0659 20.5583 57.8023 21.2646 57.2752 21.8393C56.7334 22.4159 55.928 22.7042 54.861 22.7042C54.1874 22.7042 53.5358 22.5817 52.908 22.3366C52.4962 22.1637 52.0917 21.9366 51.6945 21.661L49.8733 23.2069C50.5011 23.7493 51.2479 24.1799 52.1173 24.4988C53.0105 24.8303 53.9403 24.9961 54.9049 24.9961C56.7352 24.9961 58.161 24.5132 59.186 23.5475C60.211 22.5817 60.7235 21.279 60.7235 19.6357V8.72223L58.2654 9.62313V10.279L58.2635 10.2808ZM57.3191 16.9583C56.748 17.6069 55.9866 17.9312 55.0367 17.9312C54.1728 17.9312 53.4626 17.5997 52.908 16.9366C52.3662 16.2736 52.0953 15.4087 52.0953 14.3438C52.0953 13.279 52.3662 12.4574 52.908 11.7943C53.4498 11.1312 54.1819 10.7997 55.1026 10.7997C55.6736 10.7997 56.1861 10.9438 56.64 11.2321C57.1232 11.5493 57.4893 11.9745 57.7382 12.5078C58.0164 13.0988 58.1556 13.7475 58.1556 14.4538C58.1556 15.4628 57.8773 16.2988 57.3209 16.9601L57.3191 16.9583Z" fill="white"/>
<path d="M115.91 9.28592C115.104 8.79583 114.175 8.55078 113.122 8.55078C112.07 8.55078 111.058 8.80303 110.225 9.30754C109.361 9.79763 108.687 10.4967 108.204 11.403C107.721 12.2967 107.479 13.3057 107.479 14.4283C107.479 15.5508 107.721 16.612 108.204 17.5183C108.687 18.412 109.368 19.1111 110.247 19.6156C111.14 20.1202 112.126 20.3724 113.21 20.3724C114.162 20.3724 115.09 20.1706 115.998 19.767C116.812 19.4012 117.471 18.9111 117.98 18.2985L116.364 16.9256C115.996 17.2931 115.599 17.5868 115.165 17.8012C114.638 18.0607 114.052 18.1904 113.408 18.1904C112.412 18.1904 111.651 17.931 111.125 17.412C110.569 16.8787 110.247 16.1868 110.159 15.3382H118.48C118.494 15.0355 118.501 14.7256 118.501 14.4084C118.501 13.2841 118.275 12.2625 117.821 11.34C117.352 10.4463 116.715 9.76159 115.91 9.28592ZM110.157 13.4138C110.289 12.5634 110.611 11.9003 111.123 11.4247C111.636 10.9346 112.302 10.6895 113.122 10.6895C113.854 10.6895 114.477 10.9346 114.989 11.4247C115.487 11.9147 115.758 12.5778 115.802 13.4138H110.159H110.157Z" fill="white"/>
<path d="M21.0527 11.7895V5.91559C21.0527 5.89816 21.0432 5.88207 21.0278 5.87346L10.5507 0.00632824C10.5431 0.00210946 10.5347 2.92206e-08 10.5264 0V2.45801C10.5264 7.22726 14.5119 11.784 19.4287 11.784C19.3296 11.784 19.2309 11.7858 19.1326 11.7895H21.0527Z" fill="url(#paint0_linear_4448_11245)"/>
<path d="M5.16985e-05 11.7895V17.8731C5.16985e-05 17.8912 0.00955139 17.9079 0.0249295 17.9168L10.5021 23.9934C10.5096 23.9978 10.518 24 10.5264 24V21.4542C10.5264 16.5146 6.54084 11.7952 1.624 11.7952C1.7231 11.7952 1.82182 11.7933 1.92015 11.7895H5.16985e-05Z" fill="url(#paint1_linear_4448_11245)"/>
<path d="M5.16985e-05 11.7895V5.91559C5.16985e-05 5.89816 0.00955139 5.88207 0.0249295 5.87346L10.5021 0.00632824C10.5096 0.00210946 10.518 2.92206e-08 10.5264 0V2.45801C10.5264 7.22726 6.54084 11.784 1.624 11.784C1.7231 11.784 1.82182 11.7858 1.92015 11.7895H5.16985e-05Z" fill="url(#paint2_linear_4448_11245)"/>
<path d="M21.0527 11.7895V17.8731C21.0527 17.8912 21.0432 17.9079 21.0278 17.9168L10.5507 23.9934C10.5431 23.9978 10.5347 24 10.5264 24V21.4542C10.5264 16.5146 14.5119 11.7952 19.4287 11.7952C19.3296 11.7952 19.2309 11.7933 19.1326 11.7895H21.0527Z" fill="url(#paint3_linear_4448_11245)"/>
<path fill-rule="evenodd" clip-rule="evenodd" d="M19.4287 11.7952C14.5118 11.7952 10.5263 16.5146 10.5263 21.4542C10.5263 16.5586 6.6115 11.8793 1.75515 11.7963L1.7549 11.7941C1.81009 11.7931 1.86516 11.7916 1.9201 11.7895C1.86483 11.7874 1.80942 11.7859 1.7539 11.785L1.75366 11.7829C6.6107 11.7037 10.5263 7.18525 10.5263 2.45801C10.5263 7.22726 14.5118 11.784 19.4287 11.784C19.3296 11.784 19.2309 11.7858 19.1325 11.7895C19.2309 11.7933 19.3296 11.7952 19.4287 11.7952Z" fill="white"/>
</g>
<defs>
<linearGradient id="paint0_linear_4448_11245" x1="9.93885" y1="0.564861" x2="20.4638" y2="7.68592" gradientUnits="userSpaceOnUse">
<stop stop-color="#988EFF"/>
<stop offset="1" stop-color="#2153DD"/>
</linearGradient>
<linearGradient id="paint1_linear_4448_11245" x1="9.34873" y1="21.242" x2="-1.57044" y2="11.4259" gradientUnits="userSpaceOnUse">
<stop stop-color="#8EAEFF"/>
<stop offset="1" stop-color="#2199DD"/>
</linearGradient>
<linearGradient id="paint2_linear_4448_11245" x1="1.28382" y1="11.7895" x2="9.86952" y2="-0.120872" gradientUnits="userSpaceOnUse">
<stop stop-color="#988EFF"/>
<stop offset="1" stop-color="#2153DD"/>
</linearGradient>
<linearGradient id="paint3_linear_4448_11245" x1="21.0527" y1="11.2977" x2="10.7673" y2="23.7957" gradientUnits="userSpaceOnUse">
<stop stop-color="#8EA7FF"/>
<stop offset="1" stop-color="#2161DD"/>
</linearGradient>
<clipPath id="clip0_4448_11245">
<rect width="123" height="25" fill="white"/>
</clipPath>
</defs>
</svg>
