<svg width="12" height="13" viewBox="0 0 12 13" fill="none" xmlns="http://www.w3.org/2000/svg">
<g clip-path="url(#clip0_13069_13552)">
<path d="M6.00087 11.9983C5.78828 11.9983 5.57569 11.9443 5.38607 11.8364L1.62127 9.69474C1.24203 9.47889 1.00647 9.07679 1.00647 8.6451V4.36185C1.00647 3.93016 1.24203 3.52864 1.62127 3.31279L5.38607 1.17116C5.76532 0.955316 6.23643 0.955316 6.61568 1.17116L10.3805 3.31279C10.7597 3.52864 10.9953 3.93074 10.9953 4.36185V7.28156C10.9953 7.53802 10.7845 7.74575 10.5242 7.74575C10.2639 7.74575 10.0531 7.53802 10.0531 7.28156V4.36185C10.0531 4.26089 9.99769 4.16689 9.90936 4.11641L6.14456 1.97478C6.05564 1.9243 5.94552 1.9243 5.85719 1.97478L2.09239 4.11699C2.00347 4.16747 1.9487 4.26147 1.9487 4.36243V8.64568C1.9487 8.74664 2.00406 8.84064 2.09239 8.89112L5.85719 11.0328C5.94611 11.0832 6.05623 11.0832 6.14456 11.0328L7.40597 10.315C7.63152 10.1868 7.91949 10.2628 8.04963 10.485C8.17978 10.7072 8.10264 10.991 7.87709 11.1192L6.61568 11.8369C6.42606 11.9449 6.21347 11.9983 6.00087 11.9983Z" fill="#134CFF"/>
<path d="M6.0009 9.91059C5.74061 9.91059 5.52979 9.70287 5.52979 9.44641V6.65028C5.52979 6.39382 5.74061 6.1861 6.0009 6.1861C6.26119 6.1861 6.47201 6.39382 6.47201 6.65028V9.44641C6.47201 9.70287 6.26119 9.91059 6.0009 9.91059Z" fill="#134CFF"/>
<path d="M5.72588 6.70365C5.64991 6.70365 5.57276 6.68567 5.50092 6.64679L3.047 5.33083C2.81851 5.2084 2.7343 4.92641 2.85855 4.70128C2.98281 4.47615 3.26901 4.39318 3.4975 4.51561L5.95142 5.83157C6.17991 5.954 6.26412 6.23599 6.13987 6.46112C6.05448 6.61604 5.89253 6.70365 5.72588 6.70365Z" fill="#134CFF"/>
<path d="M6.2759 6.70365C6.10866 6.70365 5.9473 6.61604 5.86191 6.46112C5.73765 6.23599 5.82187 5.954 6.05036 5.83157L8.50427 4.51561C8.73277 4.39318 9.01897 4.47615 9.14322 4.70128C9.26748 4.92641 9.18327 5.2084 8.95478 5.33083L6.50086 6.64679C6.4296 6.68509 6.35187 6.70365 6.2759 6.70365Z" fill="#134CFF"/>
</g>
<path d="M10.3468 11.2108C10.2708 11.3834 10.2328 11.4697 10.1978 11.4872C10.1636 11.5042 10.1355 11.5043 10.1013 11.4873C10.0662 11.4699 10.0281 11.3838 9.95175 11.2115C9.77845 10.8204 9.56458 10.6116 9.18924 10.4466C9.01663 10.3708 8.93032 10.3328 8.91283 10.2978C8.89576 10.2637 8.89572 10.2355 8.91269 10.2013C8.93007 10.1662 9.0162 10.1281 9.18846 10.0517C9.57954 9.87843 9.78836 9.66456 9.95333 9.28921C10.0292 9.11662 10.0671 9.03033 10.1021 9.01284C10.1362 8.99577 10.1644 8.99572 10.1986 9.01269C10.2337 9.03007 10.2718 9.11619 10.3482 9.28843C10.5215 9.67952 10.7353 9.88835 11.1107 10.0533C11.2833 10.1292 11.3696 10.1671 11.3871 10.2021C11.4042 10.2363 11.4043 10.2644 11.3873 10.2986C11.37 10.3337 11.2838 10.3719 11.1115 10.4485C10.721 10.6219 10.5118 10.8362 10.3468 11.2108Z" fill="#134CFF" stroke="#134CFF" stroke-width="0.147059" stroke-linecap="round" stroke-linejoin="round"/>
<defs>
<clipPath id="clip0_13069_13552">
<rect width="10" height="11" fill="white" transform="translate(1 1)"/>
</clipPath>
</defs>
</svg>
