<svg width="24" height="24" viewBox="0 0 24 24" fill="none" xmlns="http://www.w3.org/2000/svg">
<g clip-path="url(#clip0_32_4018)">
<path d="M9.67285 6.5C9.67285 6.32741 9.53294 6.1875 9.36035 6.1875C8.32481 6.1875 7.48535 5.34804 7.48535 4.3125C7.48535 4.13991 7.34544 4 7.17285 4C7.00026 4 6.86035 4.13991 6.86035 4.3125C6.86035 5.34804 6.02089 6.1875 4.98535 6.1875C4.81276 6.1875 4.67285 6.32741 4.67285 6.5C4.67285 6.67259 4.81276 6.8125 4.98535 6.8125C6.02089 6.8125 6.86035 7.65196 6.86035 8.6875C6.86035 8.86009 7.00026 9 7.17285 9C7.34544 9 7.48535 8.86009 7.48535 8.6875C7.48535 7.65196 8.32481 6.8125 9.36035 6.8125C9.53294 6.8125 9.67285 6.67259 9.67285 6.5Z" fill="url(#paint0_linear_32_4018)"/>
<path d="M17.1729 6C17.1729 5.72386 16.949 5.5 16.6729 5.5C16.3968 5.5 16.1729 5.72386 16.1729 6C16.1729 8.48488 14.1581 10.5 11.6729 10.5C11.3968 10.5 11.1729 10.7239 11.1729 11C11.1729 11.2761 11.3968 11.5 11.6729 11.5C14.1582 11.5 16.1729 13.5142 16.1729 16C16.1729 16.2761 16.3968 16.5 16.6729 16.5C16.949 16.5 17.1729 16.2761 17.1729 16C17.1729 13.5141 19.187 11.5 21.6729 11.5C21.949 11.5 22.1729 11.2761 22.1729 11C22.1729 10.7239 21.949 10.5 21.6729 10.5C19.1871 10.5 17.1729 8.48492 17.1729 6Z" fill="url(#paint1_linear_32_4018)"/>
<path d="M8.17285 12.5C8.17285 12.2239 7.94899 12 7.67285 12C7.39671 12 7.17285 12.2239 7.17285 12.5C7.17285 14.1569 5.82971 15.5 4.17285 15.5C3.89671 15.5 3.67285 15.7239 3.67285 16C3.67285 16.2761 3.89671 16.5 4.17285 16.5C5.82971 16.5 7.17285 17.8431 7.17285 19.5C7.17285 19.7761 7.39671 20 7.67285 20C7.94899 20 8.17285 19.7761 8.17285 19.5C8.17285 17.8431 9.51599 16.5 11.1729 16.5C11.449 16.5 11.6729 16.2761 11.6729 16C11.6729 15.7239 11.449 15.5 11.1729 15.5C9.51599 15.5 8.17285 14.1569 8.17285 12.5Z" fill="url(#paint2_linear_32_4018)"/>
</g>
<defs>
<linearGradient id="paint0_linear_32_4018" x1="-0.499755" y1="21" x2="22.1729" y2="20.0025" gradientUnits="userSpaceOnUse">
<stop stop-color="#E59CFF"/>
<stop offset="0.239803" stop-color="#BA9CFF"/>
<stop offset="0.580552" stop-color="#0847FF"/>
</linearGradient>
<linearGradient id="paint1_linear_32_4018" x1="3.67285" y1="20" x2="31.8276" y2="20" gradientUnits="userSpaceOnUse">
<stop offset="0.0190691" stop-color="#E59CFF"/>
<stop offset="0.209605" stop-color="#BA9CFF"/>
<stop offset="0.593252" stop-color="#134CFF"/>
</linearGradient>
<linearGradient id="paint2_linear_32_4018" x1="-1.78169" y1="22.5455" x2="11.6729" y2="22.5473" gradientUnits="userSpaceOnUse">
<stop stop-color="#E59CFF"/>
<stop offset="0.5" stop-color="#BA9CFF"/>
<stop offset="1" stop-color="#9CB2FF"/>
</linearGradient>
<clipPath id="clip0_32_4018">
<rect width="22" height="24" fill="white"/>
</clipPath>
</defs>
</svg>
