<svg width="16" height="16" viewBox="0 0 16 16" fill="none" xmlns="http://www.w3.org/2000/svg">
<g clip-path="url(#clip0_13080_14803)">
<path d="M15.0735 6.36034V11.4552C15.0735 11.6463 15.0232 11.8341 14.9276 11.9997C14.832 12.1653 14.6945 12.3027 14.5289 12.3983L8.54431 15.8541C8.37874 15.9496 8.19093 16 7.99975 16C7.80858 16 7.62077 15.9496 7.4552 15.8541L1.85612 12.6151C1.79671 12.5808 1.74521 12.5343 1.70501 12.4788C1.6648 12.4232 1.63678 12.3598 1.6228 12.2926C1.60881 12.2255 1.60917 12.1561 1.62386 12.0892C1.63854 12.0222 1.66722 11.959 1.708 11.9039C1.79746 11.7833 1.92811 11.6998 2.07509 11.6693C2.22208 11.6388 2.37516 11.6634 2.50523 11.7383L7.99975 14.9109L13.9844 11.4552V6.36034C13.9844 6.21591 14.0418 6.0774 14.1439 5.97528C14.246 5.87316 14.3845 5.81579 14.5289 5.81579C14.6734 5.81579 14.8119 5.87316 14.914 5.97528C15.0161 6.0774 15.0735 6.21591 15.0735 6.36034ZM8.54431 0.145912L14.2109 3.43174C14.2689 3.46541 14.3191 3.51088 14.3584 3.56519C14.3977 3.6195 14.4252 3.68145 14.439 3.74704C14.4529 3.81263 14.4528 3.8804 14.4389 3.94596C14.4249 4.01153 14.3973 4.07343 14.3579 4.12768C14.2721 4.24511 14.146 4.32681 14.0038 4.35715C13.8616 4.38748 13.7131 4.36434 13.5869 4.29213L7.99975 1.08908L2.01513 4.5448V9.66032C2.01513 9.80475 1.95776 9.94325 1.85563 10.0454C1.75351 10.1475 1.615 10.2049 1.47058 10.2049C1.32615 10.2049 1.18764 10.1475 1.08552 10.0454C0.983398 9.94325 0.926025 9.80475 0.926025 9.66032V4.5448C0.92603 4.35363 0.976356 4.16582 1.07194 4.00027C1.16753 3.83471 1.30502 3.69722 1.47058 3.60164L7.4552 0.145912C7.62077 0.0503234 7.80858 0 7.99975 0C8.19093 0 8.37874 0.0503234 8.54431 0.145912Z" fill="#737A87"/>
<path d="M10.5515 10.8475V7.28609C10.5515 6.89946 10.57 6.41481 10.6092 5.82887H10.5733C10.399 6.26778 10.2771 6.56728 10.2237 6.7154L8.71965 10.9193C8.66209 11.081 8.55592 11.2208 8.41571 11.3197C8.27551 11.4185 8.10814 11.4716 7.93658 11.4715C7.76499 11.4713 7.59759 11.4185 7.45698 11.3201C7.31636 11.2217 7.2093 11.0826 7.15025 10.9215L5.62768 6.76005C5.5863 6.64678 5.47521 6.3353 5.27372 5.82887H5.23343C5.27155 6.40827 5.29115 6.98876 5.29115 7.57034V10.891C5.29116 10.967 5.27621 11.0422 5.24716 11.1124C5.2181 11.1825 5.1755 11.2463 5.1218 11.3C5.0681 11.3537 5.00434 11.3963 4.93417 11.4254C4.864 11.4545 4.78879 11.4694 4.71284 11.4694C4.63688 11.4694 4.56167 11.4545 4.4915 11.4254C4.42133 11.3963 4.35757 11.3537 4.30387 11.3C4.25017 11.2463 4.20757 11.1825 4.17852 11.1124C4.14946 11.0422 4.13451 10.967 4.13452 10.891V5.59144C4.13452 5.02947 4.58977 4.57422 5.15174 4.57422H5.40224C5.86511 4.57531 6.27679 4.86828 6.426 5.3061C7.38876 8.05826 7.88322 9.52746 7.91153 9.7137H8.07817C8.1348 9.48172 8.64123 8.01252 9.59747 5.30501C9.6714 5.09131 9.81022 4.90603 9.99453 4.77502C10.1788 4.64401 10.3995 4.57381 10.6256 4.57422H10.8271C11.364 4.57422 11.7985 5.00986 11.7985 5.5457V10.8496C11.8021 10.9337 11.7885 11.0176 11.7588 11.0963C11.729 11.175 11.6837 11.2469 11.6254 11.3077C11.5672 11.3684 11.4973 11.4167 11.4199 11.4497C11.3425 11.4827 11.2592 11.4998 11.175 11.4998C11.0909 11.4998 11.0076 11.4827 10.9302 11.4497C10.8528 11.4167 10.7829 11.3684 10.7246 11.3077C10.6664 11.2469 10.621 11.175 10.5913 11.0963C10.5615 11.0176 10.548 10.9337 10.5515 10.8496V10.8475Z" fill="#737A87"/>
</g>
<defs>
<clipPath id="clip0_13080_14803">
<rect width="16" height="16" fill="white"/>
</clipPath>
</defs>
</svg>
