<svg width="160" height="160" viewBox="0 0 160 160" fill="none" xmlns="http://www.w3.org/2000/svg">
<path d="M95 84.1562H137L155.745 104.984C157.193 106.593 156.051 109.156 153.887 109.156H95V84.1562Z" fill="#5C87FF"/>
<path d="M95 84.1562H137L155.745 104.984C157.193 106.593 156.051 109.156 153.887 109.156H95V84.1562Z" fill="url(#paint0_linear_279_23720)" fill-opacity="0.4"/>
<path d="M53.4468 65.8112C53.1672 65.4025 52.7039 65.1582 52.2088 65.1582H13.8438C12.6376 65.1582 11.9247 66.5097 12.6059 67.5052L24 84.1582H66L53.4468 65.8112Z" fill="#85A5FF"/>
<path d="M53.4468 65.8112C53.1672 65.4025 52.7039 65.1582 52.2088 65.1582H13.8438C12.6376 65.1582 11.9247 66.5097 12.6059 67.5052L24 84.1582H66L53.4468 65.8112Z" fill="url(#paint1_linear_279_23720)" fill-opacity="0.8"/>
<path d="M24 84.1582H95V150.158H28C25.7909 150.158 24 148.367 24 146.158V84.1582Z" fill="#DDE4FB"/>
<path d="M24 84.1582H95V150.158H28C25.7909 150.158 24 148.367 24 146.158V84.1582Z" fill="url(#paint2_linear_279_23720)"/>
<g opacity="0.2">
<path fill-rule="evenodd" clip-rule="evenodd" d="M41.0775 140.967C41.2108 141.044 41.3775 140.948 41.3775 140.794V134.36L35.8047 131.152C35.6713 131.075 35.5049 131.171 35.5049 131.325V137.173C35.5049 137.53 35.6955 137.86 36.0049 138.039L41.0775 140.967Z" fill="#134CFF"/>
<path fill-rule="evenodd" clip-rule="evenodd" d="M41.0775 140.967C41.2108 141.044 41.3775 140.948 41.3775 140.794V134.36L35.8047 131.152C35.6713 131.075 35.5049 131.171 35.5049 131.325V137.173C35.5049 137.53 35.6955 137.86 36.0049 138.039L41.0775 140.967Z" fill="url(#paint3_linear_279_23720)" fill-opacity="0.2"/>
<path fill-rule="evenodd" clip-rule="evenodd" d="M48.495 131.31C48.495 131.156 48.3288 131.06 48.1954 131.136L42.5771 134.359V140.819C42.5771 140.973 42.7438 141.07 42.8771 140.993L47.995 138.038C48.3044 137.859 48.495 137.529 48.495 137.172V131.31Z" fill="#134CFF"/>
<path fill-rule="evenodd" clip-rule="evenodd" d="M48.495 131.31C48.495 131.156 48.3288 131.06 48.1954 131.136L42.5771 134.359V140.819C42.5771 140.973 42.7438 141.07 42.8771 140.993L47.995 138.038C48.3044 137.859 48.495 137.529 48.495 137.172V131.31Z" fill="url(#paint4_linear_279_23720)" fill-opacity="0.2"/>
<path fill-rule="evenodd" clip-rule="evenodd" d="M42.5 126.788C42.1906 126.61 41.8094 126.61 41.5 126.788L36.3734 129.748C36.24 129.825 36.2401 130.018 36.3737 130.095L41.9774 133.32L47.6133 130.087C47.7471 130.011 47.7473 129.818 47.6138 129.741L42.5 126.788Z" fill="#134CFF"/>
<path fill-rule="evenodd" clip-rule="evenodd" d="M42.5 126.788C42.1906 126.61 41.8094 126.61 41.5 126.788L36.3734 129.748C36.24 129.825 36.2401 130.018 36.3737 130.095L41.9774 133.32L47.6133 130.087C47.7471 130.011 47.7473 129.818 47.6138 129.741L42.5 126.788Z" fill="url(#paint5_linear_279_23720)" fill-opacity="0.2"/>
</g>
<path d="M95 84.1582H137V146.158C137 148.367 135.209 150.158 133 150.158H95V84.1582Z" fill="#709BFF"/>
<path d="M95 84.1582H137V146.158C137 148.367 135.209 150.158 133 150.158H95V84.1582Z" fill="url(#paint6_linear_279_23720)" fill-opacity="0.6"/>
<path opacity="0.1" d="M104 93.1582H128V99.1582H104V93.1582Z" fill="#134CFF"/>
<path d="M107.553 65.8112C107.833 65.4025 108.296 65.1582 108.791 65.1582H147.156C148.362 65.1582 149.075 66.5097 148.394 67.5052L137 84.1582H95L107.553 65.8112Z" fill="#99B4FF"/>
<path d="M107.553 65.8112C107.833 65.4025 108.296 65.1582 108.791 65.1582H147.156C148.362 65.1582 149.075 66.5097 148.394 67.5052L137 84.1582H95L107.553 65.8112Z" fill="url(#paint7_linear_279_23720)" fill-opacity="0.6"/>
<path fill-rule="evenodd" clip-rule="evenodd" d="M94.3913 33.2594C94.6163 32.8162 95.158 32.6392 95.6012 32.8642C96.1435 33.1394 96.7171 33.4485 97.3116 33.7885C97.743 34.0353 97.8927 34.5852 97.6459 35.0166C97.3991 35.4481 96.8493 35.5978 96.4178 35.351C95.8483 35.0252 95.301 34.7304 94.7865 34.4693C94.3433 34.2443 94.1664 33.7026 94.3913 33.2594ZM100.909 37.1787C101.21 36.7836 101.775 36.7079 102.17 37.0095C103.19 37.7883 104.198 38.6327 105.147 39.5318C105.508 39.8735 105.524 40.4431 105.182 40.8041C104.84 41.165 104.271 41.1805 103.91 40.8388C103.013 39.9892 102.054 39.1858 101.078 38.4402C100.683 38.1385 100.607 37.5738 100.909 37.1787ZM107.725 43.7766C108.144 43.5103 108.7 43.6347 108.967 44.0544C109.71 45.2251 110.3 46.4585 110.661 47.7382C110.796 48.2166 110.518 48.7137 110.039 48.8486C109.561 48.9835 109.064 48.7051 108.929 48.2266C108.625 47.1482 108.116 46.0741 107.447 45.0187C107.181 44.599 107.305 44.0429 107.725 43.7766ZM109.887 52.7477C110.349 52.9309 110.575 53.454 110.392 53.916C110.146 54.536 109.829 55.1511 109.438 55.7598C109.065 56.3401 108.641 56.8913 108.172 57.4162C107.84 57.7868 107.271 57.8188 106.901 57.4876C106.53 57.1564 106.498 56.5875 106.829 56.2168C107.241 55.7563 107.607 55.2803 107.924 54.7867C108.255 54.2708 108.518 53.759 108.718 53.2526C108.902 52.7905 109.425 52.5645 109.887 52.7477ZM103.719 59.9881C103.977 60.4127 103.843 60.9664 103.418 61.2248C102.32 61.8932 101.141 62.5179 99.9075 63.11C99.4594 63.3251 98.9217 63.1362 98.7066 62.6881C98.4915 62.24 98.6804 61.7024 99.1285 61.4873C100.321 60.9147 101.446 60.3179 102.482 59.6871C102.907 59.4287 103.461 59.5635 103.719 59.9881ZM94.9801 64.272C95.161 64.735 94.9323 65.2569 94.4693 65.4377C93.2646 65.9083 92.0376 66.3672 90.8066 66.8214C90.3402 66.9934 89.8227 66.7548 89.6507 66.2885C89.4787 65.8221 89.7172 65.3046 90.1836 65.1326C91.4104 64.68 92.6252 64.2256 93.8144 63.7611C94.2773 63.5803 94.7993 63.809 94.9801 64.272ZM85.8511 67.685C86.0268 68.1499 85.7923 68.6693 85.3274 68.845C84.1021 69.3081 82.8968 69.7777 81.7262 70.2619C81.2669 70.4519 80.7405 70.2335 80.5505 69.7742C80.3605 69.3149 80.5789 68.7885 81.0382 68.5986C82.2314 68.105 83.4552 67.6283 84.691 67.1613C85.156 66.9855 85.6754 67.22 85.8511 67.685ZM76.8751 71.4735C77.1107 71.9112 76.9468 72.457 76.5091 72.6925C75.346 73.3184 74.2682 73.9751 73.2962 74.6733C72.8925 74.9632 72.3302 74.871 72.0402 74.4673C71.7502 74.0636 71.8425 73.5012 72.2462 73.2113C73.2943 72.4585 74.4407 71.7615 75.6561 71.1075C76.0938 70.8719 76.6396 71.0358 76.8751 71.4735ZM69.155 77.3054C69.572 77.5758 69.6908 78.1332 69.4203 78.5502C69.0928 79.0552 68.8141 79.5793 68.5877 80.1249C68.323 80.7626 68.0736 81.3904 67.8388 82.0076C67.662 82.4722 67.1421 82.7055 66.6775 82.5287C66.213 82.3519 65.9797 81.832 66.1565 81.3674C66.3977 80.7337 66.6536 80.0893 66.9251 79.435C67.1958 78.7827 67.5265 78.1621 67.9101 77.5707C68.1806 77.1537 68.7379 77.0349 69.155 77.3054ZM65.3199 86.6675C65.7993 86.7989 66.0815 87.2939 65.9502 87.7733C65.5653 89.1784 65.2613 90.4933 65.0241 91.7043C64.9286 92.1921 64.4557 92.51 63.9679 92.4145C63.4801 92.3189 63.1622 91.8461 63.2577 91.3583C63.5034 90.104 63.8175 88.7459 64.2141 87.2978C64.3454 86.8184 64.8405 86.5362 65.3199 86.6675ZM63.4178 96.7352C63.9146 96.7523 64.3035 97.1688 64.2864 97.6655C64.2578 98.4991 64.2789 99.1461 64.3238 99.5922C64.3736 100.087 64.0131 100.528 63.5185 100.578C63.0239 100.628 62.5827 100.267 62.5329 99.7725C62.4776 99.2232 62.457 98.4915 62.4875 97.6038C62.5045 97.1071 62.921 96.7182 63.4178 96.7352Z" fill="#99B2FF"/>
<path fill-rule="evenodd" clip-rule="evenodd" d="M99.6818 17.2412C100.135 16.2695 99.4517 15.1499 98.3803 15.1084L55.2924 13.4399C53.9641 13.3884 53.2303 14.9622 54.1234 15.9467L83.098 47.8814C83.8185 48.6755 85.1152 48.4792 85.5684 47.5074L91.7571 34.2357L73.3346 23.5998C73.123 23.4776 73.2734 23.155 73.503 23.2386L93.4924 30.5144L99.6818 17.2412Z" fill="#134CFF"/>
<path fill-rule="evenodd" clip-rule="evenodd" d="M99.6818 17.2412C100.135 16.2695 99.4517 15.1499 98.3803 15.1084L55.2924 13.4399C53.9641 13.3884 53.2303 14.9622 54.1234 15.9467L83.098 47.8814C83.8185 48.6755 85.1152 48.4792 85.5684 47.5074L91.7571 34.2357L73.3346 23.5998C73.123 23.4776 73.2734 23.155 73.503 23.2386L93.4924 30.5144L99.6818 17.2412Z" fill="url(#paint8_linear_279_23720)" fill-opacity="0.2"/>
<path d="M24.0003 84.1582H95.0003L73.1887 107.866C72.4313 108.69 71.3637 109.158 70.245 109.158H6.69732C4.51991 109.158 3.38326 106.568 4.85749 104.966L24.0003 84.1582Z" fill="#F3F5FB"/>
<path d="M24.0003 84.1582H95.0003L73.1887 107.866C72.4313 108.69 71.3637 109.158 70.245 109.158H6.69732C4.51991 109.158 3.38326 106.568 4.85749 104.966L24.0003 84.1582Z" fill="url(#paint9_linear_279_23720)"/>
<defs>
<linearGradient id="paint0_linear_279_23720" x1="137" y1="98.6562" x2="156.423" y2="97.4316" gradientUnits="userSpaceOnUse">
<stop stop-color="white" stop-opacity="0"/>
<stop offset="1" stop-color="white"/>
</linearGradient>
<linearGradient id="paint1_linear_279_23720" x1="40.5" y1="84.1577" x2="40.565" y2="65.1579" gradientUnits="userSpaceOnUse">
<stop stop-color="white" stop-opacity="0"/>
<stop offset="1" stop-color="white" stop-opacity="0.8"/>
</linearGradient>
<linearGradient id="paint2_linear_279_23720" x1="59.5" y1="84.1582" x2="59.5" y2="127.001" gradientUnits="userSpaceOnUse">
<stop stop-color="#135AFF" stop-opacity="0.3"/>
<stop offset="1" stop-color="#135AFF" stop-opacity="0"/>
</linearGradient>
<linearGradient id="paint3_linear_279_23720" x1="38.4412" y1="131.125" x2="38.4412" y2="140.994" gradientUnits="userSpaceOnUse">
<stop stop-color="white" stop-opacity="0"/>
<stop offset="0.421423" stop-color="white"/>
</linearGradient>
<linearGradient id="paint4_linear_279_23720" x1="45.5361" y1="131.109" x2="45.5361" y2="141.02" gradientUnits="userSpaceOnUse">
<stop stop-color="white" stop-opacity="0"/>
<stop offset="0.421423" stop-color="white"/>
</linearGradient>
<linearGradient id="paint5_linear_279_23720" x1="41.9936" y1="126.654" x2="41.9936" y2="133.32" gradientUnits="userSpaceOnUse">
<stop stop-color="white" stop-opacity="0"/>
<stop offset="0.421423" stop-color="white"/>
</linearGradient>
<linearGradient id="paint6_linear_279_23720" x1="112" y1="84.1577" x2="112.511" y2="116.994" gradientUnits="userSpaceOnUse">
<stop stop-color="white" stop-opacity="0"/>
<stop offset="1" stop-color="white"/>
</linearGradient>
<linearGradient id="paint7_linear_279_23720" x1="120.5" y1="84.1577" x2="120.435" y2="65.1579" gradientUnits="userSpaceOnUse">
<stop stop-color="white" stop-opacity="0"/>
<stop offset="1" stop-color="white"/>
</linearGradient>
<linearGradient id="paint8_linear_279_23720" x1="50.24" y1="14.5971" x2="91.2848" y2="34.9411" gradientUnits="userSpaceOnUse">
<stop stop-color="white" stop-opacity="0"/>
<stop offset="1" stop-color="white"/>
</linearGradient>
<linearGradient id="paint9_linear_279_23720" x1="48.0003" y1="84.1582" x2="48.0003" y2="109.158" gradientUnits="userSpaceOnUse">
<stop stop-color="#134CFF" stop-opacity="0.15"/>
<stop offset="1" stop-color="#134CFF" stop-opacity="0"/>
</linearGradient>
</defs>
</svg>
