<svg width="28" height="28" viewBox="0 0 28 28" fill="none" xmlns="http://www.w3.org/2000/svg">
<path d="M8.20073 4.23242C6.08128 4.23242 4.36313 5.95057 4.36313 8.07002V11.5441C4.36313 12.9004 3.26358 14 1.90723 14" stroke="#202020" stroke-width="1.5" stroke-linecap="round" stroke-linejoin="round"/>
<path d="M8.20073 23.7676C6.08128 23.7676 4.36313 22.0494 4.36313 19.93V16.4559C4.36313 15.0996 3.26358 14 1.90723 14" stroke="#202020" stroke-width="1.5" stroke-linecap="round" stroke-linejoin="round"/>
<path d="M18.729 4.12305C20.8484 4.12305 22.5666 5.8412 22.5666 7.96065V11.4347C22.5666 12.7911 23.6661 13.8906 25.0225 13.8906" stroke="#202020" stroke-width="1.5" stroke-linecap="round" stroke-linejoin="round"/>
<path d="M18.6589 23.876C20.8256 23.876 22.5821 22.1195 22.5821 19.9528V16.4013C22.5821 15.0147 23.7062 13.8906 25.0928 13.8906" stroke="#202020" stroke-width="1.5" stroke-linecap="round" stroke-linejoin="round"/>
<rect x="7.50439" y="12.7676" width="2.46484" height="2.46484" rx="0.5" fill="#1664FF"/>
<rect x="12.2681" y="12.7676" width="2.46484" height="2.46484" rx="0.5" fill="#1664FF"/>
<rect x="17.0312" y="12.7676" width="2.46484" height="2.46484" rx="0.5" fill="#1664FF"/>
</svg>
