<svg width="28" height="28" viewBox="0 0 28 28" fill="none" xmlns="http://www.w3.org/2000/svg">
<rect x="11.4199" y="8.89746" width="1.61285" height="14.9409" fill="#1664FF"/>
<path d="M4.36377 14.6016V22.4346C4.36377 22.9868 4.81148 23.4346 5.36377 23.4346H19.089C19.6413 23.4346 20.089 22.9868 20.089 22.4346V14.6016" stroke="#202020" stroke-width="1.5" stroke-linecap="round" stroke-linejoin="round"/>
<path d="M21.6885 9.03418H2.76465C2.21236 9.03418 1.76465 9.48189 1.76465 10.0342V11.8359C1.76465 12.3882 2.21236 12.8359 2.76465 12.8359H20.2487H21.6884C22.2407 12.8359 22.6885 12.3882 22.6885 11.8359V10.0342C22.6885 9.48189 22.2408 9.03418 21.6885 9.03418Z" stroke="#202020" stroke-width="1.5" stroke-linecap="round" stroke-linejoin="round"/>
<path d="M8.11353 8.89724H12.3971L9.85331 5.45078C8.61427 3.77206 5.95117 4.64842 5.95117 6.73488C5.95117 7.92912 6.91929 8.89724 8.11353 8.89724Z" stroke="#202020" stroke-width="1.5" stroke-linecap="round" stroke-linejoin="round"/>
<path d="M16.3397 8.89724H12.0562L14.5999 5.45078C15.839 3.77206 18.5021 4.64842 18.5021 6.73488C18.5021 7.92912 17.5339 8.89724 16.3397 8.89724Z" stroke="#202020" stroke-width="1.5" stroke-linecap="round" stroke-linejoin="round"/>
</svg>
