<svg width="29" height="28" viewBox="0 0 29 28" fill="none" xmlns="http://www.w3.org/2000/svg">
<path d="M4.75781 14.2178H24.2424" stroke="#202020" stroke-width="1.5" stroke-linecap="round" stroke-linejoin="round"/>
<path d="M4.75781 7.05176H24.2424" stroke="#202020" stroke-width="1.5" stroke-linecap="round" stroke-linejoin="round"/>
<path d="M4.75781 21.3848H24.2424" stroke="#202020" stroke-width="1.5" stroke-linecap="round" stroke-linejoin="round"/>
<path d="M10.2144 16.2002C11.3189 16.2002 12.2144 15.3048 12.2144 14.2002C12.2144 13.0956 11.3189 12.2002 10.2144 12.2002C9.10979 12.2002 8.21436 13.0956 8.21436 14.2002C8.21436 15.3048 9.10979 16.2002 10.2144 16.2002Z" fill="#1664FF"/>
<path d="M19.5068 23.4004C20.6114 23.4004 21.5068 22.505 21.5068 21.4004C21.5068 20.2958 20.6114 19.4004 19.5068 19.4004C18.4023 19.4004 17.5068 20.2958 17.5068 21.4004C17.5068 22.505 18.4023 23.4004 19.5068 23.4004Z" fill="#1664FF"/>
<path d="M19.5068 9C20.6114 9 21.5068 8.10457 21.5068 7C21.5068 5.89543 20.6114 5 19.5068 5C18.4023 5 17.5068 5.89543 17.5068 7C17.5068 8.10457 18.4023 9 19.5068 9Z" fill="#1664FF"/>
</svg>
