<svg width="20" height="20" viewBox="0 0 20 20" fill="none" xmlns="http://www.w3.org/2000/svg">
<g clip-path="url(#clip0_6232_13686)">
<path d="M13.6597 19.3488C10.7408 17.943 9.66127 14.7041 11.2457 12.1158C11.1882 12.1073 11.1282 12.0998 11.0682 12.0936C9.52632 11.9284 7.98192 12.0248 6.43752 12.0226C2.73895 12.0153 -0.0899556 14.7483 0.00500763 18.1887C0.00441587 18.4329 0.0725261 18.6724 0.20156 18.8798C0.330593 19.0872 0.515349 19.2541 0.734725 19.3615C1.25715 19.6301 1.83009 19.7863 2.41657 19.8198C4.35332 20.003 6.29507 19.9828 8.58918 19.9798C9.86119 20.022 11.4856 19.9628 13.1074 19.9048C13.6303 19.8927 14.1512 19.8357 14.6643 19.7344C14.3191 19.6347 13.983 19.5057 13.6597 19.3488ZM8.66415 0C7.60865 0.000704886 6.57711 0.314666 5.70019 0.902113C4.82327 1.48956 4.14043 2.32406 3.73817 3.2999C3.33591 4.27575 3.23234 5.34903 3.44056 6.38379C3.64878 7.41855 4.15944 8.36822 4.90784 9.11252C5.65624 9.85682 6.60871 10.3623 7.6446 10.5648C8.68049 10.7673 9.75318 10.6578 10.7268 10.2502C11.7004 9.84262 12.5312 9.15521 13.1138 8.27507C13.6964 7.39494 14.0047 6.36168 13.9996 5.30619C13.984 3.89868 13.416 2.55366 12.4179 1.56107C11.4199 0.568491 10.0717 0.00784629 8.66415 0ZM15.9963 10.6626C15.2056 10.6631 14.4328 10.898 13.7756 11.3377C13.1184 11.7773 12.6063 12.402 12.304 13.1327C12.0018 13.8633 11.9229 14.6672 12.0775 15.4427C12.2321 16.2181 12.6131 16.9303 13.1724 17.4893C13.7317 18.0482 14.4441 18.4288 15.2197 18.5829C15.9952 18.7369 16.7991 18.6576 17.5295 18.3549C18.26 18.0522 18.8843 17.5397 19.3236 16.8822C19.7628 16.2247 19.9973 15.4518 19.9973 14.6611V14.6591C19.997 14.1339 19.8934 13.614 19.6922 13.1289C19.491 12.6438 19.1962 12.2031 18.8246 11.832C18.4531 11.4608 18.0121 11.1665 17.5268 10.9658C17.0415 10.7652 16.5215 10.662 15.9963 10.6624V10.6626ZM18.4404 13.8114C18.4361 13.8171 18.431 13.8221 18.4254 13.8264L16.0063 16.1657C15.8951 16.2728 15.7466 16.3324 15.5923 16.332C15.4379 16.3315 15.2898 16.2711 15.1791 16.1635L13.9696 14.9942C13.9261 14.9528 13.8913 14.9033 13.867 14.8484C13.8427 14.7935 13.8295 14.7344 13.8281 14.6744C13.8267 14.6144 13.8372 14.5548 13.8589 14.4988C13.8806 14.4429 13.9131 14.3918 13.9546 14.3484L13.9696 14.3327C14.0618 14.2445 14.1844 14.1953 14.312 14.1953C14.4395 14.1953 14.5622 14.2445 14.6543 14.3327L15.594 15.2418L17.7431 13.1639C17.8349 13.0758 17.9571 13.0267 18.0843 13.0267C18.2114 13.0267 18.3336 13.0758 18.4254 13.1639C18.4691 13.2052 18.5041 13.2548 18.5286 13.3097C18.553 13.3647 18.5663 13.4239 18.5677 13.484C18.5691 13.5441 18.5585 13.6039 18.5367 13.66C18.5148 13.716 18.4821 13.7671 18.4404 13.8104V13.8114Z" fill="url(#paint0_linear_6232_13686)"/>
</g>
<defs>
<linearGradient id="paint0_linear_6232_13686" x1="9.99997" y1="0" x2="9.99997" y2="19.9941" gradientUnits="userSpaceOnUse">
<stop stop-color="#B1E8FA"/>
<stop offset="1" stop-color="#0746FF"/>
</linearGradient>
<clipPath id="clip0_6232_13686">
<rect width="20" height="20" fill="white"/>
</clipPath>
</defs>
</svg>
