<svg width="48" height="48" viewBox="0 0 48 48" fill="none" xmlns="http://www.w3.org/2000/svg">
<circle cx="24" cy="24" r="24" fill="#96B3FF" fill-opacity="0.2"/>
<path d="M13.0037 33.9473H34.9964C35.6946 33.9473 36.0437 34.2964 36.0437 34.9945C36.0437 35.6927 35.6946 36.0418 34.9964 36.0418H13.0037C12.3055 36.0418 11.9564 35.6927 11.9564 34.9945C11.9564 34.2964 12.3055 33.9473 13.0037 33.9473Z" fill="#0746FF"/>
<path d="M15.2081 15.213L26.4805 12.1356C26.5581 12.1144 26.6397 12.1115 26.7187 12.1269C26.7977 12.1424 26.8721 12.1759 26.9361 12.2247C27.0001 12.2736 27.0519 12.3366 27.0876 12.4088C27.1233 12.481 27.1418 12.5604 27.1418 12.6409V34.4713H14.0509V16.7284C14.0509 16.3839 14.1642 16.0489 14.3733 15.7751C14.5824 15.5012 14.8758 15.3038 15.2081 15.213Z" fill="#0746FF"/>
<path opacity="0.5" d="M27.1417 21.3809L33.4447 25.2018C33.5987 25.2952 33.7259 25.4266 33.8142 25.5834C33.9026 25.7403 33.949 25.9172 33.949 26.0973V34.4718H27.1417V21.3809Z" fill="#0746FF"/>
<path d="M18.2399 19.8125H22.9526C23.6508 19.8125 23.9999 20.0625 23.9999 20.5625C23.9999 21.0625 23.6508 21.3125 22.9526 21.3125H18.2399C17.5417 21.3125 17.1926 21.0625 17.1926 20.5625C17.1926 20.0625 17.5417 19.8125 18.2399 19.8125Z" fill="white"/>
<path d="M18.2399 24H22.9526C23.6508 24 23.9999 24.25 23.9999 24.75C23.9999 25.25 23.6508 25.5 22.9526 25.5H18.2399C17.5417 25.5 17.1926 25.25 17.1926 24.75C17.1926 24.25 17.5417 24 18.2399 24Z" fill="white"/>
<path d="M18.2399 28.1875H22.9526C23.6508 28.1875 23.9999 28.4375 23.9999 28.9375C23.9999 29.4375 23.6508 29.6875 22.9526 29.6875H18.2399C17.5417 29.6875 17.1926 29.4375 17.1926 28.9375C17.1926 28.4375 17.5417 28.1875 18.2399 28.1875Z" fill="white"/>
<path d="M30.0218 28.1875H31.069C31.7672 28.1875 32.1163 28.4375 32.1163 28.9375C32.1163 29.4375 31.7672 29.6875 31.069 29.6875H30.0218C29.3236 29.6875 28.9745 29.4375 28.9745 28.9375C28.9745 28.4375 29.3236 28.1875 30.0218 28.1875Z" fill="white"/>
</svg>
