<svg xmlns="http://www.w3.org/2000/svg" width="16" height="16" viewBox="0 0 16 16" fill="none">
  <path d="M7.10467 3.15714C7.38692 2.29039 8.61311 2.29039 8.89536 3.15714L9.2708 4.31007C9.62179 5.38791 10.4395 6.25036 11.4972 6.65814L12.6988 7.12143C13.5027 7.43135 13.5027 8.56867 12.6988 8.87859L11.4972 9.34188C10.4395 9.74966 9.62179 10.6121 9.2708 11.69L8.89536 12.8429C8.61311 13.7096 7.38692 13.7096 7.10467 12.8429L6.72923 11.69C6.37824 10.6121 5.56048 9.74967 4.50282 9.34188L3.30121 8.87859C2.49737 8.56867 2.49737 7.43135 3.3012 7.12143L4.50281 6.65814C5.56048 6.25036 6.37824 5.38791 6.72923 4.31007L7.10467 3.15714Z" fill="url(#paint0_linear_9840_27680)"/>
  <defs>
    <linearGradient id="paint0_linear_9840_27680" x1="14.9776" y1="0.888273" x2="1.02246" y2="15.1117" gradientUnits="userSpaceOnUse">
      <stop stop-color="#2454FF"/>
      <stop offset="1" stop-color="#C177C4"/>
    </linearGradient>
  </defs>
</svg>