<svg width="32" height="32" viewBox="0 0 32 32" fill="none" xmlns="http://www.w3.org/2000/svg">
<path d="M25.7344 14.5904L16.1616 20.544L6.59035 14.5904C5.22875 13.744 3.46875 14.7232 3.46875 16.3248V24.4848C3.46875 26.5264 5.12315 28.1808 7.16475 28.1808H25.1616C27.2031 28.1808 28.8575 26.5264 28.8575 24.4848V16.3248C28.8559 14.7232 27.096 13.744 25.7344 14.5904Z" fill="#FF823F"/>
<path d="M21.8894 3.83679H10.2798C8.37736 3.83679 6.83496 5.37919 6.83496 7.28159V13.048L16.0094 18.8528L25.3358 13.048V7.28159C25.3342 5.37919 23.7918 3.83679 21.8894 3.83679ZM15.4654 12.9552H12.1758C11.7566 12.9552 11.4174 12.616 11.4174 12.1968C11.4174 11.7776 11.7566 11.4384 12.1758 11.4384H15.4654C15.8846 11.4384 16.2238 11.7776 16.2238 12.1968C16.2238 12.616 15.8846 12.9552 15.4654 12.9552ZM20.1102 8.92959H12.1758C11.7566 8.92959 11.4174 8.59039 11.4174 8.17119C11.4174 7.75199 11.7566 7.41279 12.1758 7.41279H20.1102C20.5294 7.41279 20.8686 7.75199 20.8686 8.17119C20.867 8.59039 20.5278 8.92959 20.1102 8.92959Z" fill="#FF9C5A"/>
<path d="M25.7344 14.5904L16.1616 20.544L6.59035 14.5904C5.22875 13.744 3.46875 14.7232 3.46875 16.3248V21.8752C6.36635 24.5808 10.3039 26.1712 14.5791 25.9952C21.2095 25.7232 26.6864 21.2864 28.5904 15.3088C28.0448 14.3632 26.7743 13.944 25.7344 14.5904Z" fill="#FF8E42"/>
<path d="M11.7183 20.4944C12.9231 20.4448 14.0912 20.2576 15.2048 19.9488L6.59035 14.5904C5.22875 13.744 3.46875 14.7232 3.46875 16.3248V18.4832C5.89115 19.872 8.72155 20.616 11.7183 20.4944ZM23.5088 14.1856C24.2499 13.1698 24.863 12.0665 25.3344 10.9008V7.28159C25.3344 5.37919 23.792 3.83679 21.8896 3.83679H10.2799C8.37755 3.83679 6.83515 5.37919 6.83515 7.28159V13.048L16.0096 18.8528L23.5088 14.1856ZM12.1759 7.41439H20.1103C20.5296 7.41439 20.8687 7.75359 20.8687 8.17279C20.8687 8.59199 20.5296 8.93119 20.1103 8.93119H12.1759C11.7567 8.93119 11.4175 8.59199 11.4175 8.17279C11.4175 7.75359 11.7567 7.41439 12.1759 7.41439ZM15.4655 12.9552H12.1759C11.7567 12.9552 11.4175 12.616 11.4175 12.1968C11.4175 11.7776 11.7567 11.4384 12.1759 11.4384H15.4655C15.8847 11.4384 16.224 11.7776 16.224 12.1968C16.224 12.616 15.8847 12.9552 15.4655 12.9552Z" fill="#FF9C5A"/>
<path d="M7.86703 15.384L6.59023 14.5904C5.68943 14.0304 4.61423 14.2688 3.99023 14.96C5.23183 15.2592 6.53263 15.408 7.86703 15.384ZM20.123 8.92799C20.1182 8.92799 20.115 8.92959 20.1102 8.92959H12.1758C11.7566 8.92959 11.4174 8.59039 11.4174 8.17119C11.4174 7.75199 11.7566 7.41279 12.1758 7.41279H20.1102C20.4238 7.41279 20.6942 7.60479 20.8094 7.87679C21.5508 6.63339 22.1116 5.29089 22.475 3.88959C22.2846 3.85759 22.0894 3.83679 21.891 3.83679H10.2798C8.37743 3.83679 6.83503 5.37919 6.83503 7.28159V13.048L10.187 15.1696C14.2942 14.4752 17.8206 12.16 20.123 8.92799ZM12.1758 11.4384H15.4654C15.8846 11.4384 16.2238 11.7776 16.2238 12.1968C16.2238 12.616 15.8846 12.9552 15.4654 12.9552H12.1758C11.7566 12.9552 11.4174 12.616 11.4174 12.1968C11.4174 11.7776 11.7566 11.4384 12.1758 11.4384Z" fill="#FFAB73"/>
<path d="M11.4913 8.49119C11.4465 8.39359 11.4193 8.28639 11.4193 8.17119C11.4193 7.75199 11.7585 7.41279 12.1777 7.41279H13.2497C14.6074 6.43573 15.7803 5.22485 16.7137 3.83679H10.2817C8.37931 3.83679 6.83691 5.37919 6.83691 7.28159V9.93119C8.46103 9.72883 10.0367 9.24135 11.4913 8.49119Z" fill="#FFB889"/>
</svg>
