<svg width="32" height="32" viewBox="0 0 32 32" fill="none" xmlns="http://www.w3.org/2000/svg">
<path d="M28.027 16C28.027 14.616 29.3694 13.0368 28.963 11.7872C28.5422 10.4928 26.515 10.0064 25.731 8.9296C24.939 7.8416 25.0974 5.7648 24.011 4.9744C22.9342 4.1904 21.0126 4.9776 19.7182 4.5584C18.4702 4.1536 17.3838 2.3728 15.9998 2.3728C14.6158 2.3728 13.5294 4.152 12.2814 4.5584C10.987 4.9792 9.06539 4.1904 7.98859 4.9744C6.90059 5.7664 7.05899 7.8416 6.26859 8.9296C5.48459 10.0064 3.45739 10.4928 3.03659 11.7872C2.63179 13.0352 3.97259 14.616 3.97259 16C3.97259 17.384 2.63019 18.9632 3.03659 20.2128C3.45739 21.5072 5.48459 21.9936 6.26859 23.0704C7.06059 24.1584 6.90219 26.2352 7.98859 27.0256C9.06539 27.8096 10.987 27.0224 12.2814 27.4416C13.5294 27.8464 14.6158 29.6272 15.9998 29.6272C17.3838 29.6272 18.4686 27.8464 19.7182 27.4416C21.0126 27.0208 22.9342 27.8096 24.011 27.0256C25.099 26.2336 24.9406 24.1584 25.731 23.0704C26.515 21.9936 28.5422 21.5072 28.963 20.2128C29.3678 18.9632 28.027 17.384 28.027 16ZM21.9086 12.9104L17.603 21.8752C17.4646 22.1656 17.247 22.411 16.9753 22.5831C16.7035 22.7552 16.3887 22.847 16.067 22.848H16.0574C15.3998 22.848 14.811 22.4832 14.5198 21.8928L10.0942 12.9168C10.0006 12.7264 9.98632 12.5067 10.0544 12.3058C10.1225 12.1049 10.2674 11.9391 10.4574 11.8448C10.8542 11.6496 11.3326 11.8128 11.5294 12.208L15.9566 21.1824C15.9646 21.2 15.9886 21.2464 16.059 21.2464H16.0606C16.1326 21.2464 16.1534 21.2 16.163 21.1824L20.4686 12.2176C20.5139 12.1228 20.5776 12.0379 20.6558 11.9678C20.734 11.8977 20.8253 11.8436 20.9245 11.8089C21.0236 11.7741 21.1287 11.7592 21.2336 11.7651C21.3385 11.771 21.4412 11.7975 21.5358 11.8432C21.9326 12.0336 22.099 12.512 21.9086 12.9104Z" fill="#FF823F"/>
<path d="M28.4878 11.0416C27.7166 10.2528 26.3438 9.7728 25.731 8.9296C24.939 7.8416 25.0974 5.7648 24.011 4.9744C22.9342 4.1904 21.0126 4.9776 19.7182 4.5584C18.4702 4.1536 17.3838 2.3728 15.9998 2.3728C14.6158 2.3728 13.5294 4.152 12.2814 4.5584C10.987 4.9792 9.06539 4.1904 7.98859 4.9744C6.90059 5.7664 7.05899 7.8416 6.26859 8.9296C5.48459 10.0064 3.45739 10.4928 3.03659 11.7872C2.63179 13.0352 3.97259 14.616 3.97259 16C3.97259 17.384 2.63019 18.9632 3.03659 20.2128C3.45739 21.5072 5.48459 21.9936 6.26859 23.0704C6.49739 23.384 6.64459 23.7808 6.76779 24.2048C9.27499 25.5024 12.1934 26.1072 15.2318 25.784C22.931 24.9664 28.6318 18.496 28.4878 11.0416ZM20 13L16 20C15.8616 20.2904 15.2718 19.9231 15 20.0952C14.7282 20.2673 15.0328 20.3562 14.7112 20.3571L14.5 20.5C13.8424 20.5 14.2912 21.0904 14 20.5C13.9064 20.3096 13.9319 20.7009 14 20.5C14.0681 20.2991 14.31 20.5943 14.5 20.5C14.8968 20.3048 15.3032 19.6048 15.5 20L15.9566 21.1824C15.9646 21.2 15.5 20 16.059 21.2464L15.5 20C15.572 20 16.1534 21.2 16.163 21.1824L20.4686 12.2176C20.5139 12.1228 19.5 17 20.6558 11.9678C20.734 11.8977 19.9009 16.5348 20 16.5C20.0991 16.4652 20.5 13.5 21.2336 11.7651C21.3385 11.771 21.4412 11.7975 21.5358 11.8432C21.9326 12.0336 20.1904 12.6016 20 13Z" fill="#FF8E42"/>
<path d="M19.5006 17.9248C22.6718 15.5728 24.819 12.0192 25.3054 8.03999C24.9454 6.94719 24.8446 5.58239 24.0094 4.97599C22.9326 4.19199 21.011 4.97919 19.7166 4.55999C18.4686 4.15519 17.3822 2.37439 15.9982 2.37439C14.6142 2.37439 13.5294 4.15199 12.2814 4.55839C10.987 4.97919 9.06541 4.19039 7.98861 4.97439C6.90061 5.76639 7.05901 7.84159 6.26861 8.92959C5.48461 10.0064 3.45741 10.4928 3.03661 11.7872C2.63181 13.0352 3.97261 14.616 3.97261 16C3.97261 16.9232 3.37421 17.9344 3.09741 18.8768C5.73261 20.3968 8.87181 21.128 12.1518 20.7792C12.7246 20.7184 13.8366 20.504 13.8366 20.504C13.8366 20.504 14.31 20.5943 14.5 20.5C14.8968 20.3048 15.4062 20.0656 15.4062 20.0656C15.4062 20.0656 16.491 19.6624 17.0094 19.4176L19.5006 17.9248C19.546 17.83 20.576 12.0363 20.6542 11.9662C20.7324 11.896 19.4015 17.9596 19.5006 17.9248C19.5997 17.89 21.1271 11.7576 21.232 11.7635C19.5006 17.9248 19.406 17.8791 19.5006 17.9248C19.5953 17.9702 21.7138 11.9507 21.7838 12.0289C21.8539 12.1071 19.4658 17.8257 19.5006 17.9248C19.5354 18.0239 21.9924 12.5017 21.9865 12.6066C21.9807 12.7114 19.5462 17.8301 19.5006 17.9248Z" fill="#FF9C5A"/>
<path d="M8.49452 16.1744C9.50092 16.0672 10.4737 15.864 11.4049 15.5744L11.5555 15.5556C11.6831 15.5277 12.4444 15.1111 12.4444 15.1111L12.9137 15.0112C17.2769 13.1152 20.4721 9.24002 21.4449 4.66082C20.8321 4.69922 20.2273 4.72162 19.7185 4.55682C18.4705 4.15202 17.3841 2.37122 16.0001 2.37122C14.6161 2.37122 13.5297 4.15202 12.2817 4.55842C10.9873 4.97922 9.06572 4.19042 7.98892 4.97442C6.90092 5.76642 7.05932 7.84162 6.26892 8.92962C5.48492 10.0064 3.45772 10.4928 3.03692 11.7872C2.63372 13.0288 3.95532 14.5952 3.97292 15.9728C5.42252 16.2624 6.94252 16.3392 8.49452 16.1744Z" fill="#FFAB73"/>
<path d="M16.9631 2.6432C16.6559 2.4784 16.3359 2.3728 15.9999 2.3728C14.6159 2.3728 13.5311 4.1536 12.2815 4.5584C10.9871 4.9792 9.06554 4.1904 7.98874 4.9744C6.90074 5.7664 7.05914 7.8416 6.26874 8.9296C5.58234 9.8736 3.93914 10.3632 3.26074 11.3408C4.05754 11.3968 4.86874 11.3888 5.69114 11.3008C10.9871 10.7408 15.2447 7.2448 16.9631 2.6432Z" fill="#FFB889"/>
<path d="M22.9484 11.8016C22.9485 11.9226 22.9247 12.0424 22.8783 12.1541C22.8318 12.2658 22.7638 12.3672 22.678 12.4525L14.2767 20.8537C13.9972 21.1333 13.7084 21.5 13.2501 21.0416L8.90508 16.5866C8.73232 16.4207 8.62766 16.1962 8.61155 15.9572C8.59545 15.7182 8.66906 15.4818 8.818 15.2941C8.90059 15.1988 9.00197 15.1216 9.11579 15.0672C9.22961 15.0129 9.35341 14.9826 9.47946 14.9783C9.60551 14.974 9.73109 14.9958 9.84834 15.0422C9.9656 15.0887 10.072 15.1588 10.1609 15.2483L13.6213 18.7087C13.635 18.7229 13.6514 18.7341 13.6695 18.7418C13.6876 18.7495 13.7071 18.7534 13.7267 18.7534C13.7464 18.7534 13.7659 18.7495 13.784 18.7418C13.8021 18.7341 13.8185 18.7229 13.8322 18.7087L21.413 11.1233C21.5151 11.0157 21.6444 10.9376 21.7871 10.8973C21.9299 10.8569 22.0809 10.8559 22.2242 10.8941C22.4284 10.9439 22.6103 11.0599 22.7414 11.2242C22.8724 11.3884 22.9452 11.5915 22.9484 11.8016Z" fill="url(#paint0_linear_5880_297)"/>
<defs>
<linearGradient id="paint0_linear_5880_297" x1="15.7789" y1="10.8662" x2="15.7789" y2="21.2589" gradientUnits="userSpaceOnUse">
<stop stop-color="#FFF2D1"/>
<stop offset="1" stop-color="#FFF0C9"/>
</linearGradient>
</defs>
</svg>
