<svg width="32" height="32" viewBox="0 0 32 32" fill="none" xmlns="http://www.w3.org/2000/svg">
<path d="M16.7199 27.5537C16.7199 27.9953 16.3615 28.3537 15.9199 28.3537C15.4783 28.3537 15.1199 27.9953 15.1199 27.5537V15.1425H4.69434V25.6209C4.69434 27.3473 6.09274 28.7457 7.81914 28.7457H24.1807C25.9071 28.7457 27.3055 27.3473 27.3055 25.6209V15.1425H16.7199V27.5537Z" fill="#FF823F"/>
<path d="M27.0702 8.05441H24.5758C25.147 6.91041 25.0126 5.50081 24.1262 4.46241C22.9838 3.12001 20.9966 2.91521 19.603 3.99521L15.9998 6.78881L12.3966 3.99521C11.7277 3.4751 10.8839 3.23335 10.0411 3.3204C9.19837 3.40745 8.42176 3.81657 7.87337 4.46241C6.98857 5.50081 6.85417 6.91041 7.42377 8.05441H4.92937C3.63177 8.05441 2.58057 9.10561 2.58057 10.4032V11.2208C2.58057 12.5184 3.63177 13.5696 4.92937 13.5696H15.1198V9.07681C15.1198 8.63521 15.4782 8.27681 15.9198 8.27681C16.3614 8.27681 16.7198 8.63521 16.7198 9.07681V13.5696H27.0702C28.3678 13.5696 29.419 12.5184 29.419 11.2208V10.4032C29.419 9.10561 28.3678 8.05441 27.0702 8.05441ZM20.8782 5.63841C21.1246 5.44718 21.4354 5.35842 21.7456 5.39061C22.0559 5.4228 22.3418 5.57346 22.5438 5.81121C22.7505 6.05104 22.8544 6.36261 22.8332 6.6785C22.8119 6.9944 22.6671 7.28923 22.4302 7.49921L21.811 8.05441H18.5054L17.9742 7.89121L20.8782 5.63841ZM9.57097 7.49921C9.33401 7.28923 9.18924 6.9944 9.16798 6.6785C9.14672 6.36261 9.25068 6.05104 9.45737 5.81121C9.57095 5.67717 9.71238 5.56952 9.87183 5.49574C10.0313 5.42196 10.2049 5.38383 10.3806 5.38401C10.6398 5.38401 10.9022 5.46721 11.123 5.63841L14.0286 7.89121L13.4974 8.05441H10.1902L9.57097 7.49921ZM27.3054 18.7984V15.1424H16.7198V25.8672C21.211 25.1408 25.0174 22.4816 27.3054 18.7984ZM4.69417 22.7328C7.47977 24.9472 11.043 26.2112 14.8782 26.0528C14.9598 26.0496 15.0398 26.0448 15.1214 26.04V15.1424H4.69417V22.7328Z" fill="#FF8E42"/>
<path d="M4.69417 19.0304C6.90057 20.1008 9.39657 20.6576 12.0174 20.5504C13.0846 20.5072 14.1214 20.3552 15.1198 20.1056V15.1424H4.69417V19.0304ZM16.7198 15.1424V19.6144C19.2238 18.688 21.4126 17.1312 23.1006 15.1424H16.7198ZM16.7198 13.5696H24.2734C25.3643 11.8935 26.1161 10.0198 26.4862 8.05441H24.5758C25.147 6.91041 25.0126 5.50081 24.1262 4.46241C22.9838 3.12001 20.9966 2.91521 19.603 3.99521L15.9998 6.78881L12.3966 3.99521C11.7277 3.4751 10.8839 3.23335 10.0411 3.3204C9.19837 3.40745 8.42176 3.81657 7.87337 4.46241C6.98857 5.50081 6.85417 6.91041 7.42377 8.05441H4.92937C3.63177 8.05441 2.58057 9.10561 2.58057 10.4032V11.2208C2.58057 12.5184 3.63177 13.5696 4.92937 13.5696H15.1198V9.07681C15.1198 8.63521 15.4782 8.27681 15.9198 8.27681C16.3614 8.27681 16.7198 8.63521 16.7198 9.07681V13.5696ZM13.4958 8.05441H10.1902L9.57097 7.49921C9.33401 7.28923 9.18924 6.9944 9.16798 6.6785C9.14672 6.36261 9.25068 6.05104 9.45737 5.81121C9.57095 5.67717 9.71238 5.56952 9.87183 5.49574C10.0313 5.42196 10.2049 5.38383 10.3806 5.38401C10.6398 5.38401 10.9022 5.46721 11.123 5.63841L14.0286 7.89121L13.4958 8.05441ZM20.8782 5.63841C21.1246 5.44718 21.4354 5.35842 21.7456 5.39061C22.0559 5.4228 22.3418 5.57346 22.5438 5.81121C22.7505 6.05104 22.8544 6.36261 22.8332 6.6785C22.8119 6.9944 22.6671 7.28923 22.4302 7.49921L21.811 8.05441H18.5054L17.9742 7.89121L20.8782 5.63841Z" fill="#FF9C5A"/>
<path d="M16.7198 12.3456C18.3571 11.1955 19.7553 9.73805 20.8366 8.05439H18.5038L17.9726 7.89119L20.8782 5.63839C21.0574 5.49917 21.2722 5.41319 21.498 5.39027C21.7237 5.36735 21.9514 5.40842 22.155 5.50879C22.4156 4.86249 22.6316 4.19907 22.8014 3.52319C21.7598 3.12319 20.547 3.26399 19.603 3.99519L15.9998 6.78879L12.3966 3.99519C11.7277 3.47508 10.8839 3.23333 10.0411 3.32038C9.19837 3.40743 8.42176 3.81655 7.87337 4.46239C6.98857 5.50079 6.85417 6.91039 7.42377 8.05439H4.92937C3.63177 8.05439 2.58057 9.10559 2.58057 10.4032V11.2208C2.58057 12.5184 3.63177 13.5696 4.92937 13.5696H14.6478C14.8062 13.4912 14.9646 13.4128 15.1198 13.3296V9.07679C15.1198 8.63519 15.4782 8.27679 15.9198 8.27679C16.3614 8.27679 16.7198 8.63519 16.7198 9.07679V12.3456ZM13.4958 8.05439H10.1902L9.57097 7.49919C9.33401 7.28921 9.18924 6.99438 9.16798 6.67848C9.14672 6.36259 9.25068 6.05102 9.45737 5.81119C9.57095 5.67715 9.71238 5.5695 9.87183 5.49572C10.0313 5.42194 10.2049 5.38381 10.3806 5.38399C10.6398 5.38399 10.9022 5.46719 11.123 5.63839L14.0286 7.89119L13.4958 8.05439Z" fill="#FFAB73"/>
<path d="M12.3968 3.99519C11.728 3.47508 10.8842 3.23333 10.0414 3.32038C9.19863 3.40743 8.42203 3.81655 7.87363 4.46239C6.98883 5.50079 6.85443 6.91039 7.42403 8.05439H4.92963C3.82883 8.05439 2.90723 8.81279 2.65283 9.83519C3.73872 10.0495 4.84612 10.1349 5.95203 10.0896C8.41603 9.98879 10.7056 9.25599 12.672 8.05439H10.1904L9.57123 7.49919C9.33427 7.28921 9.1895 6.99438 9.16824 6.67848C9.14698 6.36259 9.25094 6.05102 9.45763 5.81119C9.57121 5.67715 9.71265 5.5695 9.87209 5.49572C10.0315 5.42194 10.2051 5.38381 10.3808 5.38399C10.64 5.38399 10.9024 5.46719 11.1232 5.63839L13.5168 7.49439C14.096 7.07999 14.6416 6.62399 15.1504 6.12799L12.3968 3.99519Z" fill="#FFB889"/>
</svg>
