<svg width="20" height="20" viewBox="0 0 20 20" fill="none" xmlns="http://www.w3.org/2000/svg">
<g id="Frame">
<path id="Vector" opacity="0.6" d="M3.96667 4.82666H8.12667C8.60667 4.82666 9.07334 4.99333 9.44667 5.30666L9.84 5.63999H10.16L10.5533 5.30666C10.9267 4.99999 11.3933 4.82666 11.8733 4.82666H16.0333C16.7133 4.82666 17.2667 5.37999 17.2667 6.05999V14.5733C17.2667 15.2533 16.7133 15.8067 16.0333 15.8067H11.64C11.3133 15.8067 11 15.94 10.7667 16.1667L10.16 16.7733H9.84L9.23334 16.1667C9 15.9333 8.68667 15.8067 8.36 15.8067H3.96667C3.28667 15.8067 2.73334 15.2533 2.73334 14.5733V6.06666C2.72667 5.37999 3.28 4.82666 3.96667 4.82666Z" fill="#635DF7"/>
<path id="Vector_2" opacity="0.6" d="M9.52002 12.9C9.20669 12.5866 8.79336 12.42 8.35336 12.42H4.93336C4.48002 12.42 4.10669 12.0533 4.10669 11.5933V4.04664C4.10669 3.5933 4.47336 3.21997 4.93336 3.21997H8.12002C8.50669 3.21997 8.88002 3.3533 9.17336 3.59997L9.68669 4.02664H10.3067L10.82 3.59997C11.1134 3.3533 11.4934 3.21997 11.8734 3.21997H15.0667C15.52 3.21997 15.8934 3.58664 15.8934 4.04664V11.5933C15.8934 12.0466 15.5267 12.42 15.0667 12.42H11.6467C11.2067 12.42 10.7934 12.5933 10.48 12.9L10 13.38L9.52002 12.9Z" fill="#635DF7"/>
<path id="Vector_3" d="M11.3467 6.55334H8.65333C8.40666 6.55334 8.20667 6.75334 8.20667 7.00001V10.84C8.20667 11.0133 8.38666 11.1333 8.54666 11.0667L9.79333 10.5267C9.92666 10.4733 10.0733 10.4733 10.2 10.5267L11.4467 11.0667C11.6067 11.14 11.7867 11.02 11.7867 10.84V7.00001C11.7933 6.75334 11.5933 6.55334 11.3467 6.55334Z" fill="white"/>
</g>
</svg>
