<svg width="14" height="14" viewBox="0 0 14 14" fill="none" xmlns="http://www.w3.org/2000/svg">
<g id="Frame" opacity="0.4">
<g id="Group">
<path id="Vector" d="M5.99805 10.8223L9.49805 7.32227C9.61654 7.21289 9.67578 7.07845 9.67578 6.91895C9.67578 6.75944 9.61654 6.62044 9.49805 6.50195L5.99805 3.00195C5.88867 2.89258 5.75195 2.83789 5.58789 2.83789C5.42383 2.83789 5.28711 2.89258 5.17773 3.00195C5.05924 3.12044 5 3.25944 5 3.41895C5 3.57845 5.05924 3.71289 5.17773 3.82227L8.26758 6.91211L5.17773 10.002C5.05924 10.1204 5 10.2594 5 10.4189C5 10.5785 5.05924 10.7129 5.17773 10.8223C5.28711 10.9408 5.42383 11 5.58789 11C5.75195 11 5.88867 10.9408 5.99805 10.8223Z" fill="black"/>
</g>
</g>
</svg>
