<svg width="12" height="12" viewBox="0 0 12 12" fill="none" xmlns="http://www.w3.org/2000/svg">
<g id="Frame">
<path id="Vector" d="M9 4.74986C9.414 4.74986 9.75 5.08586 9.75 5.49986V9C9.75 9.19891 9.67098 9.38968 9.53033 9.53033C9.38968 9.67098 9.19891 9.75 9 9.75C8.80109 9.75 8.61032 9.67098 8.46967 9.53033C8.32902 9.38968 8.25 9.19891 8.25 9V5.49986C8.25 5.08586 8.586 4.74986 9 4.74986ZM6 2.25C6.414 2.25 6.75 2.586 6.75 3V9C6.75 9.19891 6.67098 9.38968 6.53033 9.53033C6.38968 9.67098 6.19891 9.75 6 9.75C5.80109 9.75 5.61032 9.67098 5.46967 9.53033C5.32902 9.38968 5.25 9.19891 5.25 9V3C5.25 2.586 5.586 2.25 6 2.25ZM3 6C3.414 6 3.75 6.336 3.75 6.75V9C3.75 9.19891 3.67098 9.38968 3.53033 9.53033C3.38968 9.67098 3.19891 9.75 3 9.75C2.80109 9.75 2.61032 9.67098 2.46967 9.53033C2.32902 9.38968 2.25 9.19891 2.25 9V6.75C2.25 6.336 2.586 6 3 6Z" fill="#F1343A"/>
</g>
</svg>
