<svg width="36" height="36" viewBox="0 0 36 36" fill="none" xmlns="http://www.w3.org/2000/svg">
<g clip-path="url(#clip0_56_2192)">
<rect width="36" height="36" rx="4" fill="#1877FF"/>
<mask id="mask0_56_2192" style="mask-type:luminance" maskUnits="userSpaceOnUse" x="0" y="0" width="36" height="36">
<rect width="36" height="36" rx="4" fill="white"/>
</mask>
<g mask="url(#mask0_56_2192)">
<rect width="10" height="13" fill="#2454FF"/>
<rect y="13" width="10" height="6" fill="#5AD3E0"/>
<rect x="24" width="12" height="7" fill="#5AD3E0"/>
<rect x="24" y="25" width="12" height="11" fill="#134CFF"/>
<path d="M-1.74902 22.7466L4.9989 15.9987L12.0002 23" stroke="#F0F2FE" stroke-width="4"/>
<path d="M22 29.9579L31 23L40 29.9579" stroke="#F0F2FE" stroke-width="4"/>
<path d="M31 23V43" stroke="url(#paint0_linear_56_2192)" stroke-width="4"/>
<rect x="10" width="16" height="36" fill="#134CFF"/>
<mask id="mask1_56_2192" style="mask-type:luminance" maskUnits="userSpaceOnUse" x="10" y="0" width="16" height="36">
<rect x="10" width="16" height="36" fill="white"/>
</mask>
<g mask="url(#mask1_56_2192)">
<rect x="10" y="30" width="16" height="6" fill="#84DCFF"/>
<path d="M7.5752 11.8634L17.9999 4.04487L28.4246 11.8634" stroke="white" stroke-width="5"/>
</g>
<path d="M17.8496 4.7438V21.7688V43.2562" stroke="url(#paint1_linear_56_2192)" stroke-width="6"/>
<path d="M5 16L5 27.5L5 33.25L5 39" stroke="url(#paint2_linear_56_2192)" stroke-width="4"/>
</g>
</g>
<defs>
<linearGradient id="paint0_linear_56_2192" x1="31.5" y1="23" x2="31.5" y2="43" gradientUnits="userSpaceOnUse">
<stop offset="0.252769" stop-color="#F0F2FE"/>
<stop offset="1" stop-color="white" stop-opacity="0.02"/>
</linearGradient>
<linearGradient id="paint1_linear_56_2192" x1="18.3496" y1="4.7438" x2="18.3496" y2="33.8992" gradientUnits="userSpaceOnUse">
<stop offset="0.177083" stop-color="white"/>
<stop offset="1" stop-color="white" stop-opacity="0"/>
</linearGradient>
<linearGradient id="paint2_linear_56_2192" x1="5" y1="20.3285" x2="5.46403" y2="39.0009" gradientUnits="userSpaceOnUse">
<stop stop-color="#F0F2FE"/>
<stop offset="1" stop-color="white" stop-opacity="0.27"/>
</linearGradient>
<clipPath id="clip0_56_2192">
<rect width="36" height="36" fill="white"/>
</clipPath>
</defs>
</svg>
