<svg width="51" height="51" xmlns="http://www.w3.org/2000/svg"><g fill="none" fill-rule="evenodd"><rect fill="#D8D8D8" width="47" height="47" rx="4"/><path d="M14.126 29.397c.313-.44.793-.78 1.33-.78.532 0 .908.302 1.336.717l1.946 1.983c.407.353.73.592 1.2.592a1.57 1.57 0 0 0 1.148-.516c.105-.114.292-.328.449-.516l5.604-7.308c.417-.58 1.044-.945 1.738-.945.699 0 1.34.416 1.747.982l13.18 18.271V5.375c-.104-.856-.657-1.473-1.366-1.473H5.178c-.721 0-1.305.642-1.342 1.511l-.031 36.49 10.32-12.506Z" fill="#FFF"/><circle fill="#D8D8D8" cx="12" cy="13" r="4"/><g fill-rule="nonzero"><path d="M40 30c-5.52 0-10 4.48-10 10s4.48 10 10 10c5.52.009 10-4.47 10-10 0-5.52-4.48-10-10-10Z" stroke="#FFF" stroke-width="2" fill="#D8D8D8"/><path d="M39.991 34.038c.69 0 1.251.56 1.251 1.251l-.634 5.648c.027.7-.25 1.251-.599 1.251-.35 0-.635-.56-.635-1.25l-.634-5.649c0-.688.56-1.25 1.251-1.25Zm.018 11.924a1.252 1.252 0 1 1 .001-2.503 1.252 1.252 0 0 1-.001 2.503Z" fill="#FFF"/></g></g></svg>