<svg width="40" height="40" viewBox="0 0 40 40" fill="none" xmlns="http://www.w3.org/2000/svg">
<path d="M30.8735 35.664C30.9892 36.0144 30.9675 36.3257 30.806 36.5951C30.6457 36.8646 30.3914 37 30.0444 37H29.9672C29.6081 37 29.3213 36.8925 29.1091 36.6761C28.897 36.461 28.7271 36.1435 28.5982 35.7247L24.5102 24.1862H25.4165L21.3479 35.7247C21.1936 36.1422 21.0177 36.4598 20.8176 36.6761C20.6188 36.8912 20.3392 37 19.9788 37H19.9017C19.5546 37 19.3015 36.8646 19.14 36.5951C18.9797 36.3257 18.9568 36.0144 19.0725 35.664L23.5654 22.9717C23.7968 22.3239 24.2596 22 24.9537 22H24.9923C25.6744 22 26.13 22.3239 26.3614 22.9717L30.8735 35.664ZM28.2318 30.6437V32.8502H21.695V30.6437H28.2318ZM35 35.8866C35 36.251 34.9072 36.5281 34.7204 36.7166C34.5336 36.9064 34.2745 37 33.9395 37H33.9009C33.5538 37 33.2899 36.9051 33.1103 36.7166C32.9295 36.5268 32.8403 36.251 32.8403 35.8866V23.1134C32.8403 22.749 32.9307 22.4719 33.1103 22.2834C33.2911 22.0936 33.5538 22 33.9009 22H33.9395C34.2733 22 34.5336 22.0949 34.7204 22.2834C34.9072 22.4732 35 22.749 35 23.1134V35.8866Z" fill="#4BD1A3"/>
<path fill-rule="evenodd" clip-rule="evenodd" d="M23.8008 23.0558C23.8008 23.0559 23.8009 23.0556 23.8008 23.0558L19.3091 35.7448C19.2128 36.0383 19.2384 36.2713 19.3547 36.467C19.4659 36.6525 19.6323 36.75 19.9017 36.75H19.9788C20.2859 36.75 20.4926 36.6593 20.634 36.5064C20.8029 36.3238 20.9645 36.0405 21.1127 35.6398L22.0082 33.1002H21.445V30.3937H22.9626L24.6993 25.4685L24.1564 23.9362H25.7698L25.2296 25.4681L26.9747 30.3937H28.4818V33.1002H27.9336L28.8373 35.6511C28.9595 36.048 29.1133 36.3243 29.2871 36.5006C29.4432 36.6598 29.6612 36.75 29.9672 36.75H30.0444C30.3144 36.75 30.4814 36.6519 30.5912 36.4673C30.7079 36.2725 30.7335 36.0392 30.637 35.745L26.1259 23.0558C26.0235 22.7688 25.8786 22.5728 25.7011 22.4468C25.5239 22.3209 25.293 22.25 24.9923 22.25H24.9537C24.646 22.25 24.4099 22.3214 24.2294 22.4477C24.049 22.5739 23.9029 22.7701 23.8008 23.0558ZM27.7564 32.6002H27.9818V30.8937H27.1518L27.7564 32.6002ZM26.6214 30.8937L27.226 32.6002H22.7147L23.3164 30.8937H26.6214ZM26.4442 30.3937L24.965 26.2185L23.4927 30.3937H26.4442ZM22.7863 30.8937H21.945V32.6002H22.1845L22.7863 30.8937ZM22.5384 33.1002H27.4031L28.3608 35.8033C28.4963 36.2415 28.6816 36.5985 28.9309 36.8514C29.199 37.1247 29.5551 37.25 29.9672 37.25H30.0444C30.4683 37.25 30.8099 37.0774 31.0207 36.7233C31.2263 36.3799 31.2447 35.9908 31.1109 35.5856L26.5969 22.8879C26.468 22.5271 26.2693 22.2369 25.9906 22.0391C25.7117 21.841 25.3737 21.75 24.9923 21.75H24.9537C24.5672 21.75 24.2249 21.8406 23.9427 22.0381C23.6603 22.2357 23.4592 22.5257 23.33 22.8876L18.8369 35.5805L18.8351 35.5856C18.7011 35.9917 18.7213 36.3803 18.9251 36.7229C19.1369 37.0762 19.477 37.25 19.9017 37.25H19.9788C20.3924 37.25 20.7449 37.1231 21.0012 36.8458M22.5384 33.1002L21.5824 35.8114C21.4223 36.2447 21.2322 36.596 21.0012 36.8458M24.9639 24.7181L25.0633 24.4362H24.864L24.9639 24.7181ZM33.9009 22.25C33.5985 22.25 33.4107 22.3305 33.2913 22.4558C33.171 22.5822 33.0903 22.7876 33.0903 23.1134V35.8866C33.0903 36.2127 33.1699 36.4167 33.2913 36.5442C33.4097 36.6684 33.5988 36.75 33.9009 36.75H33.9395C34.2262 36.75 34.4141 36.6714 34.5422 36.5412C34.6673 36.415 34.75 36.2107 34.75 35.8866V23.1134C34.75 22.7901 34.6683 22.587 34.5425 22.4591C34.4138 22.3294 34.2241 22.25 33.9395 22.25H33.9009ZM32.9293 22.111C33.1714 21.8568 33.5091 21.75 33.9009 21.75H33.9395C34.3223 21.75 34.6531 21.8603 34.898 22.1074C35.1457 22.3591 35.25 22.7082 35.25 23.1134V35.8866C35.25 36.2911 35.1466 36.6415 34.8982 36.8923C34.6528 37.1414 34.3226 37.25 33.9395 37.25H33.9009C33.5088 37.25 33.1701 37.1418 32.9293 36.889C32.6891 36.6369 32.5903 36.2894 32.5903 35.8866V23.1134C32.5903 22.7104 32.6905 22.3617 32.9293 22.111Z" fill="#4BD1A3"/>
<path fill-rule="evenodd" clip-rule="evenodd" d="M4.75 7C4.75 4.65279 6.65279 2.75 9 2.75H29C31.3472 2.75 33.25 4.65279 33.25 7V20C33.25 20.6904 32.6904 21.25 32 21.25C31.3096 21.25 30.75 20.6904 30.75 20V7C30.75 6.0335 29.9665 5.25 29 5.25H9C8.0335 5.25 7.25 6.0335 7.25 7V32C7.25 32.9665 8.0335 33.75 9 33.75H17.0741C17.7644 33.75 18.3241 34.3096 18.3241 35C18.3241 35.6904 17.7644 36.25 17.0741 36.25H9C6.65279 36.25 4.75 34.3472 4.75 32V7Z" fill="#4BD1A3"/>
<path d="M10 12.25C10 11.5596 10.5596 11 11.25 11H26.75C27.4404 11 28 11.5596 28 12.25C28 12.9404 27.4404 13.5 26.75 13.5H11.25C10.5596 13.5 10 12.9404 10 12.25Z" fill="#4BD1A3"/>
<path d="M10 18.25C10 17.5596 10.5596 17 11.25 17H22.75C23.4404 17 24 17.5596 24 18.25C24 18.9404 23.4404 19.5 22.75 19.5H11.25C10.5596 19.5 10 18.9404 10 18.25Z" fill="#4BD1A3"/>
</svg>
