<svg xmlns="http://www.w3.org/2000/svg" width="16" height="4" viewBox="0 0 16 4" fill="none">
  <path d="M13.9625 9.13681e-05C13.1079 0.0157164 12.3829 0.568841 12.1125 1.33447C12.0782 1.43447 11.9829 1.50009 11.8782 1.50009H4.12193C4.01724 1.50009 3.92193 1.43447 3.88755 1.33447C3.61724 0.567279 2.8938 0.0157164 2.03755 9.13681e-05C0.935988 -0.0202211 0.00786307 0.884466 5.05677e-05 1.98603C-0.00776193 3.09697 0.890675 4.00009 2.00005 4.00009C2.87036 4.00009 3.61099 3.44384 3.88599 2.66728C3.92193 2.56728 4.01568 2.50009 4.12193 2.50009H11.8782C11.9844 2.50009 12.0782 2.56728 12.1141 2.66728C12.3891 3.44384 13.1297 4.00009 14 4.00009C15.1094 4.00009 16.0079 3.09697 16 1.98603C15.9922 0.884466 15.0641 -0.0202211 13.9625 9.13681e-05ZM2.00005 3.00009C1.44849 3.00009 1.00005 2.55165 1.00005 2.00009C1.00005 1.44853 1.44849 1.00009 2.00005 1.00009C2.55161 1.00009 3.00005 1.44853 3.00005 2.00009C3.00005 2.55165 2.55161 3.00009 2.00005 3.00009ZM14 3.00009C13.4485 3.00009 13 2.55165 13 2.00009C13 1.44853 13.4485 1.00009 14 1.00009C14.5516 1.00009 15 1.44853 15 2.00009C15 2.55165 14.5516 3.00009 14 3.00009Z" fill="#8D8E99"/>
</svg>