<svg width="40" height="40" viewBox="0 0 40 40" fill="none" xmlns="http://www.w3.org/2000/svg">
<path d="M18.0475 3.53187C18.641 3.18344 19.3141 3 19.9993 3C20.6845 3 21.3577 3.18344 21.9511 3.53187L33.0482 10.0468C33.6417 10.3953 34.1345 10.8964 34.4771 11.5C34.8197 12.1035 35 12.7882 35 13.4851V26.5149C35 27.2118 34.8197 27.8965 34.4771 28.5C34.1345 29.1036 33.6417 29.6047 33.0482 29.9532L21.9511 36.4681C21.3577 36.8166 20.6845 37 19.9993 37C19.3141 37 18.641 36.8166 18.0475 36.4681L6.95176 29.9532C6.35833 29.6047 5.86554 29.1036 5.52293 28.5C5.18032 27.8965 4.99997 27.2118 5 26.5149V13.4851C4.99997 12.7882 5.18032 12.1035 5.52293 11.5C5.86554 10.8964 6.35833 10.3953 6.95176 10.0468L18.0475 3.53187ZM20.8358 5.49557C20.5815 5.34624 20.293 5.26762 19.9993 5.26762C19.7056 5.26762 19.4172 5.34624 19.1628 5.49557L8.54942 11.7269L11.3851 13.3419L10.4092 13.9969V15.1992L7.23477 13.4071L7.23059 13.4851V26.5149C7.23059 27.1232 7.54984 27.6847 8.06706 27.9895L19.0457 34.435V30.2339L20.069 30.8337L21.1146 30.302V34.34L31.9329 27.9881C32.158 27.8558 32.3496 27.6719 32.4926 27.4512C32.6357 27.2304 32.7261 26.9788 32.7569 26.7163L32.7694 26.5149V13.4851V13.4539L29.6856 15.1935V13.9912L28.7097 13.3362L31.491 11.751L20.8358 5.49557ZM19.9993 9.95891L28.0852 14.7058V24.2025L19.9993 28.9494L11.9134 24.2025V14.7058L19.9993 9.95891ZM14.1426 17.8704L14.144 22.891L18.884 25.6742V20.655L14.1426 17.8704ZM25.8532 17.8704L21.1146 20.6536V25.6727L25.8546 22.891L25.8532 17.8718V17.8704ZM19.9993 12.5776L14.7923 15.6317L19.9993 18.6885L25.2035 15.6317L19.9993 12.5776Z" fill="#C7C0FD"/>
<path d="M20 10L28 14.7493V24.2507L20 29L12 24.2507V14.7493L20 10ZM14.2055 17.9155L14.2069 22.9386L18.8966 25.7232V20.7015L14.2055 17.9155ZM25.7917 17.9155L21.1034 20.7001V25.7217L25.7931 22.9386L25.7917 17.9169V17.9155ZM20 12.6201L14.8483 15.6756L20 18.734L25.149 15.6756L20 12.6201Z" fill="#7364FA"/>
</svg>
