<svg width="24" height="24" fill="none" xmlns="http://www.w3.org/2000/svg"><g clip-path="url(#a)" fill-rule="evenodd" clip-rule="evenodd"><path d="M14.825 7.23c-.795-1.097.711-2.38 1.669-1.423l5.296 5.296a1.25 1.25 0 0 1 0 1.768l-5.296 5.296c-.96.96-2.463-.327-1.669-1.423l3.447-4.757-3.447-4.756ZM2.097 7.23c-.794-1.096.71-2.382 1.668-1.423l5.296 5.296a1.25 1.25 0 0 1 0 1.768l-5.296 5.296c-.959.96-2.462-.327-1.668-1.423l3.446-4.757L2.097 7.23Z" fill="#C9DAF7"/><path d="M8.46 7.23c-.793-1.096.71-2.382 1.67-1.423l5.295 5.296a1.25 1.25 0 0 1 0 1.768l-5.296 5.296c-.959.96-2.463-.327-1.669-1.423l3.447-4.757L8.46 7.23Z" fill="#1B68EE"/></g><defs><clipPath id="a"><path fill="#fff" d="M0 0h24v24H0z"/></clipPath></defs></svg>