<svg width="40" height="40" viewBox="0 0 40 40" fill="none" xmlns="http://www.w3.org/2000/svg">
<circle cx="20" cy="20" r="20" fill="white"/>
<path d="M12.6666 13.334H18C18.7964 13.334 19.5113 13.6832 20 14.2368C20.4886 13.6832 21.2035 13.334 22 13.334H27.3333V14.0007L27.3333 26.0007H26.6666C24.7038 26.0007 23.2405 26.1642 22.2762 26.3249C21.794 26.4053 21.4364 26.485 21.2033 26.5432C21.0868 26.5724 21.0013 26.5962 20.947 26.612C20.9199 26.6199 20.9005 26.6259 20.8889 26.6295L20.8774 26.6331L20.8759 26.6336L20.7748 26.6673H19.2251L19.124 26.6336L19.1231 26.6333L19.1225 26.6331L19.111 26.6295C19.0994 26.6259 19.08 26.6199 19.0529 26.612C18.9986 26.5962 18.9131 26.5724 18.7966 26.5432C18.5635 26.485 18.2059 26.4053 17.7237 26.3249C16.7594 26.1642 15.2961 26.0007 13.3333 26.0007H12.6666L12.6666 14.0011L12.6666 13.334ZM14 14.6673V24.6735C15.709 24.7054 17.0233 24.8565 17.9429 25.0097C18.4607 25.096 18.8531 25.183 19.12 25.2497C19.2033 25.2706 19.2744 25.2894 19.3333 25.3057V16.0007C19.3333 15.2643 18.7363 14.6673 18 14.6673H14ZM20.6666 16.0007V25.3057C20.7255 25.2894 20.7966 25.2706 20.8799 25.2497C21.1469 25.183 21.5392 25.096 22.057 25.0097C22.9766 24.8565 24.291 24.7054 26 24.6735V14.6673H22C21.2636 14.6673 20.6666 15.2643 20.6666 16.0007ZM22 17.334H24.6666V18.6673H22V17.334ZM22 19.334H24.6666V20.6673H22V19.334Z" fill="black"/>
</svg>
