<svg width="40" height="40" viewBox="0 0 40 40" fill="none" xmlns="http://www.w3.org/2000/svg">
<circle cx="20" cy="20" r="20" fill="white"/>
<path d="M26.5 13.3496C27.1351 13.3496 27.6504 13.8649 27.6504 14.5V25.5C27.6504 26.1351 27.1351 26.6504 26.5 26.6504H13.5C12.8649 26.6504 12.3496 26.1351 12.3496 25.5V14.5C12.3496 13.8649 12.8649 13.3496 13.5 13.3496H26.5ZM13.6504 25.3496H26.3496V17.6504H13.6504V25.3496ZM17.46 19.541L18.96 21.041L19.4189 21.501L18.96 21.9609L17.46 23.4609L17 23.9199L16.0811 23.001L16.54 22.541L17.5801 21.501L16.54 20.4609L16.0811 20.001L17 19.082L17.46 19.541ZM24.4004 22.6504H20.5996V21.3496H24.4004V22.6504ZM13.6504 16.3496H26.3496V14.6504H13.6504V16.3496Z" fill="black"/>
</svg>
