<svg width="64" height="64" fill="none" xmlns="http://www.w3.org/2000/svg"><path d="M37.333 16h5.334v5.333H56A2.667 2.667 0 0 1 58.667 24v20l-16-9.333.096 21.498 5.928-5.733 4.752 8.235H24A2.667 2.667 0 0 1 21.333 56V42.667H16v-5.334h5.333V24A2.667 2.667 0 0 1 24 21.333h13.333V16Zm21.334 30.235V56c0 .278-.043.554-.128.819l-5.227-9.051 5.355-1.533Zm-48-8.902v5.334H5.333v-5.334h5.334Zm0-10.666V32H5.333v-5.333h5.334Zm0-10.667v5.333H5.333V16h5.334Zm0-10.667v5.334H5.333V5.333h5.334Zm10.666 0v5.334H16V5.333h5.333Zm10.667 0v5.334h-5.333V5.333H32Zm10.667 0v5.334h-5.334V5.333h5.334Z" fill="#4082F5"/></svg>