<svg width="143" height="142" fill="none" xmlns="http://www.w3.org/2000/svg"><g fill="#E5E9EF"><path fill-rule="evenodd" clip-rule="evenodd" d="M76.37 42.201c10.528-8.64 20.402-15.083 28.317-18.631 3.964-1.777 7.356-2.791 10.045-3.033 2.704-.243 4.451.308 5.479 1.335 1.118 1.118 1.661 3.095 1.264 6.132a6.966 6.966 0 0 1 2.925.743c.535-3.641.064-6.864-2.068-8.996-1.919-1.92-4.731-2.485-7.869-2.202-3.153.284-6.887 1.438-11.003 3.284-8.246 3.696-18.35 10.315-28.992 19.05L76.37 42.2Zm43.344-.37a6.969 6.969 0 0 1-2.719-1.272 89.44 89.44 0 0 1-2.069 3.815c-6.519 11.387-17.428 25.334-31.198 39.104s-27.717 24.68-39.104 31.199c-5.704 3.265-10.689 5.384-14.642 6.244-4.032.877-6.543.358-7.86-.96-.984-.984-1.531-2.624-1.362-5.141.168-2.509 1.041-5.673 2.622-9.382 3.156-7.406 8.99-16.665 16.903-26.634l-2.35-1.865c-8.002 10.082-14.012 19.577-17.313 27.323-1.648 3.867-2.655 7.379-2.855 10.357-.2 2.969.397 5.627 2.234 7.464 2.444 2.444 6.32 2.704 10.619 1.77 4.377-.952 9.665-3.235 15.494-6.573 11.678-6.685 25.833-17.778 39.735-31.68 13.902-13.903 24.996-28.058 31.681-39.735a93.043 93.043 0 0 0 2.184-4.034Z"/><circle cx="121.25" cy="35" r="5"/><path fill-rule="evenodd" clip-rule="evenodd" d="M113.202 71c0 7.834-7.473 12.872-15.4 12.872h-8.717c-6.096 0-11.039 4.884-11.039 10.909v10.604c0 3.017-2.267 5.615-5.32 5.615-22.354 0-40.476-17.909-40.476-40s18.122-40 40.476-40c22.355 0 40.476 17.909 40.476 40ZM73.386 52.72a4.21 4.21 0 1 0 0-8.419 4.21 4.21 0 0 0 0 8.418Zm-14.724 4.556a4.21 4.21 0 1 0 0-8.418 4.21 4.21 0 0 0 0 8.418Zm-7.23 13.428a4.21 4.21 0 1 0 0-8.419 4.21 4.21 0 0 0 0 8.419Zm15.103 15.534a6.667 6.667 0 1 1-13.333 0 6.667 6.667 0 0 1 13.333 0ZM91.45 53.71a4.21 4.21 0 1 1-8.418 0 4.21 4.21 0 0 1 8.418 0Z"/></g></svg>