<svg width="20" height="20" viewBox="0 0 20 20" fill="none" xmlns="http://www.w3.org/2000/svg">
<g id="Frame">
<path id="Vector" d="M2.26562 13.5059H17.8027C18.3398 13.5059 18.7539 13.9648 18.7539 13.4277L17.4883 2.1875C17.4883 1.65039 17.0488 1.21094 16.5117 1.21094H3.57422C3.03711 1.21094 2.59766 1.65039 2.59766 2.1875L1.26953 13.3145C1.26953 13.8516 1.72852 13.5059 2.26562 13.5059ZM3.84766 2.46094H16.2402L17.5293 12.2559H2.53906L3.84766 2.46094Z" fill="url(#paint0_linear_6407_33544)"/>
<path id="Vector_2" d="M17.7793 12.25H2.23828C1.70508 12.25 1.26953 12.6895 1.26953 13.2266V17.543C1.26953 18.0801 1.70508 18.5195 2.23828 18.5195H17.7773C18.3105 18.5195 18.7461 18.0801 18.7461 17.543V13.2266C18.748 12.6895 18.3125 12.25 17.7793 12.25ZM17.5078 17.2676H2.50977V13.5H17.5059V17.2676H17.5078Z" fill="url(#paint1_linear_6407_33544)"/>
<path id="Vector_3" d="M3.29813 14.1602H7.01172V15.0977H3.29813V14.1602ZM3.26172 15.8398H6.97531V16.7773H3.26172V15.8398Z" fill="url(#paint2_linear_6407_33544)"/>
<path id="Vector_4" d="M10.5 14.668C10.5 14.8234 10.5617 14.9724 10.6716 15.0823C10.7815 15.1922 10.9305 15.2539 11.0859 15.2539C11.2413 15.2539 11.3904 15.1922 11.5003 15.0823C11.6101 14.9724 11.6719 14.8234 11.6719 14.668C11.6719 14.5126 11.6101 14.3635 11.5003 14.2536C11.3904 14.1438 11.2413 14.082 11.0859 14.082C10.9305 14.082 10.7815 14.1438 10.6716 14.2536C10.5617 14.3635 10.5 14.5126 10.5 14.668Z" fill="url(#paint3_linear_6407_33544)"/>
<path id="Vector_5" d="M12.5 14.6289C12.5 14.7843 12.5617 14.9333 12.6716 15.0432C12.7815 15.1531 12.9305 15.2148 13.0859 15.2148C13.2413 15.2148 13.3904 15.1531 13.5003 15.0432C13.6101 14.9333 13.6719 14.7843 13.6719 14.6289C13.6719 14.4735 13.6101 14.3245 13.5003 14.2146C13.3904 14.1047 13.2413 14.043 13.0859 14.043C12.9305 14.043 12.7815 14.1047 12.6716 14.2146C12.5617 14.3245 12.5 14.4735 12.5 14.6289Z" fill="url(#paint4_linear_6407_33544)"/>
<path id="Vector_6" d="M8.61328 14.707C8.61328 14.8624 8.67501 15.0115 8.7849 15.1214C8.89478 15.2312 9.04382 15.293 9.19922 15.293C9.35462 15.293 9.50365 15.2312 9.61354 15.1214C9.72342 15.0115 9.78516 14.8624 9.78516 14.707C9.78516 14.5516 9.72342 14.4026 9.61354 14.2927C9.50365 14.1828 9.35462 14.1211 9.19922 14.1211C9.04382 14.1211 8.89478 14.1828 8.7849 14.2927C8.67501 14.4026 8.61328 14.5516 8.61328 14.707Z" fill="url(#paint5_linear_6407_33544)"/>
<path id="Vector_7" d="M14.4531 14.6289C14.4531 14.7843 14.5149 14.9333 14.6247 15.0432C14.7346 15.1531 14.8837 15.2148 15.0391 15.2148C15.1945 15.2148 15.3435 15.1531 15.4534 15.0432C15.5633 14.9333 15.625 14.7843 15.625 14.6289C15.625 14.4735 15.5633 14.3245 15.4534 14.2146C15.3435 14.1047 15.1945 14.043 15.0391 14.043C14.8837 14.043 14.7346 14.1047 14.6247 14.2146C14.5149 14.3245 14.4531 14.4735 14.4531 14.6289Z" fill="url(#paint6_linear_6407_33544)"/>
<path id="Vector_8" d="M10.5 16.2695C10.5 16.4249 10.5617 16.574 10.6716 16.6839C10.7815 16.7937 10.9305 16.8555 11.0859 16.8555C11.2413 16.8555 11.3904 16.7937 11.5003 16.6839C11.6101 16.574 11.6719 16.4249 11.6719 16.2695C11.6719 16.1141 11.6101 15.9651 11.5003 15.8552C11.3904 15.7453 11.2413 15.6836 11.0859 15.6836C10.9305 15.6836 10.7815 15.7453 10.6716 15.8552C10.5617 15.9651 10.5 16.1141 10.5 16.2695Z" fill="url(#paint7_linear_6407_33544)"/>
<path id="Vector_9" d="M12.5 16.2305C12.5 16.3859 12.5617 16.5349 12.6716 16.6448C12.7815 16.7547 12.9305 16.8164 13.0859 16.8164C13.2413 16.8164 13.3904 16.7547 13.5003 16.6448C13.6101 16.5349 13.6719 16.3859 13.6719 16.2305C13.6719 16.0751 13.6101 15.926 13.5003 15.8161C13.3904 15.7063 13.2413 15.6445 13.0859 15.6445C12.9305 15.6445 12.7815 15.7063 12.6716 15.8161C12.5617 15.926 12.5 16.0751 12.5 16.2305Z" fill="url(#paint8_linear_6407_33544)"/>
<path id="Vector_10" d="M8.57422 16.3086C8.57422 16.464 8.63595 16.613 8.74584 16.7229C8.85572 16.8328 9.00476 16.8945 9.16016 16.8945C9.31556 16.8945 9.46459 16.8328 9.57448 16.7229C9.68436 16.613 9.74609 16.464 9.74609 16.3086C9.74609 16.1532 9.68436 16.0042 9.57448 15.8943C9.46459 15.7844 9.31556 15.7227 9.16016 15.7227C9.00476 15.7227 8.85572 15.7844 8.74584 15.8943C8.63595 16.0042 8.57422 16.1532 8.57422 16.3086Z" fill="url(#paint9_linear_6407_33544)"/>
<path id="Vector_11" d="M14.4141 16.2305C14.4141 16.3074 14.4292 16.3836 14.4587 16.4547C14.4881 16.5258 14.5313 16.5904 14.5857 16.6448C14.6401 16.6992 14.7047 16.7424 14.7758 16.7718C14.8469 16.8013 14.9231 16.8164 15 16.8164C15.0769 16.8164 15.1531 16.8013 15.2242 16.7718C15.2953 16.7424 15.3599 16.6992 15.4143 16.6448C15.4687 16.5904 15.5119 16.5258 15.5413 16.4547C15.5708 16.3836 15.5859 16.3074 15.5859 16.2305C15.5859 16.1535 15.5708 16.0773 15.5413 16.0062C15.5119 15.9352 15.4687 15.8706 15.4143 15.8161C15.3599 15.7617 15.2953 15.7186 15.2242 15.6891C15.1531 15.6597 15.0769 15.6445 15 15.6445C14.9231 15.6445 14.8469 15.6597 14.7758 15.6891C14.7047 15.7186 14.6401 15.7617 14.5857 15.8161C14.5313 15.8706 14.4881 15.9352 14.4587 16.0062C14.4292 16.0773 14.4141 16.1535 14.4141 16.2305Z" fill="url(#paint10_linear_6407_33544)"/>
</g>
<defs>
<linearGradient id="paint0_linear_6407_33544" x1="10.0117" y1="1.21094" x2="10.0117" y2="13.6885" gradientUnits="userSpaceOnUse">
<stop stop-color="white"/>
<stop offset="1" stop-color="white" stop-opacity="0.3"/>
</linearGradient>
<linearGradient id="paint1_linear_6407_33544" x1="10.0078" y1="12.25" x2="10.0078" y2="18.5195" gradientUnits="userSpaceOnUse">
<stop stop-color="white" stop-opacity="0.3"/>
<stop offset="1" stop-color="white" stop-opacity="0.3"/>
</linearGradient>
<linearGradient id="paint2_linear_6407_33544" x1="5.13672" y1="14.1602" x2="5.13672" y2="16.7773" gradientUnits="userSpaceOnUse">
<stop stop-color="white" stop-opacity="0.3"/>
<stop offset="1" stop-color="white" stop-opacity="0.3"/>
</linearGradient>
<linearGradient id="paint3_linear_6407_33544" x1="11.0859" y1="14.082" x2="11.0859" y2="15.2539" gradientUnits="userSpaceOnUse">
<stop stop-color="white" stop-opacity="0.3"/>
<stop offset="1" stop-color="white" stop-opacity="0.3"/>
</linearGradient>
<linearGradient id="paint4_linear_6407_33544" x1="13.0859" y1="14.043" x2="13.0859" y2="15.2148" gradientUnits="userSpaceOnUse">
<stop stop-color="white" stop-opacity="0.3"/>
<stop offset="1" stop-color="white" stop-opacity="0.3"/>
</linearGradient>
<linearGradient id="paint5_linear_6407_33544" x1="9.19922" y1="14.1211" x2="9.19922" y2="15.293" gradientUnits="userSpaceOnUse">
<stop stop-color="white" stop-opacity="0.3"/>
<stop offset="1" stop-color="white" stop-opacity="0.3"/>
</linearGradient>
<linearGradient id="paint6_linear_6407_33544" x1="15.0391" y1="14.043" x2="15.0391" y2="15.2148" gradientUnits="userSpaceOnUse">
<stop stop-color="white" stop-opacity="0.3"/>
<stop offset="1" stop-color="white" stop-opacity="0.3"/>
</linearGradient>
<linearGradient id="paint7_linear_6407_33544" x1="11.0859" y1="15.6836" x2="11.0859" y2="16.8555" gradientUnits="userSpaceOnUse">
<stop stop-color="white" stop-opacity="0.3"/>
<stop offset="1" stop-color="white" stop-opacity="0.3"/>
</linearGradient>
<linearGradient id="paint8_linear_6407_33544" x1="13.0859" y1="15.6445" x2="13.0859" y2="16.8164" gradientUnits="userSpaceOnUse">
<stop stop-color="white" stop-opacity="0.3"/>
<stop offset="1" stop-color="white" stop-opacity="0.3"/>
</linearGradient>
<linearGradient id="paint9_linear_6407_33544" x1="9.16016" y1="15.7227" x2="9.16016" y2="16.8945" gradientUnits="userSpaceOnUse">
<stop stop-color="white" stop-opacity="0.3"/>
<stop offset="1" stop-color="white" stop-opacity="0.3"/>
</linearGradient>
<linearGradient id="paint10_linear_6407_33544" x1="15" y1="15.6445" x2="15" y2="16.8164" gradientUnits="userSpaceOnUse">
<stop stop-color="white" stop-opacity="0.3"/>
<stop offset="1" stop-color="white" stop-opacity="0.3"/>
</linearGradient>
</defs>
</svg>
