<svg width="20" height="21" viewBox="0 0 20 21" fill="none" xmlns="http://www.w3.org/2000/svg">
<g opacity="0.8">
<path d="M3.02123 6.75195L2.99609 6.76452V13.8913L9.98461 17.5678V10.2274L3.02123 6.75195Z" fill="white"/>
<path d="M16.9608 6.75812L9.98486 3.08789L3.29172 6.60729L3.02148 6.75183L9.98486 10.2272L10.0666 10.1895L16.9797 6.77069V6.7644L16.9608 6.75812Z" fill="#3057CA" fill-opacity="0.36"/>
<path d="M18.3554 6.08595C18.2489 5.86416 18.0752 5.68162 17.8589 5.56432L10.5185 1.68042C10.3537 1.59398 10.1703 1.54883 9.98426 1.54883C9.79817 1.54883 9.61486 1.59398 9.45006 1.68042L2.11589 5.53918C1.99998 5.61049 1.89781 5.70202 1.81423 5.80942C1.74154 5.88305 1.67821 5.96537 1.62569 6.05452C1.5467 6.2106 1.50375 6.38241 1.5 6.55729V14.0989C1.50196 14.3097 1.56155 14.5161 1.67232 14.6955C1.7831 14.875 1.94083 15.0207 2.12846 15.117L9.46263 18.9757C9.62207 19.0667 9.80088 19.1184 9.98426 19.1266H10.0722C10.2278 19.1188 10.3798 19.0781 10.5185 19.0072L17.8526 15.1484C18.0403 15.0521 18.198 14.9064 18.3088 14.7269C18.4195 14.5475 18.4791 14.3412 18.4811 14.1303V6.55729C18.4748 6.39278 18.4318 6.23175 18.3554 6.08595ZM16.9791 6.77097L10.066 10.1898L9.98426 10.2338V17.568L2.98946 13.8915V6.76469L3.2597 6.62014L9.98426 3.08818L16.9602 6.7584L16.9791 6.77097Z" fill="#0746FF"/>
</g>
</svg>
