<svg width="40" height="40" xmlns="http://www.w3.org/2000/svg" xmlns:xlink="http://www.w3.org/1999/xlink"><defs><circle id="a" cx="20" cy="20" r="20"/></defs><g fill="none" fill-rule="evenodd"><mask id="b" fill="#fff"><use xlink:href="#a"/></mask><use fill="#1A65D4" fill-rule="nonzero" opacity=".1" xlink:href="#a"/><g mask="url(#b)" fill-rule="nonzero"><path d="M10.513 10.681c.256-.104.58.102.725.46l2.32 5.77c.144.359.054.735-.202.84-.256.104-.58-.103-.725-.461l-2.32-5.77c-.145-.358-.054-.734.202-.839Zm17.128 0c-.255-.104-.58.102-.724.46l-2.321 5.77c-.144.359-.054.735.202.84.256.104.581-.103.725-.461l2.32-5.77c.145-.358.054-.734-.202-.839Z" fill="#379DF8"/><path d="M8.624 10.41a1.5 1.5 0 0 0 1.838 1.071 1.518 1.518 0 0 0 1.062-1.857 1.5 1.5 0 0 0-1.839-1.072 1.518 1.518 0 0 0-1.061 1.857Zm20.996 0a1.5 1.5 0 0 1-1.84 1.071 1.518 1.518 0 0 1-1.061-1.857 1.5 1.5 0 0 1 1.839-1.072 1.518 1.518 0 0 1 1.061 1.857ZM3.81 28.526c0 8.43 7.035 15.263 15.714 15.263s15.714-6.833 15.714-15.263-7.035-15.263-15.714-15.263S3.81 20.097 3.81 28.526Z" fill="#217FFF"/><path d="M8.814 28.6c0 4.466 4.75 8.086 10.61 8.086 5.86 0 10.61-3.62 10.61-8.086s-4.75-8.086-10.61-8.086c-5.86 0-10.61 3.62-10.61 8.086Z" fill="#FFF"/><path d="M16.236 7.234h-2.61a.292.292 0 0 1-.293-.29c0-.159.132-.29.293-.29h2.445l.703-1.157a.293.293 0 0 1 .502 0l.593.98 1.072-3.485c.088-.285.502-.267.568.022l.765 3.464.651-.93a.293.293 0 0 1 .524.097l.318 1.278.352-1.636c.058-.272.435-.315.553-.062l.666 1.43h2.434c.161 0 .293.13.293.29a.292.292 0 0 1-.293.289h-2.62a.293.293 0 0 1-.268-.17l-.377-.807-.436 2.016c-.066.3-.498.307-.57.007l-.47-1.878-.666.948a.294.294 0 0 1-.527-.105l-.666-3.026-.937 3.055a.295.295 0 0 1-.53.065l-.682-1.126-.534.88a.296.296 0 0 1-.253.14Z" fill="#64B3FA"/><path d="M14.442 26.174c.564 0 1.024.467 1.024 1.04v2.369c0 .572-.46 1.039-1.024 1.039a1.033 1.033 0 0 1-1.024-1.04v-2.369c0-.572.46-1.039 1.024-1.039Zm10.056 0c.564 0 1.024.467 1.024 1.04v2.369c0 .572-.46 1.039-1.024 1.039a1.033 1.033 0 0 1-1.024-1.04v-2.369c0-.572.46-1.039 1.024-1.039Z" fill="#379DF8"/></g></g></svg>