<svg width="28" height="28" fill="none" xmlns="http://www.w3.org/2000/svg"><path fill-rule="evenodd" clip-rule="evenodd" d="M3.864 12.205a.5.5 0 0 0 .368.432l.684.184 3.703.997c.493.133.493.833 0 .966l-3.73 1.004-.692.186a.5.5 0 0 0-.368.438l-.065.714-.644 7.093c-.118 1.297 1.258 2.202 2.403 1.58L24.42 15.531c1.133-.616 1.137-2.24.008-2.862L5.418 2.205c-1.152-.634-2.542.286-2.41 1.594l.784 7.7.072.706Zm1.45-.86-1.522.155 1.521-.155Z" fill="url(#a)"/><defs><linearGradient id="a" x1="26" y1="14" x2="-1" y2="14" gradientUnits="userSpaceOnUse"><stop stop-color="#3050F2"/><stop offset=".296" stop-color="#745DF3"/><stop offset=".59" stop-color="#B773CC"/><stop offset=".836" stop-color="#E48897"/></linearGradient></defs></svg>