<svg width="29" height="28" xmlns="http://www.w3.org/2000/svg"><path d="M11.097 16.89a.792.792 0 0 1-.375.086.82.82 0 0 1-.726-.432l-.058-.115-2.288-4.965c-.029-.06-.029-.116-.029-.174 0-.232.174-.405.407-.405a.46.46 0 0 1 .26.087l2.695 1.906c.2.114.433.2.693.2.147 0 .289-.027.435-.086L24.745 7.39C22.485 4.734 18.75 3 14.516 3 7.621 3 2 7.65 2 13.393c0 3.118 1.68 5.947 4.316 7.853.21.152.34.399.348.665a.793.793 0 0 1-.059.259c-.202.779-.553 2.05-.552 2.108a1.054 1.054 0 0 0-.06.317c0 .233.176.405.407.405a.33.33 0 0 0 .233-.087l2.722-1.588c.201-.113.434-.2.666-.2.115 0 .261.027.375.058 1.275.375 2.668.579 4.088.579 6.895 0 12.516-4.65 12.516-10.394 0-1.734-.521-3.377-1.42-4.823l-14.396 8.287-.088.058h.001Z" fill="#09BB07"/></svg>