<svg width="70" height="70" viewBox="0 0 70 70" fill="none" xmlns="http://www.w3.org/2000/svg">
<g id="Frame 2090051697">
<g id="Group 1000004524">
<g id="Group 2090051877">
<path id="Subtract" fill-rule="evenodd" clip-rule="evenodd" d="M41.3121 15H16C12.6863 15 10 17.6863 10 21V48C10 51.3137 12.6863 54 16 54H54C57.3137 54 60 51.3137 60 48V36.7452L57 35.1102V48C57 49.6569 55.6569 51 54 51H16C14.3431 51 13 49.6569 13 48V21C13 19.3431 14.3431 18 16 18H39.4371L41.3121 15Z" fill="black"/>
<path id="Vector" d="M21 27L29 34L21 41" stroke="#080808" stroke-width="3" stroke-linecap="round" stroke-linejoin="round"/>
<path id="Vector_2" d="M33.3242 43.2H48.5992" stroke="#080808" stroke-width="3" stroke-linecap="round" stroke-linejoin="round"/>
</g>
<path id="Vector_3" d="M51.4993 13L48.2899 19.5672L41 20.6269L46.2809 25.8027L45.0186 33L51.4993 29.5364L57.9813 33L56.7283 25.8027L62 20.6269L54.7504 19.5672L51.4993 13Z" fill="#8EA7FF" stroke="#8EA7FF" stroke-linejoin="round"/>
</g>
</g>
</svg>
