<svg width="70" height="70" viewBox="0 0 70 70" fill="none" xmlns="http://www.w3.org/2000/svg">
<g id="Frame 2090051695">
<g id="Group 1000004525">
<g id="Group 1000004497">
<path id="Polygon 10" d="M56.6509 23.2203L45.8256 29.4703M13.3496 23.2203L24.1749 29.4703" stroke="#080808" stroke-width="2.5" stroke-linecap="round" stroke-linejoin="round"/>
<path id="Vector 1956" d="M35 45.9431L35 58.5098" stroke="#080808" stroke-width="2.5" stroke-linecap="round" stroke-linejoin="round"/>
<path id="Union" fill-rule="evenodd" clip-rule="evenodd" d="M42.2226 21.7022C42.3584 21.2288 41.8001 20.865 41.4219 21.1803L26.6028 33.5332C26.2946 33.7902 26.3994 34.2873 26.7852 34.3979L30.8224 35.5556L27.7763 46.1788C27.6406 46.6522 28.1988 47.016 28.5771 46.7007L43.3961 34.3478C43.7044 34.0909 43.5995 33.5938 43.2138 33.4832L39.1765 32.3255L42.2226 21.7022Z" fill="#8EA7FF"/>
<path id="Polygon 9" d="M35 10L56.6506 22.5V47.5L35 60L13.3494 47.5V22.5L35 10Z" stroke="#080808" stroke-width="2.5" stroke-linecap="round" stroke-linejoin="round"/>
</g>
</g>
</g>
</svg>
