<svg width="56" height="56" viewBox="0 0 56 56" fill="none" xmlns="http://www.w3.org/2000/svg">
<g id="Frame">
<path id="Vector" d="M16.3327 21C20.843 21 24.4994 17.3437 24.4994 12.8334C24.4994 8.32303 20.843 4.66669 16.3327 4.66669C11.8223 4.66669 8.16602 8.32303 8.16602 12.8334C8.16602 17.3437 11.8223 21 16.3327 21Z" stroke="#090909" stroke-width="3" stroke-linejoin="round"/>
<path id="Vector_2" d="M39.6667 21C44.177 21 47.8333 17.3437 47.8333 12.8334C47.8333 8.32303 44.177 4.66669 39.6667 4.66669C35.1563 4.66669 31.5 8.32303 31.5 12.8334C31.5 17.3437 35.1563 21 39.6667 21Z" stroke="#090909" stroke-width="3" stroke-linejoin="round"/>
<path id="Vector_3" d="M4.66602 51.3333C4.66602 50.2962 4.66602 46.7962 4.66602 40.8333C4.66602 34.39 9.06462 29.1666 14.4906 29.1666C17.1105 29.1666 19.0754 29.1666 20.3853 29.1666C25.1512 29.1666 27.9995 33.8647 27.9995 33.8647" stroke="#090909" stroke-width="3" stroke-linecap="round" stroke-linejoin="round"/>
<path id="Vector_4" d="M51.3334 51.3333C51.3334 50.2962 51.3334 46.7962 51.3334 40.8333C51.3334 34.39 46.8824 29.1666 41.392 29.1666C38.7408 29.1666 36.7526 29.1666 35.427 29.1666C30.8056 29.1666 27.9909 33.8647 28 33.8647" stroke="#090909" stroke-width="3" stroke-linecap="round" stroke-linejoin="round"/>
<path id="Vector_5" d="M12.834 46.6666H44.334" stroke="#8EA7FF" stroke-width="3" stroke-linecap="round" stroke-linejoin="round"/>
<path id="Vector_6" d="M40.0117 42.3014L41.4579 43.7565L44.3502 46.6665L41.4579 49.6549L40.0117 51.1492" stroke="#8EA7FF" stroke-width="3" stroke-linecap="round" stroke-linejoin="round"/>
<path id="Vector_7" d="M16.7177 42.2708L15.2487 43.7333L12.3105 46.6582L15.2487 49.6317L16.7177 51.1185" stroke="#8EA7FF" stroke-width="3" stroke-linecap="round" stroke-linejoin="round"/>
</g>
</svg>
