<svg width="54" height="54" viewBox="0 0 54 54" fill="none" xmlns="http://www.w3.org/2000/svg">
<g id="&#232;&#181;&#139;&#232;&#131;&#189;&#230;&#157;&#144;&#230;&#150;&#153;">
<path id="Vector" d="M39.1973 42.8678H14.9605C14.8234 42.8678 14.3857 42.8098 14.3646 42.8414C14.3857 42.8098 14.5492 42.8731 14.4016 42.8414C14.333 42.8256 14.2645 42.815 14.1906 42.7992C14.101 42.7781 14.0061 42.7518 13.9217 42.7254C13.8531 42.7043 13.7898 42.6779 13.7213 42.6568C13.6422 42.6305 13.6053 42.6568 13.7529 42.6727C13.6475 42.6621 13.5051 42.5514 13.4154 42.4986C13.3258 42.4459 13.2414 42.3932 13.157 42.3299C13.1465 42.3193 12.9777 42.1822 13.0885 42.2824C13.2045 42.3826 13.0357 42.235 13.0252 42.2244C12.9461 42.1559 12.8723 42.0873 12.8037 42.0135C12.7615 41.9713 12.7246 41.9291 12.6877 41.8869C12.6613 41.8553 12.4979 41.6865 12.6613 41.8658C12.5242 41.7182 12.424 41.5178 12.3291 41.3438C12.3027 41.2963 12.2447 41.2119 12.2395 41.1592C12.2395 41.1803 12.3133 41.3596 12.2553 41.1908C12.2131 41.0695 12.1709 40.9482 12.134 40.8217C12.1076 40.7162 12.0865 40.616 12.0654 40.5106C12.018 40.2785 12.076 40.6635 12.0654 40.5158C12.0602 40.4578 12.0549 40.3945 12.0496 40.3365C12.0443 40.2627 12.0443 40.1836 12.0443 40.1098C12.0338 39.0445 12.0443 37.974 12.0443 36.9088V29.8846V21.8109V15.5988V14.0906V13.8586C12.0443 13.7479 12.0549 13.6424 12.0602 13.5316C12.076 13.2943 12.0285 13.6793 12.0602 13.5369L12.0918 13.3629C12.1129 13.2574 12.1393 13.1572 12.1709 13.057C12.1867 12.999 12.2078 12.9463 12.2289 12.8936C12.2395 12.8619 12.2553 12.8303 12.2658 12.7934C12.2922 12.7301 12.2816 12.7512 12.2395 12.8619C12.2605 12.6826 12.4609 12.4348 12.5611 12.2924C12.5928 12.2449 12.6244 12.1922 12.6613 12.1553C12.6455 12.1764 12.5295 12.3135 12.6402 12.1869C12.7246 12.092 12.809 12.0023 12.8986 11.9127C12.9619 11.8547 13.0463 11.7387 13.1307 11.707C12.9619 11.7703 13.0568 11.7598 13.1307 11.7123L13.273 11.6174C13.3574 11.5594 13.4471 11.5066 13.542 11.4592C13.5947 11.4328 13.6475 11.4065 13.6949 11.3801C13.9006 11.2746 13.5051 11.4434 13.7213 11.3643C13.9217 11.2904 14.1221 11.2324 14.3277 11.1902C14.3857 11.1797 14.5967 11.1059 14.3594 11.1797C14.4016 11.1691 14.4648 11.1691 14.5018 11.1639C14.602 11.1586 14.6969 11.1533 14.7971 11.1533H39.1973C39.25 11.1533 39.2975 11.1533 39.3449 11.1586C39.3924 11.1586 39.4398 11.1639 39.4926 11.1691L39.635 11.185L39.5242 11.1691C39.7141 11.1481 39.9988 11.2693 40.1729 11.3326C40.2256 11.3537 40.2889 11.3643 40.3363 11.3959C40.1518 11.2904 40.2572 11.359 40.2994 11.3854C40.4207 11.4486 40.5473 11.5119 40.6633 11.5857C40.7424 11.6332 40.8162 11.6859 40.89 11.7387C41.0799 11.8705 40.7424 11.6016 40.9111 11.7598C40.9428 11.7914 40.9797 11.8178 41.0166 11.8494C41.101 11.9285 41.1801 12.0076 41.2592 12.092C41.2908 12.1236 41.3172 12.1606 41.3488 12.1975C41.5018 12.3662 41.2381 12.034 41.3699 12.2186C41.4965 12.3979 41.602 12.5877 41.7074 12.7775C41.7338 12.8303 41.8234 12.9674 41.7127 12.7723C41.7338 12.8092 41.7496 12.8619 41.7602 12.9041C41.8023 13.0254 41.8393 13.1467 41.8709 13.2732C41.892 13.3629 41.9447 13.4947 41.9342 13.5897C41.9605 13.3893 41.9236 13.5053 41.9289 13.5897C41.9342 13.6477 41.9395 13.7109 41.9395 13.769C41.9395 13.8217 41.9395 13.8744 41.9447 13.9272V37.2516C41.9447 38.2641 41.9816 39.2818 41.9395 40.2891C41.9395 40.3365 41.9342 40.384 41.9289 40.4367C41.9289 40.4473 41.8973 40.6846 41.9236 40.5264C41.95 40.3682 41.9078 40.6002 41.9078 40.6107C41.8973 40.6582 41.8867 40.7057 41.8762 40.7479C41.8498 40.8639 41.8182 40.9746 41.776 41.0854C41.7602 41.1275 41.7443 41.175 41.7285 41.2172C41.6547 41.4281 41.8023 41.1012 41.7285 41.2119C41.6072 41.3912 41.5281 41.5969 41.4016 41.7814C41.3752 41.8184 41.3488 41.8606 41.3225 41.8922C41.4754 41.7287 41.3594 41.8447 41.3225 41.8869C41.2539 41.9607 41.1854 42.0398 41.1115 42.1137C41.0482 42.1717 40.9375 42.3141 40.8584 42.3404C40.8742 42.3352 41.0324 42.2139 40.89 42.3193C40.8426 42.351 40.7951 42.3879 40.7477 42.4195C40.6633 42.4775 40.5736 42.5303 40.484 42.5777C40.4313 42.6041 40.3785 42.6305 40.3311 42.6568C40.2783 42.6832 40.1412 42.7729 40.3363 42.6621C40.1623 42.7623 39.925 42.8045 39.7352 42.8467L39.5611 42.8783C39.4188 42.91 39.7984 42.8625 39.5664 42.8783C39.4398 42.8572 39.3238 42.8678 39.1973 42.8678C38.7016 42.8731 38.227 43.3002 38.248 43.817C38.2691 44.3285 38.6646 44.7715 39.1973 44.7662C41.3594 44.7451 43.3738 43.1842 43.7588 41.0168C43.8484 40.5 43.8484 40.0043 43.8484 39.4822V34.2826V26.3408V18.6363V14.1486C43.8484 13.115 43.6322 12.0867 43.01 11.2324C42.0818 9.96153 40.6791 9.23907 39.1023 9.2338H15.008C13.7688 9.2338 12.6244 9.60821 11.6805 10.4309C10.6521 11.3379 10.1406 12.6668 10.1406 14.0168V40.1098C10.1564 42.1928 11.5803 44.0912 13.6105 44.6133C14.2012 44.7662 14.7918 44.7662 15.393 44.7662H39.192C39.6877 44.7662 40.1623 44.3285 40.1412 43.817C40.1254 43.3002 39.7299 42.8678 39.1973 42.8678Z" fill="#2770EF"/>
<path id="Vector_2" d="M23.0922 10.183V24.3896C23.6301 24.1682 24.1732 23.9414 24.7111 23.7199C23.725 22.7232 22.7441 21.7266 21.758 20.7246C21.6156 20.5822 21.4732 20.4346 21.3309 20.2922C20.9723 19.9283 20.35 19.9283 19.9861 20.2922C19 21.2889 18.0191 22.2855 17.033 23.2875C16.8906 23.4299 16.7482 23.5775 16.6059 23.7199C17.1437 23.9414 17.6869 24.1682 18.2248 24.3896V19.5908V11.9391V10.183C18.2248 9.6873 17.7871 9.21269 17.2756 9.23379C16.7588 9.25488 16.3264 9.65039 16.3264 10.183V24.3896C16.3264 25.207 17.3652 25.65 17.9453 25.0594C18.9314 24.0627 19.9123 23.066 20.8984 22.0641C21.0408 21.9217 21.1832 21.774 21.3256 21.6316H19.9809C20.967 22.6283 21.9478 23.625 22.934 24.6269C23.0764 24.7693 23.2187 24.917 23.3611 25.0594C23.9412 25.6447 24.9801 25.207 24.9801 24.3896V19.5908V11.9391V10.183C24.9801 9.6873 24.5424 9.21269 24.0309 9.23379C23.5246 9.26015 23.0922 9.65039 23.0922 10.183ZM36.6396 35.5799H19.733C18.9525 35.5799 18.1668 35.5588 17.3863 35.5799H17.3494C16.8537 35.5799 16.3791 36.0176 16.4002 36.5291C16.4213 37.0459 16.8168 37.4783 17.3494 37.4783H34.256C35.0365 37.4783 35.8223 37.4994 36.6027 37.4783H36.6396C37.1353 37.4783 37.61 37.0406 37.5889 36.5291C37.5678 36.0123 37.1723 35.5799 36.6396 35.5799ZM36.8137 28.9986H19.6064C18.8154 28.9986 18.0191 28.9723 17.2281 28.9986H17.1965C16.7008 28.9986 16.2262 29.4363 16.2473 29.9478C16.2684 30.4646 16.6639 30.8971 17.1965 30.8971H34.4037C35.1947 30.8971 35.991 30.9234 36.782 30.8971H36.8137C37.3094 30.8971 37.784 30.4594 37.7629 29.9478C37.7418 29.4311 37.3463 28.9986 36.8137 28.9986ZM36.5289 22.1432H29.8791C29.3834 22.1432 28.9088 22.5809 28.9299 23.0924C28.951 23.6092 29.3465 24.0416 29.8791 24.0416H36.5289C37.0246 24.0416 37.4992 23.6039 37.4781 23.0924C37.4517 22.5809 37.0615 22.1432 36.5289 22.1432Z" fill="#2770EF"/>
</g>
</svg>
