<svg width="54" height="54" viewBox="0 0 54 54" fill="none" xmlns="http://www.w3.org/2000/svg">
<g id="&#229;&#159;&#185;&#232;&#174;&#173;">
<path id="Vector" d="M43.1009 37.5143H10.9039C10.8631 37.5143 10.8165 37.5086 10.7756 37.5086C10.6298 37.5143 11.0089 37.5777 10.7815 37.5086C10.7348 37.4913 10.6823 37.4798 10.6357 37.4683C10.4257 37.4165 10.6765 37.4913 10.6765 37.4913C10.6415 37.4971 10.5074 37.3992 10.4782 37.3819C10.2974 37.2841 10.5074 37.4107 10.5132 37.4107C10.4724 37.405 10.4082 37.3129 10.3791 37.2841C10.3732 37.2726 10.3616 37.2668 10.3558 37.2553C10.2799 37.169 10.2916 37.1805 10.3791 37.2956C10.3558 37.2841 10.3033 37.1805 10.2974 37.169C10.2799 37.1459 10.2216 37.0596 10.2275 37.0366C10.2158 37.1114 10.2799 37.2035 10.2508 37.0769C10.2391 37.0251 10.2275 36.9387 10.2041 36.8927C10.1516 36.8006 10.2041 37.0884 10.21 36.8984V36.7603C10.2041 35.3846 10.21 34.0146 10.21 32.6389V24.8105V17.1548C10.21 15.9575 10.1866 14.7545 10.21 13.5572V13.5514C10.21 13.6781 10.2158 13.3903 10.2158 13.4306C10.21 13.2924 10.1458 13.5917 10.21 13.4766C10.2333 13.4306 10.2449 13.3442 10.2566 13.2924C10.2858 13.1658 10.2275 13.2579 10.2333 13.3327C10.2333 13.3097 10.2858 13.2291 10.3033 13.2003C10.3208 13.1658 10.3441 13.137 10.3616 13.1082C10.4082 13.0449 10.3907 13.0679 10.3091 13.1715C10.3149 13.1255 10.6007 12.901 10.4724 12.9988C10.3441 13.0967 10.6357 12.878 10.6823 12.8837C10.6823 12.8837 10.4374 12.9585 10.6415 12.9067C10.6882 12.8952 10.7406 12.8837 10.7873 12.8664C11.0147 12.7916 10.6298 12.8607 10.7815 12.8664C10.7348 12.8664 11.0439 12.8607 10.9039 12.8607H43.2C43.3225 12.8722 43.305 12.8664 43.1534 12.8492C43.1883 12.8377 43.4274 12.901 43.4508 12.9298C43.3925 12.8607 43.2991 12.8492 43.4041 12.9183C43.4449 12.947 43.5732 12.9873 43.5966 13.0334C43.5557 12.9528 43.4741 12.9183 43.5557 13.0104C43.5907 13.0506 43.6432 13.114 43.684 13.1427C43.7832 13.2061 43.5791 12.947 43.6782 13.137C43.7015 13.1773 43.7307 13.2233 43.754 13.2636C43.8648 13.4421 43.7424 13.2233 43.7424 13.2176C43.7599 13.2291 43.7832 13.3327 43.789 13.3615C43.7948 13.3787 43.8415 13.6205 43.8123 13.4478C43.789 13.2751 43.8123 13.5284 43.8123 13.5457V36.8984C43.8123 37.1172 43.824 36.8581 43.824 36.8524C43.8415 36.8869 43.789 36.9963 43.7774 37.0366C43.7657 37.0711 43.7074 37.2265 43.7657 37.0884C43.8298 36.9445 43.684 37.2668 43.6374 37.2898C43.7132 37.2553 43.754 37.169 43.6607 37.2496C43.6257 37.2783 43.5849 37.3186 43.5557 37.3532C43.41 37.5086 43.6782 37.3129 43.5616 37.3532C43.5091 37.3704 43.4449 37.4222 43.3983 37.451C43.2933 37.5201 43.3866 37.5028 43.4449 37.4395C43.4274 37.4568 43.3283 37.4798 43.2991 37.4856C43.2933 37.4856 43.1709 37.5258 43.1475 37.5201L43.27 37.5028C43.2058 37.5086 43.1534 37.5143 43.1009 37.5143C42.5527 37.5259 42.0278 37.9806 42.0512 38.5504C42.0745 39.103 42.5119 39.5981 43.1009 39.5866C44.3838 39.5578 45.5794 38.6828 45.8359 37.4107C45.8884 37.1459 45.9001 36.8927 45.9001 36.6336V34.9126V27.9591V19.653V14.0983V13.6205C45.8943 12.9067 45.6552 12.2563 45.1828 11.7152C44.5588 10.9957 43.6607 10.8 42.751 10.8H10.8223C9.4635 10.8633 8.32048 11.8476 8.1397 13.1888C8.08138 13.6032 8.10471 14.0234 8.10471 14.4436V36.7775C8.11637 38.3375 9.35269 39.575 10.9331 39.5923C12.0178 39.6096 13.1025 39.5923 14.1872 39.5923H43.1125C43.6607 39.5923 44.1856 39.1145 44.1622 38.5562C44.1273 37.9863 43.6899 37.5143 43.1009 37.5143Z" fill="#2770EF"/>
<path id="Vector_2" d="M21.709 21.2366H15.4908C14.8726 21.2366 14.3999 20.7303 14.3999 20.0683C14.3999 19.4063 14.8726 18.9 15.4908 18.9H21.709C22.3272 18.9 22.7999 19.4063 22.7999 20.0683C22.7999 20.7303 22.3272 21.2366 21.709 21.2366ZM27.7454 27H15.4908C14.8726 27 14.3999 26.4938 14.3999 25.8318C14.3999 25.1697 14.8726 24.6635 15.4908 24.6635H27.709C28.3272 24.6635 28.7999 25.1697 28.7999 25.8318C28.7999 26.4938 28.3272 27 27.7454 27Z" fill="#2770EF"/>
<path id="Vector_3" d="M9.15048 35.4442H40.4762C41.9107 35.4442 43.3569 35.4797 44.7914 35.4442H44.8497C45.3979 35.4442 45.9227 34.9535 45.8993 34.38C45.876 33.8006 45.4387 33.3158 44.8497 33.3158H13.524C12.0895 33.3158 10.6433 33.2803 9.20879 33.3158H9.15048C8.60234 33.3158 8.07752 33.8065 8.10085 34.38C8.12417 34.9535 8.56152 35.4442 9.15048 35.4442Z" fill="#2770EF"/>
<path id="Vector_4" d="M17.6999 45.6656L20.6826 40.4993L21.1035 39.7703C21.4446 39.1795 21.3591 38.3759 20.863 38.123C20.3619 37.8672 19.6826 38.1035 19.3161 38.7383L15.9124 44.6336C15.5714 45.2244 15.6569 46.028 16.153 46.2809C16.6577 46.5304 17.3334 46.3004 17.6999 45.6656Z" fill="#2770EF"/>
<path id="Vector_5" d="M35.9496 45.6656L32.9668 40.4993L32.5459 39.7703C32.2048 39.1795 32.2903 38.3759 32.7864 38.123C33.2875 37.8672 33.9668 38.1035 34.3333 38.7383L37.737 44.6336C38.0781 45.2244 37.9925 46.028 37.4964 46.2809C36.9917 46.5304 36.316 46.3004 35.9496 45.6656Z" fill="#2770EF"/>
</g>
</svg>
