<svg width="54" height="54" viewBox="0 0 54 54" fill="none" xmlns="http://www.w3.org/2000/svg">
<g id="Frame">
<path id="Vector" d="M8.66675 37.1286L26.1371 45.702C26.2587 45.7611 26.3926 45.7918 26.5284 45.7918C26.6641 45.7918 26.7981 45.7611 26.9197 45.702L44.39 37.1286C44.5349 37.0573 44.6568 36.9479 44.7419 36.8125C44.8271 36.6772 44.8722 36.5212 44.8722 36.3622V15.786C44.8696 15.6293 44.8218 15.4765 44.7342 15.3453C44.708 15.3025 44.6695 15.275 44.6346 15.2373C44.5857 15.1825 44.5508 15.1173 44.4879 15.0761C44.4564 15.0556 44.418 15.0556 44.3848 15.0384C44.3603 15.0264 44.3481 14.999 44.3219 14.9887L26.8516 8.12999C26.6437 8.0477 26.4114 8.0477 26.2034 8.12999L8.73314 14.9887C8.70868 15.0007 8.69645 15.0264 8.67199 15.0401C8.6388 15.0556 8.60036 15.0556 8.56892 15.0761C8.50602 15.1173 8.46934 15.1825 8.42042 15.2373C8.38723 15.275 8.34879 15.3025 8.32259 15.3453C8.23501 15.4765 8.18715 15.6293 8.18457 15.786V36.3622C8.18458 36.5212 8.22968 36.6772 8.31483 36.8125C8.39999 36.9479 8.52184 37.0573 8.66675 37.1286ZM9.9316 17.0532L25.6549 23.226V43.5484L9.9316 35.8323V17.0532ZM27.4019 43.5484V23.226L43.1252 17.0532V35.8323L27.4019 43.5484ZM26.5284 9.85152L41.6472 15.786L26.5284 21.7205L11.4096 15.786L26.5284 9.85152Z" fill="#2770EF"/>
</g>
</svg>
