<svg width="54" height="54" viewBox="0 0 54 54" fill="none" xmlns="http://www.w3.org/2000/svg">
<g id="Frame">
<path id="Vector" d="M35.0249 20.6H19.0249C18.4049 20.6 17.8999 20.095 17.8999 19.475C17.8999 18.855 18.4049 18.35 19.0249 18.35H35.0249C35.6449 18.35 36.1499 18.855 36.1499 19.475C36.1499 20.095 35.6449 20.6 35.0249 20.6Z" fill="#2770EF"/>
<path id="Vector_2" d="M26.9649 47.25C26.3549 47.25 25.7849 46.95 25.4349 46.455L6.9799 20.07C6.7549 19.75 6.7149 19.33 6.8699 18.975L11.5249 8.38C11.9599 7.39 12.9399 6.75 14.0199 6.75H39.9649C41.0399 6.75 42.0149 7.385 42.4549 8.365L47.1799 18.965C47.3399 19.325 47.2999 19.745 47.0699 20.07L28.4949 46.455C28.1449 46.955 27.5749 47.25 26.9649 47.25ZM9.1849 19.3L26.9699 44.72L44.8599 19.3L40.3999 9.28C40.3249 9.11 40.1549 9 39.9649 9H14.0199C13.8299 9 13.6599 9.11 13.5849 9.285L9.1849 19.3Z" fill="#2770EF"/>
</g>
</svg>
