<svg width="24" height="24" viewBox="0 0 24 24" fill="none" xmlns="http://www.w3.org/2000/svg">
<g clip-path="url(#clip0_3403_8420)">
<rect width="24" height="24" fill="url(#paint0_linear_3403_8420)"/>
<g clip-path="url(#clip1_3403_8420)">
<path fill-rule="evenodd" clip-rule="evenodd" d="M9.96033 26.6137L9.94946 28.4232H1.94612L2.26531 26.6137H1.50146L5.1394 10.3198L5.91301 5.93406C6.04512 5.18514 6.6875 4.63989 7.43774 4.63989C8.19598 4.63989 8.85323 5.17216 9.02094 5.92204L9.61169 8.56348C10.3439 8.48279 11.1521 8.43804 12.0015 8.43804C12.8183 8.43804 13.5969 8.47942 14.3067 8.55436L14.7689 5.93406C14.901 5.18514 15.5433 4.63989 16.2936 4.63989C17.0518 4.63989 17.7091 5.17216 17.8768 5.92204L18.8433 10.2436L18.8469 10.2455L22.5015 26.6137H18.8162L18.8053 28.4232H10.802L11.1212 26.6137H9.96033Z" fill="url(#paint1_linear_3403_8420)"/>
<path fill-rule="evenodd" clip-rule="evenodd" d="M10.7983 16.8842C11.425 16.8842 11.9329 16.3691 11.9329 15.7336L10.7983 16.8842Z" fill="url(#paint2_linear_3403_8420)"/>
<path d="M10.7983 16.8842C11.425 16.8842 11.9329 16.3691 11.9329 15.7336" stroke="#C11E6D" stroke-linecap="round" stroke-linejoin="round"/>
<path fill-rule="evenodd" clip-rule="evenodd" d="M13.0676 16.8842C12.4409 16.8842 11.933 16.3691 11.933 15.7336L13.0676 16.8842Z" fill="url(#paint3_linear_3403_8420)"/>
<path d="M13.0676 16.8842C12.4409 16.8842 11.933 16.3691 11.933 15.7336" stroke="#C11E6D" stroke-linecap="round" stroke-linejoin="round"/>
<path fill-rule="evenodd" clip-rule="evenodd" d="M15.9971 13L14.001 12.998L15.9971 13Z" fill="url(#paint4_linear_3403_8420)"/>
<path d="M15.9971 13L14.001 12.998" stroke="#C11E6D" stroke-linecap="round" stroke-linejoin="round"/>
<path fill-rule="evenodd" clip-rule="evenodd" d="M10.0026 12.999L7.99866 13.001L10.0026 12.999Z" fill="url(#paint5_linear_3403_8420)"/>
<path d="M10.0026 12.999L7.99866 13.001" stroke="#C11E6D" stroke-linecap="round" stroke-linejoin="round"/>
</g>
</g>
<defs>
<linearGradient id="paint0_linear_3403_8420" x1="12" y1="0" x2="12" y2="24" gradientUnits="userSpaceOnUse">
<stop stop-color="#ED408D"/>
<stop offset="1" stop-color="#D93B84"/>
</linearGradient>
<linearGradient id="paint1_linear_3403_8420" x1="12.0015" y1="4.63989" x2="12.0015" y2="28.4232" gradientUnits="userSpaceOnUse">
<stop stop-color="#FFD0E1"/>
<stop offset="1" stop-color="#F7B3CC" stop-opacity="0.7"/>
</linearGradient>
<linearGradient id="paint2_linear_3403_8420" x1="11.3656" y1="15.7336" x2="11.3656" y2="16.8842" gradientUnits="userSpaceOnUse">
<stop stop-color="#FFD0E1"/>
<stop offset="1" stop-color="#F7B3CC" stop-opacity="0.7"/>
</linearGradient>
<linearGradient id="paint3_linear_3403_8420" x1="12.5003" y1="15.7336" x2="12.5003" y2="16.8842" gradientUnits="userSpaceOnUse">
<stop stop-color="#FFD0E1"/>
<stop offset="1" stop-color="#F7B3CC" stop-opacity="0.7"/>
</linearGradient>
<linearGradient id="paint4_linear_3403_8420" x1="15.8184" y1="12.6115" x2="14.1715" y2="13.3689" gradientUnits="userSpaceOnUse">
<stop stop-color="#FFD0E1"/>
<stop offset="1" stop-color="#F7B3CC" stop-opacity="0.7"/>
</linearGradient>
<linearGradient id="paint5_linear_3403_8420" x1="9.82398" y1="12.6107" x2="8.16909" y2="13.3716" gradientUnits="userSpaceOnUse">
<stop stop-color="#FFD0E1"/>
<stop offset="1" stop-color="#F7B3CC" stop-opacity="0.7"/>
</linearGradient>
<clipPath id="clip0_3403_8420">
<rect width="24" height="24" fill="white"/>
</clipPath>
<clipPath id="clip1_3403_8420">
<rect width="24" height="24" fill="white"/>
</clipPath>
</defs>
</svg>
