<svg width="16" height="16" viewBox="0 0 16 16" fill="none" xmlns="http://www.w3.org/2000/svg">
<g id="Frame">
<path id="Vector" d="M3.4285 9.14272C2.85707 9.14272 2.28564 9.71415 2.28564 10.2856C2.28564 10.857 2.85707 11.4284 3.4285 11.4284C3.99993 11.4284 4.57136 10.857 4.57136 10.2856C4.57136 9.71415 3.99993 9.14272 3.4285 9.14272ZM12.5714 6.857C13.1428 6.857 13.7142 6.28557 13.7142 5.71415C13.7142 5.14272 13.1428 4.57129 12.5714 4.57129C11.9999 4.57129 11.4285 5.14272 11.4285 5.71415C11.4285 6.28557 11.9999 6.857 12.5714 6.857ZM3.4285 4.57129C2.85707 4.57129 2.28564 5.14272 2.28564 5.71415C2.28564 6.28557 2.85707 6.857 3.4285 6.857C3.99993 6.857 4.57136 6.28557 4.57136 5.71415C4.57136 5.14272 3.99993 4.57129 3.4285 4.57129ZM12.5714 9.14272C11.9999 9.14272 11.4285 9.71415 11.4285 10.2856C11.4285 10.857 11.9999 11.4284 12.5714 11.4284C13.1428 11.4284 13.7142 10.857 13.7142 10.2856C13.7142 9.71415 13.1428 9.14272 12.5714 9.14272ZM7.99993 4.57129C7.4285 4.57129 6.85707 5.14272 6.85707 5.71415C6.85707 6.28557 7.4285 6.857 7.99993 6.857C8.57136 6.857 9.14279 6.28557 9.14279 5.71415C9.14279 5.14272 8.57136 4.57129 7.99993 4.57129ZM7.99993 9.14272C7.4285 9.14272 6.85707 9.71415 6.85707 10.2856C6.85707 10.857 7.4285 11.4284 7.99993 11.4284C8.57136 11.4284 9.14279 10.857 9.14279 10.2856C9.14279 9.71415 8.57136 9.14272 7.99993 9.14272Z" fill="black"/>
</g>
</svg>
