<svg width="160" height="160" viewBox="0 0 160 160" fill="none" xmlns="http://www.w3.org/2000/svg">
<path d="M95 84.1562H137L155.745 104.984C157.193 106.593 156.051 109.156 153.887 109.156H95V84.1562Z" fill="#5C87FF"/>
<path d="M95 84.1562H137L155.745 104.984C157.193 106.593 156.051 109.156 153.887 109.156H95V84.1562Z" fill="url(#paint0_linear_23042_9418)" fill-opacity="0.4"/>
<path d="M53.4468 65.8102C53.1672 65.4016 52.7039 65.1572 52.2088 65.1572H13.8438C12.6376 65.1572 11.9247 66.5087 12.6059 67.5043L24 84.1572H66L53.4468 65.8102Z" fill="#85A5FF"/>
<path d="M53.4468 65.8102C53.1672 65.4016 52.7039 65.1572 52.2088 65.1572H13.8438C12.6376 65.1572 11.9247 66.5087 12.6059 67.5043L24 84.1572H66L53.4468 65.8102Z" fill="url(#paint1_linear_23042_9418)" fill-opacity="0.8"/>
<path d="M24 84.1572H95V150.157H28C25.7909 150.157 24 148.366 24 146.157V84.1572Z" fill="#DDE4FB"/>
<path d="M24 84.1572H95V150.157H28C25.7909 150.157 24 148.366 24 146.157V84.1572Z" fill="url(#paint2_linear_23042_9418)"/>
<g opacity="0.2">
<path fill-rule="evenodd" clip-rule="evenodd" d="M41.0775 140.967C41.2108 141.044 41.3775 140.948 41.3775 140.794V134.36L35.8047 131.152C35.6713 131.075 35.5049 131.171 35.5049 131.325V137.173C35.5049 137.53 35.6955 137.86 36.0049 138.039L41.0775 140.967Z" fill="#134CFF"/>
<path fill-rule="evenodd" clip-rule="evenodd" d="M41.0775 140.967C41.2108 141.044 41.3775 140.948 41.3775 140.794V134.36L35.8047 131.152C35.6713 131.075 35.5049 131.171 35.5049 131.325V137.173C35.5049 137.53 35.6955 137.86 36.0049 138.039L41.0775 140.967Z" fill="url(#paint3_linear_23042_9418)" fill-opacity="0.2"/>
<path fill-rule="evenodd" clip-rule="evenodd" d="M48.495 131.31C48.495 131.156 48.3288 131.06 48.1954 131.136L42.5771 134.359V140.819C42.5771 140.973 42.7438 141.07 42.8771 140.993L47.995 138.038C48.3044 137.859 48.495 137.529 48.495 137.172V131.31Z" fill="#134CFF"/>
<path fill-rule="evenodd" clip-rule="evenodd" d="M48.495 131.31C48.495 131.156 48.3288 131.06 48.1954 131.136L42.5771 134.359V140.819C42.5771 140.973 42.7438 141.07 42.8771 140.993L47.995 138.038C48.3044 137.859 48.495 137.529 48.495 137.172V131.31Z" fill="url(#paint4_linear_23042_9418)" fill-opacity="0.2"/>
<path fill-rule="evenodd" clip-rule="evenodd" d="M42.5 126.788C42.1906 126.61 41.8094 126.61 41.5 126.788L36.3734 129.748C36.24 129.825 36.2401 130.018 36.3737 130.095L41.9774 133.32L47.6133 130.087C47.7471 130.011 47.7473 129.818 47.6138 129.741L42.5 126.788Z" fill="#134CFF"/>
<path fill-rule="evenodd" clip-rule="evenodd" d="M42.5 126.788C42.1906 126.61 41.8094 126.61 41.5 126.788L36.3734 129.748C36.24 129.825 36.2401 130.018 36.3737 130.095L41.9774 133.32L47.6133 130.087C47.7471 130.011 47.7473 129.818 47.6138 129.741L42.5 126.788Z" fill="url(#paint5_linear_23042_9418)" fill-opacity="0.2"/>
</g>
<path d="M95 84.1572H137V146.157C137 148.366 135.209 150.157 133 150.157H95V84.1572Z" fill="#709BFF"/>
<path d="M95 84.1572H137V146.157C137 148.366 135.209 150.157 133 150.157H95V84.1572Z" fill="url(#paint6_linear_23042_9418)" fill-opacity="0.6"/>
<path opacity="0.1" d="M104 93.1572H128V99.1572H104V93.1572Z" fill="#134CFF"/>
<path d="M107.553 65.8102C107.833 65.4016 108.296 65.1572 108.791 65.1572H147.156C148.362 65.1572 149.075 66.5087 148.394 67.5043L137 84.1572H95L107.553 65.8102Z" fill="#99B4FF"/>
<path d="M107.553 65.8102C107.833 65.4016 108.296 65.1572 108.791 65.1572H147.156C148.362 65.1572 149.075 66.5087 148.394 67.5043L137 84.1572H95L107.553 65.8102Z" fill="url(#paint7_linear_23042_9418)" fill-opacity="0.6"/>
<path fill-rule="evenodd" clip-rule="evenodd" d="M94.3913 33.2584C94.6163 32.8152 95.158 32.6383 95.6012 32.8632C96.1435 33.1385 96.7171 33.4475 97.3116 33.7876C97.743 34.0344 97.8927 34.5842 97.6459 35.0156C97.3991 35.4471 96.8493 35.5968 96.4178 35.35C95.8483 35.0242 95.301 34.7295 94.7865 34.4683C94.3433 34.2433 94.1664 33.7016 94.3913 33.2584ZM100.909 37.1777C101.21 36.7826 101.775 36.7069 102.17 37.0085C103.19 37.7873 104.198 38.6317 105.147 39.5308C105.508 39.8725 105.524 40.4422 105.182 40.8031C104.84 41.164 104.271 41.1796 103.91 40.8378C103.013 39.9882 102.054 39.1848 101.078 38.4392C100.683 38.1376 100.607 37.5728 100.909 37.1777ZM107.725 43.7756C108.144 43.5093 108.7 43.6337 108.967 44.0534C109.71 45.2241 110.3 46.4576 110.661 47.7372C110.796 48.2156 110.518 48.7128 110.039 48.8476C109.561 48.9825 109.064 48.7041 108.929 48.2257C108.625 47.1472 108.116 46.0731 107.447 45.0177C107.181 44.598 107.305 44.0419 107.725 43.7756ZM109.887 52.7467C110.349 52.9299 110.575 53.453 110.392 53.915C110.146 54.535 109.829 55.1501 109.438 55.7588C109.065 56.3392 108.641 56.8904 108.172 57.4152C107.84 57.7859 107.271 57.8178 106.901 57.4866C106.53 57.1554 106.498 56.5865 106.829 56.2158C107.241 55.7554 107.607 55.2793 107.924 54.7857C108.255 54.2699 108.518 53.7581 108.718 53.2516C108.902 52.7896 109.425 52.5635 109.887 52.7467ZM103.719 59.9871C103.977 60.4118 103.843 60.9655 103.418 61.2238C102.32 61.8923 101.141 62.5169 99.9075 63.109C99.4594 63.3241 98.9217 63.1352 98.7066 62.6871C98.4915 62.239 98.6804 61.7014 99.1285 61.4863C100.321 60.9137 101.446 60.317 102.482 59.6861C102.907 59.4278 103.461 59.5625 103.719 59.9871ZM94.9801 64.271C95.161 64.734 94.9323 65.2559 94.4693 65.4368C93.2646 65.9073 92.0376 66.3662 90.8066 66.8204C90.3402 66.9924 89.8227 66.7538 89.6507 66.2875C89.4787 65.8212 89.7172 65.3037 90.1836 65.1316C91.4104 64.679 92.6252 64.2246 93.8144 63.7601C94.2773 63.5793 94.7993 63.808 94.9801 64.271ZM85.8511 67.684C86.0268 68.149 85.7923 68.6683 85.3274 68.8441C84.1021 69.3071 82.8968 69.7767 81.7262 70.2609C81.2669 70.4509 80.7405 70.2326 80.5505 69.7732C80.3605 69.3139 80.5789 68.7876 81.0382 68.5976C82.2314 68.104 83.4552 67.6273 84.691 67.1603C85.156 66.9846 85.6754 67.219 85.8511 67.684ZM76.8751 71.4725C77.1107 71.9102 76.9468 72.456 76.5091 72.6916C75.346 73.3174 74.2682 73.9742 73.2962 74.6723C72.8925 74.9622 72.3302 74.87 72.0402 74.4663C71.7502 74.0626 71.8425 73.5002 72.2462 73.2103C73.2943 72.4575 74.4407 71.7606 75.6561 71.1065C76.0938 70.8709 76.6396 71.0348 76.8751 71.4725ZM69.155 77.3044C69.572 77.5749 69.6908 78.1322 69.4203 78.5492C69.0928 79.0542 68.8141 79.5783 68.5877 80.1239C68.323 80.7616 68.0736 81.3895 67.8388 82.0066C67.662 82.4712 67.1421 82.7045 66.6775 82.5277C66.213 82.3509 65.9797 81.831 66.1565 81.3665C66.3977 80.7327 66.6536 80.0883 66.9251 79.434C67.1958 78.7817 67.5265 78.1611 67.9101 77.5697C68.1806 77.1527 68.7379 77.0339 69.155 77.3044ZM65.3199 86.6666C65.7993 86.7979 66.0815 87.293 65.9502 87.7724C65.5653 89.1775 65.2613 90.4923 65.0241 91.7033C64.9286 92.1911 64.4557 92.5091 63.9679 92.4135C63.4801 92.318 63.1622 91.8451 63.2577 91.3573C63.5034 90.103 63.8175 88.7449 64.2141 87.2968C64.3454 86.8174 64.8405 86.5352 65.3199 86.6666ZM63.4178 96.7342C63.9146 96.7513 64.3035 97.1678 64.2864 97.6646C64.2578 98.4981 64.2789 99.1451 64.3238 99.5912C64.3736 100.086 64.0131 100.527 63.5185 100.577C63.0239 100.627 62.5827 100.266 62.5329 99.7715C62.4776 99.2222 62.457 98.4905 62.4875 97.6029C62.5045 97.1061 62.921 96.7172 63.4178 96.7342Z" fill="#99B2FF"/>
<path fill-rule="evenodd" clip-rule="evenodd" d="M99.6818 17.2412C100.135 16.2695 99.4517 15.1499 98.3803 15.1084L55.2924 13.4399C53.9641 13.3884 53.2303 14.9622 54.1234 15.9467L83.098 47.8814C83.8185 48.6755 85.1152 48.4792 85.5684 47.5074L91.7571 34.2357L73.3346 23.5998C73.123 23.4776 73.2734 23.155 73.503 23.2386L93.4924 30.5144L99.6818 17.2412Z" fill="#134CFF"/>
<path fill-rule="evenodd" clip-rule="evenodd" d="M99.6818 17.2412C100.135 16.2695 99.4517 15.1499 98.3803 15.1084L55.2924 13.4399C53.9641 13.3884 53.2303 14.9622 54.1234 15.9467L83.098 47.8814C83.8185 48.6755 85.1152 48.4792 85.5684 47.5074L91.7571 34.2357L73.3346 23.5998C73.123 23.4776 73.2734 23.155 73.503 23.2386L93.4924 30.5144L99.6818 17.2412Z" fill="url(#paint8_linear_23042_9418)" fill-opacity="0.2"/>
<path d="M24.0003 84.1572H95.0003L73.1887 107.865C72.4313 108.689 71.3637 109.157 70.245 109.157H6.69732C4.51991 109.157 3.38326 106.567 4.85749 104.965L24.0003 84.1572Z" fill="#F3F5FB"/>
<path d="M24.0003 84.1572H95.0003L73.1887 107.865C72.4313 108.689 71.3637 109.157 70.245 109.157H6.69732C4.51991 109.157 3.38326 106.567 4.85749 104.965L24.0003 84.1572Z" fill="url(#paint9_linear_23042_9418)"/>
<defs>
<linearGradient id="paint0_linear_23042_9418" x1="137" y1="98.6562" x2="156.423" y2="97.4316" gradientUnits="userSpaceOnUse">
<stop stop-color="white" stop-opacity="0"/>
<stop offset="1" stop-color="white"/>
</linearGradient>
<linearGradient id="paint1_linear_23042_9418" x1="40.5" y1="84.1567" x2="40.565" y2="65.1569" gradientUnits="userSpaceOnUse">
<stop stop-color="white" stop-opacity="0"/>
<stop offset="1" stop-color="white" stop-opacity="0.8"/>
</linearGradient>
<linearGradient id="paint2_linear_23042_9418" x1="59.5" y1="84.1572" x2="59.5" y2="127" gradientUnits="userSpaceOnUse">
<stop stop-color="#135AFF" stop-opacity="0.3"/>
<stop offset="1" stop-color="#135AFF" stop-opacity="0"/>
</linearGradient>
<linearGradient id="paint3_linear_23042_9418" x1="38.4412" y1="131.125" x2="38.4412" y2="140.994" gradientUnits="userSpaceOnUse">
<stop stop-color="white" stop-opacity="0"/>
<stop offset="0.421423" stop-color="white"/>
</linearGradient>
<linearGradient id="paint4_linear_23042_9418" x1="45.5361" y1="131.109" x2="45.5361" y2="141.02" gradientUnits="userSpaceOnUse">
<stop stop-color="white" stop-opacity="0"/>
<stop offset="0.421423" stop-color="white"/>
</linearGradient>
<linearGradient id="paint5_linear_23042_9418" x1="41.9936" y1="126.654" x2="41.9936" y2="133.32" gradientUnits="userSpaceOnUse">
<stop stop-color="white" stop-opacity="0"/>
<stop offset="0.421423" stop-color="white"/>
</linearGradient>
<linearGradient id="paint6_linear_23042_9418" x1="112" y1="84.1567" x2="112.511" y2="116.993" gradientUnits="userSpaceOnUse">
<stop stop-color="white" stop-opacity="0"/>
<stop offset="1" stop-color="white"/>
</linearGradient>
<linearGradient id="paint7_linear_23042_9418" x1="120.5" y1="84.1567" x2="120.435" y2="65.1569" gradientUnits="userSpaceOnUse">
<stop stop-color="white" stop-opacity="0"/>
<stop offset="1" stop-color="white"/>
</linearGradient>
<linearGradient id="paint8_linear_23042_9418" x1="50.24" y1="14.5971" x2="91.2848" y2="34.9411" gradientUnits="userSpaceOnUse">
<stop stop-color="white" stop-opacity="0"/>
<stop offset="1" stop-color="white"/>
</linearGradient>
<linearGradient id="paint9_linear_23042_9418" x1="48.0003" y1="84.1572" x2="48.0003" y2="109.157" gradientUnits="userSpaceOnUse">
<stop stop-color="#134CFF" stop-opacity="0.15"/>
<stop offset="1" stop-color="#134CFF" stop-opacity="0"/>
</linearGradient>
</defs>
</svg>
