<svg width="44" height="51" viewBox="0 0 44 51" fill="none" xmlns="http://www.w3.org/2000/svg">
<path d="M35.2663 14.5872L35.2383 17.404C35.2383 17.4544 35.2383 17.502 35.2327 17.5524H36.5235C38.2771 17.5546 39.9583 18.252 41.1986 19.4917C42.4388 20.7315 43.137 22.4124 43.1399 24.166V43.5952C43.1377 45.3493 42.4399 47.0309 41.1996 48.2712C39.9592 49.5115 38.2776 50.2093 36.5235 50.2116H7.38392C5.62982 50.2093 3.94821 49.5115 2.70787 48.2712C1.46754 47.0309 0.769742 45.3493 0.767519 43.5952V24.166C0.770483 22.4124 1.46861 20.7315 2.70886 19.4917C3.94911 18.252 5.63031 17.5546 7.38392 17.5524H9.11712L8.97712 17.5132L9.08352 14.6992C9.06672 11.0704 10.3351 7.70476 12.6507 5.22956C15.0307 2.68436 18.3711 1.27316 22.0559 1.25636C23.3159 1.25076 24.5423 1.40476 25.7043 1.70996C31.4863 3.23036 35.2383 8.28716 35.2663 14.5872ZM8.52632 14.6908C8.50952 10.9332 9.82272 7.43316 12.2419 4.84596C14.7339 2.18316 18.2199 0.715963 22.0531 0.696363C23.333 0.687935 24.6085 0.847019 25.8471 1.16956C31.8923 2.75996 35.7983 8.04916 35.8263 14.5844V14.5928L35.8039 16.9924H36.5235C38.4257 16.9946 40.2493 17.751 41.5946 19.0957C42.9398 20.4405 43.697 22.2638 43.6999 24.166V43.5952C43.6977 45.4978 42.9409 47.3218 41.5955 48.6672C40.2502 50.0125 38.4261 50.7693 36.5235 50.7716H7.38392C5.4813 50.7693 3.65725 50.0125 2.31189 48.6672C0.966539 47.3218 0.209743 45.4978 0.20752 43.5952V24.166C0.210483 22.2638 0.967607 20.4405 2.31288 19.0957C3.65816 17.751 5.48179 16.9946 7.38392 16.9924H8.43672L8.52352 14.6908H8.52632ZM31.7495 14.6012C31.7271 9.94476 28.9943 6.21796 24.7831 5.10916C23.8981 4.8802 22.9869 4.76819 22.0727 4.77596C16.5595 4.80396 12.5751 8.97036 12.6031 14.688L12.4939 17.5524H31.7271C31.7237 17.5076 31.7218 17.4628 31.7215 17.418L31.7495 14.6012ZM31.1643 16.9924L31.1923 14.6012C31.1671 10.1744 28.5827 6.68836 24.6403 5.65236C23.802 5.43515 22.9387 5.32877 22.0727 5.33596C16.8899 5.35836 13.1379 9.25596 13.1631 14.688V14.7104L13.0763 16.9924H31.1643ZM36.5235 46.132C37.9235 46.132 39.0631 44.9952 39.0631 43.5952V24.166C39.0631 22.766 37.9235 21.6292 36.5235 21.6292H7.38392C5.98392 21.6292 4.84432 22.7688 4.84432 24.166V43.5952C4.84432 44.9952 5.98392 46.132 7.38392 46.132H36.5235ZM18.0155 30.6424C18.0138 29.9673 18.1855 29.3031 18.5141 28.7135C18.8427 28.1238 19.3172 27.6284 19.8921 27.2746C20.4671 26.9209 21.1232 26.7208 21.7977 26.6933C22.4722 26.6659 23.1425 26.8121 23.7442 27.118C24.346 27.4239 24.8592 27.8791 25.2345 28.4402C25.6099 29.0012 25.835 29.6493 25.8881 30.3222C25.9412 30.9952 25.8206 31.6705 25.5379 32.2835C25.2552 32.8965 24.8199 33.4267 24.2735 33.8232V38.7372C24.2526 39.3385 23.9991 39.9082 23.5663 40.3261C23.1335 40.7441 22.5554 40.9778 21.9537 40.9778C21.3521 40.9778 20.7739 40.7441 20.3411 40.3261C19.9084 39.9082 19.6548 39.3385 19.6339 38.7372V33.826C19.133 33.4598 18.7253 32.9808 18.4442 32.4276C18.163 31.8745 18.0161 31.2629 18.0155 30.6424ZM20.1939 33.5264C19.5688 33.1406 19.0862 32.5618 18.8192 31.8775C18.5522 31.1932 18.5152 30.4405 18.7138 29.7333C18.9124 29.0261 19.3359 28.4028 19.9202 27.9576C20.5044 27.5124 21.2178 27.2694 21.9523 27.2656C22.6871 27.2688 23.4009 27.5113 23.9856 27.9563C24.5703 28.4013 24.9943 29.0246 25.1932 29.732C25.3922 30.4393 25.3554 31.1923 25.0885 31.8768C24.8215 32.5614 24.3388 33.1405 23.7135 33.5264V38.7372C23.6954 39.1917 23.502 39.6217 23.174 39.9369C22.846 40.2521 22.4087 40.4282 21.9537 40.4282C21.4988 40.4282 21.0615 40.2521 20.7334 39.9369C20.4054 39.6217 20.2121 39.1917 20.1939 38.7372V33.5292V33.5264ZM36.5235 46.692C38.2315 46.692 39.6231 45.3032 39.6231 43.5952V24.166C39.6231 22.458 38.2315 21.0692 36.5235 21.0692H7.38392C5.67592 21.0692 4.28432 22.458 4.28432 24.166V43.5952C4.28432 45.3032 5.67592 46.692 7.38392 46.692H36.5235Z" fill="#E6E6E6"/>
</svg>
