<svg width="302" height="146" viewBox="0 0 302 146" fill="none" xmlns="http://www.w3.org/2000/svg">
<path d="M3.74788 144.9L3.24722 142.97C3.11006 142.441 3.41803 141.901 3.94521 141.758C44.448 130.787 96.5067 130.38 115.427 131.337C120.388 131.337 123.156 138.753 113.866 138.753C109.135 138.981 82.7635 141.473 78.2486 142.017C83.1145 141.835 98 142.561 100.823 143L101.5 145.5C99 145.5 77.5564 144.472 60.5 145.5C60.5 145.5 55.0534 143.658 56.6773 142.561C60.1392 136.911 100.823 135.49 100.823 135.49C80.4789 135.49 34.613 137.618 4.9752 145.618C4.43557 145.764 3.88825 145.441 3.74788 144.9Z" fill="url(#paint0_linear_63_2978)"/>
<path fill-rule="evenodd" clip-rule="evenodd" d="M65.9691 0.00146484L62.0801 0.0292946L62.0938 1.95506H54.4892L54.4752 0.00237106L50.5862 0.0302008L50.6 1.95506H46.6417V5.84419H52.3265L52.363 13.3184H46.6417V17.2075H69.6477V13.3184H63.9632L63.9267 5.84419H69.6477V1.95506H65.9831L65.9691 0.00146484ZM60.074 13.3184L60.0375 5.84419H56.2157L56.2522 13.3184H60.074ZM9.39096 7.12053H14.8499V11.0097H10.3505C11.1043 11.8424 12.4494 12.7213 14.8499 13.177V17.1191C11.5868 16.6305 9.10302 15.4584 7.4464 13.6123C5.78977 15.4584 3.30599 16.6305 0.0429151 17.1191V13.177C2.44343 12.7213 3.78853 11.8424 4.54225 11.0097H0.0464507V7.12053H5.50183V5.12647H0.0323084L0.000488281 0.0140364H3.88961L3.89669 1.23734H14.758V5.12647H9.39096V7.12053ZM26.6516 13.3467V5.00626H20.1709V13.3467H26.6516ZM16.2818 1.11713H30.5407V17.2358H16.2818V1.11713ZM25.2374 28.044V30.0593H5.34981V28.044H25.2374ZM25.2374 24.5085V22.4861L25.2409 22.3659L5.34981 22.4861V24.5085H25.2374ZM29.13 18.597H1.46068V33.9484H29.13V18.597ZM64.6696 28.044V30.0593H51.3652V28.044H64.6696ZM64.6696 24.5085V22.4861H51.3652V24.5085H64.6696ZM68.5587 18.597H47.4761V33.9484H68.5587V18.597ZM45.6977 33.9661H39.5176V11.0097H37.6119V7.12053H43.4067V30.077H45.6977V33.9661ZM44.0466 2.71521C44.0466 4.19531 42.8468 5.39517 41.3666 5.39517C39.8865 5.39517 38.6867 4.19531 38.6867 2.71521C38.6867 1.23511 39.8865 0.0352498 41.3666 0.0352498C42.8468 0.0352498 44.0466 1.23511 44.0466 2.71521ZM46.7054 7.02861L48.0878 12.1446H51.6834L50.301 7.02861H46.7054ZM69.6512 7.02861L68.2653 12.1446H64.6696L66.0555 7.02861H69.6512ZM96.1723 24.3417L100.107 34.0015H105.375L92.3213 1.95506H86.378L73.3282 34.0015H78.5962L82.5305 24.3417H96.1723ZM94.3954 19.9788L89.3514 7.5943L84.3074 19.9788H94.3954ZM112.637 2.12831H107.811V34.0015H112.637V2.12831Z" fill="#0C2561"/>
<path fill-rule="evenodd" clip-rule="evenodd" d="M146.837 48.2686V52.457H142.278V63.0067H146.788V67.1986H143.364C144.025 67.9637 145.083 68.7671 146.788 69.3714V74.3284C143.724 73.5564 141.349 72.194 139.7 70.2378C139.497 69.9967 139.323 69.7592 139.155 69.5217V73.3258H133.363V75.6104H146.788V79.8023H133.363V79.8827H128.472V79.8023H115.048V75.6104H128.472V73.3258H122.73V69.6264C122.551 69.8884 122.356 70.1504 122.136 70.4124C120.487 72.3687 118.111 73.7345 115.048 74.5031V69.5461C116.882 68.8999 117.968 68.0161 118.614 67.2021H115.048V63.0102H119.558V52.4605H115.048V48.2686H119.558V46.1726H124.305V48.2686H137.531V46.0015H142.278V48.2686H146.837ZM124.305 58.2733H137.531V57.2009H124.305V58.2733ZM133.363 69.4902H139.127C138.568 68.6798 138.201 67.8938 137.967 67.2056H123.928C123.708 67.8868 123.369 68.6728 122.831 69.4902H128.472V68.0685H133.363V69.4902ZM124.305 62.1159V63.0137H137.531V62.1159H124.305ZM124.305 53.3583H137.531V52.4605H124.305V53.3583ZM106.633 53.7775L104.502 46.1412H99.4224L101.557 53.7775H106.633ZM16.4573 67.2056V63.0137H10.6759V60.7326H16.4573V56.5407H12.9081L14.012 52.4605H16.4573V48.2686H10.3266V46.1726H6.13467V48.2686H0.000488281V52.4605H2.44578L3.54965 56.5407H0.000488281V60.7326H5.78185V63.0137H0.000488281V67.2056H5.78185V79.8547H10.6724V67.2056H16.4538H16.4573ZM10.4593 52.4605L10.3266 52.9566V52.4605H10.4593ZM6.13467 52.4605V52.9566L5.99843 52.4605H6.13467ZM6.22899 53.3094H10.2323L9.35896 56.5407H7.10231L6.22899 53.3094ZM31.7892 48.2686V52.4605H22.6229V56.5407H31.7892V60.7326H29.9797V80.0015H25.7878V60.7326H22.6229V79.7954H17.7323V48.2686H19.7864H22.6229H31.7892ZM38.7828 59.8418H68.9122V64.0337H38.7828V59.8418ZM13.3762 79.8513L11.5527 69.2282H15.5106L17.3341 79.8513H13.3762ZM3.95836 69.2282H0.000488281V79.8548H3.95836V69.2282ZM191.924 57.3336H205.44L205.44 46.1761L205.44 46.1726H210.33V57.3336H223.664V62.0076H210.768C211.223 64.8783 212.149 68.539 214.033 70.4779C216.314 72.8254 219.633 75.0166 223.895 75.0166V79.9071H223.891C218.236 79.9071 213.726 77.2059 210.487 73.8489C209.405 72.7283 208.554 71.4189 207.885 70.0436C207.216 71.4199 206.365 72.7305 205.283 73.8524C202.044 77.2094 197.534 79.9106 191.879 79.9106L191.875 79.9071V75.0166C196.151 75.0166 199.48 72.8184 201.761 70.4534C203.908 68.2294 204.804 64.6776 205.177 62.0076H191.924V57.3336ZM79.4165 46.1726H76.2726V51.0632H79.4165V79.8897H84.3071V46.1726H83.8355H79.4165ZM96.5021 60.7961C96.5007 60.9949 96.4551 67.6205 100.278 71.5163H100.275C102.193 73.469 104.736 74.4192 108.058 74.4192V79.3098C103.405 79.3098 99.6041 77.8287 96.7571 74.9118C91.622 69.6474 91.601 61.557 91.6115 60.7326H85.6066V56.5407H91.6115V46.1726H96.5021V56.5407H108.061V60.7326H96.5021V60.792L96.5021 60.7961ZM184.889 52.4605V48.2686H174.245V46.0015H169.354V48.2686H158.714H156.953H153.823V79.8897H158.714V66.8423L162.672 66.8423L163.814 62.4268L165.396 66.8423H169.354V69.4902H161.854V73.3328H169.354V75.6174H159.37V79.8093H169.354V79.8897H174.245V79.8093H184.599V75.6174H174.245V73.3328H182.119V69.4902H174.245V66.8703H178.206L179.348 62.4548L180.927 66.8703H184.889L181.085 56.2437H180.955L181.658 53.519H177.7L174.245 66.8703V53.3583H169.354V66.8423L165.55 56.2193H165.421L166.126 53.4945H162.165L158.714 66.8423V52.4605H184.889ZM260.473 48.2686L260.462 46.0015L256.62 46.0643L256.63 48.2686H250.513L250.503 46.0015L246.66 46.0643L246.671 48.2686H243.803V52.4605H246.692L246.699 54.0535L250.541 53.9941L250.534 52.4605H256.651L256.658 54.0535L260.501 53.9941L260.494 52.4605H262.663V48.2686H260.473ZM239.614 52.4605V54.9862L242.818 65.5917H239.614V79.8897H235.073V52.4605H230.773V48.2686H235.073V46.1726H239.614V48.2686H242.678V52.4605H239.614ZM234.444 54.0535H230.822V79.8897H234.444V54.0535ZM251.111 67.8658H243.803V54.9687H262.659V67.8624H255.383V68.9033H262.659V72.7459H256.054C257.025 73.7415 259.093 75.296 262.562 75.9528V79.8478C259.222 79.3517 255.09 78.15 253.458 76.2148C253.388 76.1309 253.318 76.0436 253.252 75.9598L253.233 75.9838L253.233 75.984C253.177 76.0556 253.123 76.1247 253.063 76.1938C251.432 78.1291 247.139 79.3517 243.803 79.8513V75.9563C247.272 75.2995 249.497 73.745 250.562 72.7494H243.803V68.9068H251.111V67.8658ZM247.645 63.1639V64.0232H258.817V63.1639H247.645ZM258.817 59.6706V58.8113H247.645V59.6706H258.817ZM299.814 66.231H300.796V46.1552H295.905V61.3404H289.617V66.231H295.905H299.814ZM300.914 68.9068V72.7494H287.759V75.6174H301.796V79.8093H287.759H282.868H269.562V75.6174H282.868V72.7494H269.709V68.9068H282.868V67.279H287.759V68.9068H300.914ZM271.456 66.231H275.647V59.3353H281.82V66.231H286.012V59.3353H287.759V55.1434H286.012V50.5252H287.759V46.3333H269.709V50.5252H271.456V55.1434H269.709V59.3353H271.456V66.231ZM275.647 50.5252H281.82V55.1434H275.647V50.5252ZM289.617 46.1482H293.809V59.3353H289.617V46.1482Z" fill="url(#paint1_linear_63_2978)"/>
<path fill-rule="evenodd" clip-rule="evenodd" d="M9.7514 127.893C11.7385 128.631 13.8959 129 16.2236 129C18.9488 129 21.39 128.56 23.5474 127.68C25.7049 126.8 27.5784 125.707 29.1681 124.401V110.988H15.4572V117.035H21.3333V120.654C20.0842 121.477 18.4946 121.889 16.5643 121.889C15.372 121.889 14.2791 121.69 13.2856 121.293C12.3204 120.867 11.4688 120.299 10.7307 119.59C10.0211 118.852 9.46753 117.972 9.07011 116.95C8.6727 115.928 8.47399 114.821 8.47399 113.628V113.543C8.47399 112.408 8.6727 111.343 9.07011 110.35C9.46753 109.356 10.0069 108.49 10.6882 107.752C11.3695 107.014 12.1643 106.432 13.0727 106.007C14.0094 105.581 15.0172 105.368 16.0959 105.368C17.572 105.368 18.8636 105.609 19.9707 106.092C21.1062 106.574 22.2133 107.27 23.292 108.178L28.1461 102.345C26.5565 100.982 24.7965 99.9176 22.8662 99.1511C20.9642 98.3847 18.6933 98.0015 16.0533 98.0015C13.754 98.0015 11.6107 98.3989 9.62366 99.1937C7.66496 99.9886 5.97594 101.096 4.55659 102.515C3.13724 103.906 2.01596 105.552 1.19274 107.454C0.397905 109.328 0.000488281 111.343 0.000488281 113.501V113.586C0.000488281 115.857 0.412099 117.943 1.23532 119.845C2.05854 121.719 3.19402 123.337 4.64175 124.699C6.08948 126.062 7.7927 127.126 9.7514 127.893ZM134.924 116.48V107.922L127.813 116.48H134.924ZM134.924 122.612H120.49L119.127 116.779L134.584 98.3838H142.929V116.438H146.719V122.612H142.929V128.403H134.924V122.612ZM99.2624 112.865H113.229V118.109H99.2624V112.865ZM68.7151 98.5972H59.9861V128.404H68.0764V111.371L75.6557 122.953H75.826L83.4479 111.286V128.404H91.6659V98.5972H82.9369L75.826 110.137L68.7151 98.5972ZM33.7476 98.5972H42.0082V121.165H56.4429V128.404H33.7476V98.5972Z" fill="url(#paint2_linear_63_2978)"/>
<path d="M161.712 112.896L162.576 112.96L162.336 115.248H172.24V116.096H162.256L161.952 118.944H171.024C171.024 123.2 170.72 125.664 170.144 126.336C169.536 126.976 168.272 127.312 166.352 127.312C165.856 127.312 165.344 127.296 164.816 127.28L164.56 126.48C165.328 126.512 165.856 126.544 166.16 126.544C168.048 126.544 169.184 126.224 169.568 125.584C169.952 124.912 170.16 122.96 170.16 119.76H160.976L161.712 112.896ZM158.816 122.592H167.888V123.44H158.816V122.592ZM174.976 119.648H181.648V115.264C179.984 115.408 178.176 115.488 176.256 115.488L175.984 114.672C180.656 114.656 184.48 114.208 187.456 113.344L187.888 114.112C186.352 114.592 184.56 114.944 182.512 115.168V119.648H189.024V120.496H182.512V127.52H181.648V120.496H174.976V119.648ZM196.848 114.096H204.4V114.944H196.848V114.096ZM196.384 118.208H205.136V119.056H202.48V126.208C202.48 127.056 201.984 127.488 201.024 127.488H198.672L198.48 126.656C199.264 126.688 200.016 126.72 200.736 126.72C201.312 126.72 201.6 126.48 201.6 126V119.056H196.384V118.208ZM194.48 113.12L195.264 113.488C194.352 115.28 192.928 116.848 190.976 118.176L190.704 117.312C192.448 116.08 193.712 114.688 194.48 113.12ZM195.248 116.768L196.016 117.136C195.52 118.096 194.912 118.992 194.176 119.824V127.568H193.328V120.704C192.624 121.344 191.872 121.952 191.056 122.512L190.784 121.648C192.848 120.208 194.336 118.592 195.248 116.768ZM219.36 117.36V127.552H218.496V126.8H209.616V127.552H208.752V117.36H212.816C213.072 116.48 213.264 115.552 213.376 114.56H206.848V113.712H221.184V114.56H214.24C214.112 115.536 213.92 116.464 213.664 117.36H219.36ZM209.616 125.952H218.496V122.448H209.616V125.952ZM209.616 121.632H218.496V118.208H209.616V121.632ZM227.84 113.152H228.688V125.968H231.28V113.152H232.128V125.968H237.04V126.816H222.96V125.968H227.84V113.152ZM235.776 116.016L236.544 116.224C235.904 119.04 235.088 121.488 234.08 123.6L233.296 123.312C234.24 121.392 235.072 118.96 235.776 116.016ZM224.144 115.968C224.992 118.16 225.744 120.672 226.416 123.504L225.616 123.696C225.04 121.12 224.288 118.624 223.392 116.224L224.144 115.968ZM239.712 116.32H242.72V112.864H243.584V116.32H248.416V112.928H249.28V116.32H252.304V117.152H249.28V121.296H253.104V122.144H238.896V121.296H242.72V117.152H239.712V116.32ZM243.584 121.296H248.416V117.152H243.584V121.296ZM243.872 122.928L244.528 123.504C243.184 125.024 241.504 126.352 239.52 127.504L238.928 126.736C240.88 125.648 242.528 124.368 243.872 122.928ZM248.24 122.96C250.16 124.24 251.76 125.536 253.056 126.816L252.368 127.472C251.2 126.24 249.616 124.928 247.616 123.552L248.24 122.96ZM261.024 118.928H257.28V125.952C257.28 126.304 257.472 126.48 257.872 126.48H261.136C261.744 126.48 262.112 126.336 262.256 126.048C262.416 125.696 262.544 125.056 262.608 124.128L263.424 124.416C263.328 125.728 263.12 126.56 262.832 126.896C262.576 127.152 262.064 127.296 261.328 127.296H257.584C256.8 127.296 256.416 126.928 256.416 126.192V118.144H261.872V122.272C261.872 123.104 261.456 123.552 260.624 123.584C260.016 123.584 259.424 123.552 258.864 123.52L258.64 122.72C259.248 122.752 259.808 122.784 260.352 122.784C260.8 122.784 261.024 122.544 261.024 122.064V118.928ZM258.944 113.152H259.616C260.992 114.624 262.336 116.192 263.648 117.856L263.072 118.448C261.68 116.624 260.448 115.136 259.36 113.968C258.112 115.808 256.704 117.456 255.136 118.912L254.624 118.224C256.208 116.768 257.648 115.072 258.944 113.152ZM264.752 114.384H265.6V124.416H264.752V114.384ZM267.36 127.408H264.832L264.64 126.592C265.488 126.624 266.288 126.64 267.056 126.64C267.472 126.64 267.68 126.4 267.68 125.92V113.024H268.544V126.144C268.544 126.976 268.144 127.408 267.36 127.408ZM270.832 117.328H272.672V113.04H273.52V117.328H275.232V118.16H273.52V123.84C274.192 123.568 274.864 123.264 275.504 122.928V123.792C274.112 124.496 272.608 125.088 270.976 125.536L270.752 124.704C271.408 124.544 272.048 124.352 272.672 124.144V118.16H270.832V117.328ZM278.384 112.992C278.64 113.6 278.896 114.304 279.12 115.072H281.6C281.904 114.368 282.128 113.632 282.256 112.864L283.104 112.976C282.944 113.728 282.72 114.432 282.432 115.072H284.656V120.256H276.048V115.072H278.304C278.064 114.368 277.808 113.728 277.52 113.152L278.384 112.992ZM283.888 119.536V115.84H280.672V119.536H283.888ZM279.968 119.536V115.84H276.816V119.536H279.968ZM278.32 116.592C278.608 117.2 278.88 117.904 279.12 118.688L278.528 118.848C278.304 118.144 278.048 117.456 277.728 116.784L278.32 116.592ZM282.288 116.512L282.912 116.672C282.688 117.504 282.416 118.256 282.096 118.896L281.504 118.688C281.792 118.112 282.064 117.392 282.288 116.512ZM284.08 121.488V127.568H283.248V126.832H277.52V127.568H276.688V121.488H284.08ZM277.52 126.096H283.248V124.512H277.52V126.096ZM277.52 123.808H283.248V122.208H277.52V123.808ZM288.56 119.648H299.472V123.664H294.416V124.704H299.952V125.328H294.416V126.416H301.136V127.12H286.864V126.416H293.552V125.328H288.08V124.704H293.552V123.664H288.56V119.648ZM298.656 123.088V121.952H294.416V123.088H298.656ZM293.552 123.088V121.952H289.376V123.088H293.552ZM289.376 121.408H293.552V120.224H289.376V121.408ZM294.416 120.224V121.408H298.656V120.224H294.416ZM288.912 113.248H299.136V117.12H288.912V113.248ZM298.304 116.544V115.456H289.744V116.544H298.304ZM289.744 114.896H298.304V113.824H289.744V114.896ZM286.864 118.064H301.136V118.736H286.864V118.064Z" fill="#10265E"/>
<defs>
<linearGradient id="paint0_linear_63_2978" x1="2.97454" y1="143.439" x2="90.6632" y2="143.439" gradientUnits="userSpaceOnUse">
<stop stop-color="#7AF2FF"/>
<stop offset="1" stop-color="#2A85FF"/>
</linearGradient>
<linearGradient id="paint1_linear_63_2978" x1="311.159" y1="93.6945" x2="51.2294" y2="32.4393" gradientUnits="userSpaceOnUse">
<stop stop-color="#1050BB"/>
<stop offset="1" stop-color="#0C2561"/>
</linearGradient>
<linearGradient id="paint2_linear_63_2978" x1="191.5" y1="132" x2="18.0003" y2="97.9999" gradientUnits="userSpaceOnUse">
<stop stop-color="#005CE4"/>
<stop offset="0.942768" stop-color="#0D2D72"/>
</linearGradient>
</defs>
</svg>
