<svg width="251" height="110" viewBox="0 0 251 110" fill="none" xmlns="http://www.w3.org/2000/svg">
<path d="M126 1.49548C111.333 19.0008 97.3999 54.1106 159 54.5069C220.6 54.9032 245.333 74.1591 250 83.7375" stroke="#C7C0FD" stroke-opacity="0.2"/>
<path d="M97.5001 1C94.5001 12.395 101.5 35.8785 153.5 38.653C205.5 41.4274 239.167 49.0571 249.5 52.5251" stroke="#C7C0FD" stroke-opacity="0.2"/>
<path d="M91.5 1C89.3333 9.58752 100.6 28.0507 163 33.2032C225.4 38.3557 246.667 43.6073 249.5 45.589" stroke="#C7C0FD" stroke-opacity="0.2"/>
<path d="M88.5 1C93.1667 6.94521 112.1 19.7274 150.5 23.2945C188.9 26.8616 232.5 32.7078 249.5 35.1849" stroke="#C7C0FD" stroke-opacity="0.2"/>
<path d="M2.49996 1.49548C1.16662 13.0556 6.69995 38.2567 39.5 46.58C72.3 54.9032 71.8333 73.1682 67.5 81.2603C64.1667 87.0404 55.1 100.78 45.5 109.5" stroke="#C7C0FD" stroke-opacity="0.2"/>
<path d="M1 34.1941C22 39.6439 60 57.1822 44 83.7375C28 110.293 26 109.005 25 109.5M6.5 109.5C14 101.408 28.6 81.1612 27 64.911C25.4 48.6608 8.66667 39.9742 0.5 37.6621" stroke="#C7C0FD" stroke-opacity="0.2"/>
<path d="M1 45.5891C7.33333 51.6994 16.3 69.469 1.5 91.6644" stroke="#C7C0FD" stroke-opacity="0.2"/>
<path d="M109 1C99.6668 15.5327 98.0002 47.5708 166.5 47.5708C235 47.5708 249.5 64.911 249.5 64.911" stroke="#C7C0FD" stroke-opacity="0.2"/>
<path d="M102 1C110.667 4.96347 138.2 13.4849 179 15.863C219.8 18.2411 243.333 22.1385 250 23.79" stroke="#C7C0FD" stroke-opacity="0.2"/>
</svg>
