<svg width="376" height="250" viewBox="0 0 376 250" fill="none" xmlns="http://www.w3.org/2000/svg">
<g clip-path="url(#clip0_6233_10673)">
<rect x="1" width="375" height="250" rx="10" fill="url(#paint0_linear_6233_10673)"/>
<mask id="mask0_6233_10673" style="mask-type:alpha" maskUnits="userSpaceOnUse" x="0" y="0" width="376" height="250">
<rect width="376" height="250" rx="10" fill="#D9D9D9"/>
</mask>
<g mask="url(#mask0_6233_10673)">
<path d="M379 115C483.934 115 569 29.9341 569 -75C569 -179.934 483.934 -265 379 -265C274.066 -265 189 -179.934 189 -75C189 29.9341 274.066 115 379 115Z" fill="url(#paint1_linear_6233_10673)"/>
<path d="M391 80C452.304 80 502 30.3036 502 -31C502 -92.3036 452.304 -142 391 -142C329.696 -142 280 -92.3036 280 -31C280 30.3036 329.696 80 391 80Z" fill="url(#paint2_linear_6233_10673)"/>
</g>
</g>
<defs>
<linearGradient id="paint0_linear_6233_10673" x1="308.827" y1="144.832" x2="379.261" y2="-10.5409" gradientUnits="userSpaceOnUse">
<stop stop-color="white"/>
<stop offset="1" stop-color="#ECF1FF"/>
</linearGradient>
<linearGradient id="paint1_linear_6233_10673" x1="398.64" y1="115" x2="231.44" y2="-19.1238" gradientUnits="userSpaceOnUse">
<stop stop-color="#134CFF" stop-opacity="0.08"/>
<stop offset="1" stop-color="white" stop-opacity="0.04"/>
</linearGradient>
<linearGradient id="paint2_linear_6233_10673" x1="356.843" y1="70.9594" x2="280" y2="-31" gradientUnits="userSpaceOnUse">
<stop stop-color="#134CFF" stop-opacity="0.08"/>
<stop offset="1" stop-color="white" stop-opacity="0.04"/>
</linearGradient>
<clipPath id="clip0_6233_10673">
<rect width="376" height="250" fill="white"/>
</clipPath>
</defs>
</svg>
