<svg width="31" height="31" viewBox="0 0 31 31" fill="none" xmlns="http://www.w3.org/2000/svg">
<g id="Frame">
<path id="Vector" opacity="0.5" d="M20.375 5.20003L10.9053 10.6148L8.05713 8.95808C8.35172 8.44806 8.7719 8.02189 9.2777 7.72009L15.7169 3.92103C16.798 3.31075 18.1231 3.47586 19.2042 4.08614L18.9534 3.92106C19.4591 4.22271 20.0803 4.69088 20.375 5.20003Z" fill="white"/>
<path id="Vector_2" d="M10.904 10.6147V27.1795C10.3544 27.1788 9.8119 27.0535 9.31738 26.8134C8.78811 26.5072 8.34852 26.0674 8.04253 25.5381C7.73654 25.0086 7.57487 24.4083 7.57373 23.7969V10.7193C7.5766 10.1016 7.73875 9.49504 8.04451 8.95825L10.904 10.6147Z" fill="white" fill-opacity="0.75"/>
<path id="Vector_3" fill-rule="evenodd" clip-rule="evenodd" d="M20.7823 10.5874V6.90124C20.7789 6.28398 20.6166 5.67718 20.3115 5.14014L10.9014 10.6088L10.9084 10.61L20.7823 10.5874Z" fill="white"/>
<path id="Vector_4" opacity="0.5" d="M21.2107 10.5862L10.8877 10.6099V27.1797L21.2107 27.1561C22.6551 27.1561 23.8261 25.9851 23.8261 24.5406V13.2017C23.8261 11.7572 22.7508 10.8435 21.2107 10.5862Z" fill="white"/>
</g>
</svg>
