<svg width="31" height="31" viewBox="0 0 31 31" fill="none" xmlns="http://www.w3.org/2000/svg">
<g id="Frame">
<g id="Group 427321629">
<path id="Vector" opacity="0.25" d="M26.3759 9.2901L16.2212 15.1633L6.06641 9.2901C6.27487 8.92919 6.5722 8.62762 6.93011 8.41406L14.9873 3.76237C15.7523 3.33051 16.69 3.33051 17.455 3.76237L25.5122 8.41406C25.87 8.62752 26.1674 8.92981 26.3759 9.2901Z" fill="white"/>
<path id="Vector_2" opacity="0.5" d="M16.2213 15.1633V26.885C15.8323 26.8844 15.4484 26.7959 15.0985 26.6259L6.96727 21.9249C6.59275 21.7082 6.28167 21.397 6.06514 21.0224C5.84861 20.6478 5.73422 20.2229 5.7334 19.7903V10.5362C5.73544 10.0991 5.85018 9.66988 6.06654 9.29004L16.2213 15.1633Z" fill="white"/>
<path id="Vector_3" d="M26.7091 10.5362V19.7903C26.7083 20.2229 26.5939 20.6478 26.3773 21.0224C26.1608 21.397 25.8497 21.7082 25.4752 21.9249L17.307 26.6382C16.9677 26.7986 16.5963 26.8826 16.2212 26.885V15.1633L26.3759 9.29004C26.5919 9.67007 26.7066 10.0995 26.7091 10.5362Z" fill="white"/>
</g>
</g>
</svg>
