<svg width="15" height="16" viewBox="0 0 15 16" fill="none" xmlns="http://www.w3.org/2000/svg">
<g id="Frame">
<path id="Vector" d="M6.82737 1.48208L2.25237 4.01958C2.1385 4.0795 2.04316 4.16939 1.97666 4.27954C1.91015 4.38969 1.875 4.51591 1.875 4.64458C1.875 4.77325 1.91015 4.89948 1.97666 5.00963C2.04316 5.11978 2.1385 5.20966 2.25237 5.26958L6.82737 7.80083C7.03777 7.91739 7.27434 7.97854 7.51487 7.97854C7.75539 7.97854 7.99197 7.91739 8.20237 7.80083L12.7774 5.25708C12.8895 5.19571 12.983 5.1053 13.0482 4.99534C13.1134 4.88538 13.1478 4.75991 13.1478 4.63208C13.1478 4.50426 13.1134 4.37879 13.0482 4.26882C12.983 4.15886 12.8895 4.06845 12.7774 4.00708L8.20237 1.48208C7.99314 1.36201 7.7561 1.29883 7.51487 1.29883C7.27363 1.29883 7.0366 1.36201 6.82737 1.48208Z" fill="url(#paint0_linear_7657_2489)"/>
<path id="Vector_2" d="M8.09634 10.6759C7.9116 10.7777 7.70412 10.831 7.49321 10.831C7.2823 10.831 7.07482 10.7777 6.89009 10.6759L2.17759 7.98842C2.11323 7.95264 2.05662 7.90444 2.01103 7.84662C1.96544 7.78879 1.93179 7.7225 1.91202 7.65157C1.89225 7.58064 1.88677 7.50649 1.89587 7.43342C1.90498 7.36035 1.92851 7.28982 1.96509 7.22592C2.00034 7.16186 2.04787 7.10537 2.10497 7.0597C2.16208 7.01403 2.22762 6.98007 2.29786 6.95975C2.3681 6.93943 2.44165 6.93316 2.51432 6.9413C2.58698 6.94943 2.65733 6.97182 2.72134 7.00717L7.19009 9.50717C7.2851 9.56202 7.39288 9.5909 7.50259 9.5909C7.6123 9.5909 7.72008 9.56202 7.81509 9.50717L12.3338 7.00717C12.3976 6.97097 12.468 6.9479 12.5409 6.93932C12.6138 6.93074 12.6876 6.93682 12.7581 6.95721C12.8285 6.97759 12.8942 7.01186 12.9512 7.05801C13.0082 7.10416 13.0555 7.16125 13.0901 7.22592C13.1618 7.35613 13.179 7.50942 13.138 7.65229C13.097 7.79516 13.0011 7.91601 12.8713 7.98842L8.09634 10.6759Z" fill="url(#paint1_linear_7657_2489)"/>
<path id="Vector_3" d="M6.94615 13.6439L2.17739 10.9689C2.04759 10.8965 1.95172 10.7757 1.91073 10.6328C1.86974 10.4899 1.88697 10.3367 1.95864 10.2064C2.03105 10.0766 2.1519 9.98077 2.29477 9.93978C2.43764 9.89879 2.59093 9.91602 2.72114 9.9877L7.25864 12.5502C7.34907 12.5983 7.44995 12.6235 7.55239 12.6235C7.65484 12.6235 7.75572 12.5983 7.84615 12.5502L12.3211 10.1689C12.453 10.1007 12.6065 10.0874 12.7482 10.1319C12.8899 10.1763 13.0082 10.2751 13.0774 10.4064C13.1461 10.5376 13.1604 10.6905 13.1171 10.8321C13.0738 10.9736 12.9765 11.0924 12.8461 11.1627L8.13365 13.6627C7.94968 13.7583 7.74482 13.8066 7.53753 13.8034C7.33023 13.8001 7.127 13.7453 6.94615 13.6439Z" fill="url(#paint2_linear_7657_2489)"/>
</g>
<defs>
<linearGradient id="paint0_linear_7657_2489" x1="1.875" y1="3.576" x2="13.1478" y2="3.576" gradientUnits="userSpaceOnUse">
<stop stop-color="#134CFF"/>
<stop offset="1" stop-color="#9747FF"/>
</linearGradient>
<linearGradient id="paint1_linear_7657_2489" x1="1.8916" y1="8.26356" x2="13.1598" y2="8.26356" gradientUnits="userSpaceOnUse">
<stop stop-color="#134CFF"/>
<stop offset="1" stop-color="#9747FF"/>
</linearGradient>
<linearGradient id="paint2_linear_7657_2489" x1="1.88892" y1="11.2426" x2="13.1417" y2="11.2426" gradientUnits="userSpaceOnUse">
<stop stop-color="#134CFF"/>
<stop offset="1" stop-color="#9747FF"/>
</linearGradient>
</defs>
</svg>
