<svg width="15" height="16" viewBox="0 0 15 16" fill="none" xmlns="http://www.w3.org/2000/svg">
<g id="Frame">
<path id="Vector" d="M9.45833 3.90625H5.95833C4.35417 3.90625 3.04167 5.21875 3.04167 6.82292V10.9062C3.04167 12.5104 4.35417 13.8229 5.95833 13.8229H9.45833C11.0625 13.8229 12.375 12.5104 12.375 10.9062V6.82292C12.375 5.21875 11.0625 3.90625 9.45833 3.90625Z" fill="url(#paint0_linear_7657_2475)"/>
<path id="Vector_2" d="M2.16675 9.21328C2.34175 9.21328 2.45842 9.09661 2.45842 8.92162V6.52995C2.45842 4.75078 3.88758 3.32161 5.66675 3.32161H9.75008C11.5292 3.32161 12.9584 4.75078 12.9584 6.52995V8.89245C12.9584 9.06745 13.0751 9.18411 13.2501 9.18411C13.4251 9.18411 13.5417 9.06745 13.5417 8.89245V6.52995C13.5417 4.42995 11.8501 2.73828 9.75008 2.73828H5.66675C3.56675 2.73828 1.87508 4.42995 1.87508 6.52995V8.92162C1.87508 9.09661 1.99175 9.21328 2.16675 9.21328Z" fill="url(#paint1_linear_7657_2475)"/>
<path id="Vector_3" d="M2.45825 9.44792H1.93325C1.40825 9.44792 0.999919 9.03958 0.999919 8.51458V7.46458C0.999919 6.93958 1.40825 6.53125 1.93325 6.53125H2.45825" fill="#0746FF"/>
<path id="Vector_4" d="M13.4834 9.44792H12.9584V6.53125H13.4834C14.0084 6.53125 14.4167 6.93958 14.4167 7.46458V8.51458C14.4167 9.03958 14.0084 9.44792 13.4834 9.44792Z" fill="#9748FF"/>
<path id="Vector_5" d="M7.6209 10.3214L8.99173 8.54219L10.2459 9.44635H11.0042C11.1792 9.44635 11.2959 9.32969 11.2959 9.15469C11.2959 8.97969 11.1792 8.86302 11.0042 8.86302H10.4501L8.90423 7.69635L7.6209 9.35885L6.1334 7.49219L4.93756 8.86302H4.2084C4.0334 8.86302 3.91673 8.97969 3.91673 9.15469C3.91673 9.32969 4.0334 9.44635 4.2084 9.44635H5.20007L6.10423 8.39635L7.6209 10.3214Z" fill="white"/>
</g>
<defs>
<linearGradient id="paint0_linear_7657_2475" x1="12.5209" y1="7.28693" x2="2.8959" y2="7.28693" gradientUnits="userSpaceOnUse">
<stop stop-color="#9747FF"/>
<stop offset="1" stop-color="#134CFF"/>
</linearGradient>
<linearGradient id="paint1_linear_7657_2475" x1="8.61751" y1="4.94567" x2="3.2766" y2="4.94567" gradientUnits="userSpaceOnUse">
<stop stop-color="#9747FF"/>
<stop offset="1" stop-color="#134CFF"/>
</linearGradient>
</defs>
</svg>
