<svg width="15" height="16" viewBox="0 0 15 16" fill="none" xmlns="http://www.w3.org/2000/svg">
<g id="Frame">
<path id="Subtract" fill-rule="evenodd" clip-rule="evenodd" d="M4.76465 2.76953C3.10779 2.76953 1.76465 4.11268 1.76465 5.76953V9.93119C1.76465 11.588 3.10779 12.9312 4.76465 12.9312H7.03053L8.05523 14.0199L9.4215 12.9312H10.1788C11.8356 12.9312 13.1788 11.588 13.1788 9.93119V5.76953C13.1788 4.11268 11.8356 2.76953 10.1788 2.76953H4.76465ZM5.55062 7.60828C5.55062 8.20958 5.09184 8.69703 4.52592 8.69703C3.95999 8.69703 3.50121 8.20958 3.50121 7.60828C3.50121 7.00698 3.95999 6.51953 4.52592 6.51953C5.09184 6.51953 5.55062 7.00698 5.55062 7.60828ZM8.28317 7.60828C8.28317 8.20958 7.82439 8.69703 7.25846 8.69703C6.69253 8.69703 6.23376 8.20958 6.23376 7.60828C6.23376 7.00698 6.69253 6.51953 7.25846 6.51953C7.82439 6.51953 8.28317 7.00698 8.28317 7.60828ZM9.99101 8.69703C10.5569 8.69703 11.0157 8.20958 11.0157 7.60828C11.0157 7.00698 10.5569 6.51953 9.99101 6.51953C9.42508 6.51953 8.9663 7.00698 8.9663 7.60828C8.9663 8.20958 9.42508 8.69703 9.99101 8.69703Z" fill="url(#paint0_linear_7657_2483)"/>
</g>
<defs>
<linearGradient id="paint0_linear_7657_2483" x1="1.76465" y1="6.6049" x2="13.1788" y2="6.6049" gradientUnits="userSpaceOnUse">
<stop stop-color="#134CFF"/>
<stop offset="1" stop-color="#9747FF"/>
</linearGradient>
</defs>
</svg>
